<svg width="559" height="100" viewBox="0 0 559 100" fill="none" xmlns="http://www.w3.org/2000/svg">
<path d="M504.562 68.6968C504.562 69.0794 504.849 69.2707 505.232 69.2707C505.71 69.2707 506.189 68.9838 506.189 68.3142V67.8359C505.997 67.9316 505.71 68.0272 505.423 68.1229C504.754 68.2185 504.562 68.3142 504.562 68.6968Z" fill="white"/>
<path d="M515.85 70.327V67.2661C515.85 66.6922 515.659 66.3096 515.18 66.3096C514.702 66.3096 514.415 66.7879 514.415 67.3618V70.327H512.406V67.2661C512.406 66.6922 512.215 66.3096 511.737 66.3096C511.259 66.3096 510.972 66.7879 510.972 67.3618V70.327H508.963V64.7792H510.876V65.5444C511.259 64.8748 511.832 64.5878 512.598 64.5878C513.363 64.5878 513.841 64.9705 514.128 65.5444C514.606 64.7792 515.18 64.5878 515.946 64.5878C517.285 64.5878 517.859 65.5444 517.859 66.7879V70.327H515.85ZM508.389 70.327H506.38C506.285 70.2313 506.285 70.04 506.189 69.7531C505.806 70.2313 505.232 70.5183 504.563 70.5183C503.511 70.5183 502.745 69.9444 502.745 68.8922C502.745 67.6487 503.702 67.2661 504.754 67.1705C505.902 67.0748 506.285 66.8835 506.285 66.5965C506.285 66.3096 506.189 66.0226 505.711 66.0226C505.232 66.0226 505.041 66.3096 504.946 66.6922H503.032C503.032 65.64 503.893 64.6835 505.615 64.6835C506.476 64.6835 507.05 64.7792 507.432 65.0661C508.006 65.4487 508.293 66.0226 508.293 66.6922V69.3705C508.198 69.8487 508.198 70.1357 508.389 70.327ZM502.363 70.327H500.259V67.2661C500.259 66.6922 500.067 66.3096 499.493 66.3096C499.015 66.3096 498.632 66.7879 498.632 67.3618V70.327H496.624V64.7792H498.537V65.5444C499.015 64.9705 499.589 64.5878 500.354 64.5878C501.598 64.5878 502.267 65.4487 502.267 66.6922V70.327H502.363ZM496.146 66.0226H495.093V68.2226C495.093 68.7966 495.476 68.7966 496.146 68.7009V70.2313C495.859 70.327 495.476 70.327 495.093 70.327C493.754 70.327 493.085 69.9444 493.085 68.6052V65.927H492.415V64.6835H493.085V62.8661H495.093V64.6835H496.146V66.0226ZM489.641 69.0835C490.024 69.0835 490.215 68.9879 490.406 68.7009H492.415C492.319 69.1792 491.937 69.6574 491.363 70.04C490.885 70.327 490.311 70.5183 489.641 70.5183C487.824 70.5183 486.58 69.2748 486.58 67.5531C486.58 65.927 487.824 64.5878 489.546 64.5878C490.406 64.5878 491.076 64.8748 491.554 65.3531C492.224 65.927 492.511 66.9792 492.511 68.0313H488.589C488.685 68.7009 489.067 69.0835 489.641 69.0835ZM486.198 64.1096H484.189V62.6748H486.198V64.1096ZM486.198 70.327H484.189V64.7792H486.198V70.327ZM481.606 70.327H479.024L476.537 62.5792H478.832L479.885 66.2139C480.076 66.8835 480.267 67.7444 480.267 67.7444C480.267 67.7444 480.459 66.8835 480.65 66.2139L481.702 62.5792H483.998L481.606 70.327ZM496.911 42.4922C483.328 42.4922 472.328 53.4922 472.328 67.0748C472.328 80.6574 483.328 91.6574 496.911 91.6574C510.493 91.6574 521.493 80.6574 521.493 67.0748C521.493 53.4922 510.493 42.4922 496.911 42.4922Z" fill="white"/>
<path d="M489.55 65.9297C488.976 65.9297 488.689 66.3123 488.594 66.8862H490.507C490.411 66.3123 490.029 65.9297 489.55 65.9297Z" fill="white"/>
<path d="M197.523 80.9423H204.219C204.506 81.8032 205.367 82.6641 206.993 82.6641C209.193 82.6641 209.958 81.2293 209.958 79.2206V77.7858H209.767C208.715 79.0293 207.184 79.9858 205.08 79.9858C200.871 79.9858 197.141 76.8293 197.141 70.7075C197.141 65.0641 200.201 60.6641 204.793 60.6641C207.471 60.6641 209.001 61.7162 210.149 63.438H210.245V61.238H216.845V78.3597C216.845 81.5162 215.793 84.0032 214.071 85.438C212.349 86.9684 209.862 87.638 207.088 87.638C201.828 87.4467 198.193 85.3423 197.523 80.9423ZM210.341 70.3249C210.341 67.838 209.193 65.9249 207.184 65.9249C205.271 65.9249 204.028 67.6467 204.028 70.3249C204.028 73.0032 205.271 74.9162 207.184 74.9162C209.097 74.8206 210.341 72.9075 210.341 70.3249Z" fill="white"/>
<path d="M189.772 64.4902H189.868C191.302 61.7162 193.215 60.6641 195.511 60.6641C196.085 60.6641 196.468 60.7597 196.659 60.8554V66.8815H196.468C192.354 66.1162 190.059 68.1249 190.059 72.5249V80.8467H183.172V61.1423H189.772V64.4902Z" fill="white"/>
<path d="M32.0469 53.2031H45.6295C48.2121 53.2031 50.2208 53.8727 51.5599 54.9249C53.0904 56.1683 53.9512 58.0814 53.9512 60.377C53.9512 63.0553 52.899 64.6814 50.699 65.7336V65.8292C53.5686 66.7857 55.1947 69.3683 55.1947 72.4292C55.1947 75.3944 54.0469 77.6901 52.2295 79.1249C50.6034 80.3683 48.5947 80.8466 45.9164 80.8466H32.0469V53.2031ZM44.9599 74.7249C46.586 74.7249 47.8295 73.7683 47.8295 71.8553C47.8295 69.9422 46.4904 68.9857 44.9599 68.9857H39.6034V74.6292H44.9599V74.7249ZM44.2904 64.0118C45.7251 64.0118 46.7773 63.2466 46.7773 61.6205C46.7773 60.0901 45.6295 59.2292 44.1947 59.2292H39.5077V64.0118H44.2904Z" fill="white"/>
<path d="M63.5158 53.2031H56.4375V80.8466H63.5158V53.2031Z" fill="white"/>
<path d="M64.9531 71.0902C64.9531 64.8728 68.9705 60.6641 75.1879 60.6641C81.4053 60.6641 85.4227 64.8728 85.4227 71.0902C85.4227 77.4032 81.5009 81.5162 75.1879 81.5162C68.9705 81.5162 64.9531 77.3075 64.9531 71.0902ZM78.3444 71.0902C78.3444 67.6467 77.1966 65.4467 75.0922 65.4467C72.9879 65.4467 71.9357 67.6467 71.9357 71.0902C71.9357 74.5336 72.9879 76.7336 75.0922 76.7336C77.1966 76.7336 78.3444 74.5336 78.3444 71.0902Z" fill="white"/>
<path d="M86.1875 71.0902C86.1875 64.8728 90.2049 60.6641 96.4223 60.6641C102.64 60.6641 106.657 64.8728 106.657 71.0902C106.657 77.4032 102.735 81.5162 96.4223 81.5162C90.3005 81.5162 86.1875 77.3075 86.1875 71.0902ZM99.6744 71.0902C99.6744 67.6467 98.5266 65.4467 96.4223 65.4467C94.3179 65.4467 93.2658 67.6467 93.2658 71.0902C93.2658 74.5336 94.3179 76.7336 96.4223 76.7336C98.5266 76.7336 99.6744 74.5336 99.6744 71.0902Z" fill="white"/>
<path d="M108.086 61.1442H114.686V64.1094H114.782C116.121 61.8138 117.938 60.5703 120.712 60.5703C123.199 60.5703 125.112 61.8138 126.069 64.0138H126.164C127.79 61.4312 129.895 60.5703 132.286 60.5703C136.877 60.5703 138.886 63.9181 138.886 68.5094V80.9442H131.999V69.7529C131.999 67.7442 131.329 66.4051 129.608 66.4051C127.886 66.4051 127.025 68.0312 127.025 70.1355V80.8486H120.138V69.7529C120.138 67.7442 119.469 66.4051 117.747 66.4051C116.025 66.4051 115.164 68.0312 115.164 70.1355V80.8486H108.086V61.1442Z" fill="white"/>
<path d="M147.305 78.3596L147.209 80.9423H140.609V53.2031H147.496V63.151H147.592C148.931 61.4292 150.653 60.4727 153.235 60.4727C158.209 60.4727 161.079 64.9683 161.079 70.8988C161.079 77.5944 157.922 81.4205 152.853 81.4205C150.749 81.5162 148.549 80.5596 147.305 78.3596ZM154.096 70.8988C154.096 67.7423 152.948 65.6379 150.844 65.6379C148.74 65.6379 147.401 67.6466 147.401 70.8988C147.401 74.0553 148.74 76.1596 150.844 76.1596C152.948 76.1596 154.096 74.0553 154.096 70.8988Z" fill="white"/>
<path d="M162.031 70.9964C162.031 64.8747 166.144 60.5703 171.979 60.5703C174.944 60.5703 177.144 61.5268 178.866 63.1529C181.162 65.3529 182.214 68.7964 182.118 72.9094H168.918C169.205 75.3964 170.353 76.6399 172.457 76.6399C173.701 76.6399 174.753 76.066 175.136 74.7268H181.831C180.683 79.2225 177.144 81.5181 172.266 81.5181C166.144 81.4225 162.031 77.3094 162.031 70.9964ZM168.918 68.892H175.231C175.136 66.5007 173.796 65.2573 172.17 65.2573C170.162 65.2573 169.11 66.692 168.918 68.892Z" fill="white"/>
<path d="M445.547 53.2031V80.8466H452.434V75.2988L453.869 73.6727L457.599 80.8466H465.443L458.46 68.4118L464.677 61.1423H457.025L452.434 67.1683V53.2031H445.547Z" fill="white"/>
<path d="M223.25 53.2031H236.833C239.415 53.2031 241.424 53.8727 242.763 54.9249C244.293 56.1683 245.154 58.0814 245.154 60.377C245.154 63.0553 244.102 64.6814 241.902 65.7336V65.8292C244.772 66.7857 246.398 69.3683 246.398 72.4292C246.398 75.3944 245.25 77.6901 243.433 79.1249C241.902 80.2727 239.798 80.8466 237.12 80.8466H223.25V53.2031ZM236.163 74.7249C237.789 74.7249 239.033 73.7683 239.033 71.8553C239.033 69.9422 237.693 68.9857 236.163 68.9857H230.807V74.6292H236.163V74.7249ZM235.493 64.0118C236.928 64.0118 237.98 63.2466 237.98 61.6205C237.98 60.0901 236.928 59.2292 235.398 59.2292H230.711V64.0118H235.493Z" fill="white"/>
<path d="M260.173 80.845V78.2624H260.077C258.643 80.2711 256.825 81.4189 254.243 81.4189C249.747 81.4189 247.547 78.358 247.547 73.7667V61.1406H254.434V72.3319C254.434 74.5319 255.295 75.4884 256.921 75.4884C258.738 75.4884 259.79 74.245 259.79 72.045V61.1406H266.677V80.845H260.173Z" fill="white"/>
<path d="M267.922 74.6293H274.331C274.426 76.2554 275.383 77.2119 277.2 77.2119C278.539 77.2119 279.591 76.8293 279.591 75.4902C279.591 73.8641 277.391 73.7684 275 73.3858C271.844 72.9075 268.209 71.8554 268.209 66.9771C268.209 62.9597 272.131 60.6641 276.722 60.6641C282.365 60.6641 285.426 62.8641 285.618 66.7858H279.113C278.922 65.351 277.87 64.8728 276.722 64.8728C275.67 64.8728 274.713 65.2554 274.713 66.4032C274.713 67.551 276.435 67.838 278.539 68.1249C281.983 68.6032 286.287 69.4641 286.287 74.9162C286.287 79.6032 282.174 81.7075 277.104 81.7075C271.557 81.5162 267.922 79.1249 267.922 74.6293Z" fill="white"/>
<path d="M287.438 80.8451H294.324V61.1408H287.438V80.8451ZM287.438 59.6103H294.324V54.0625H287.438V59.6103Z" fill="white"/>
<path d="M303.022 63.8244C304.552 61.6244 306.465 60.4766 309.048 60.4766C313.352 60.4766 315.648 63.5374 315.648 68.0331V80.8505H308.761V69.7548C308.761 67.5548 307.996 66.3113 306.178 66.3113C304.457 66.3113 303.309 67.7461 303.309 70.0418V80.8505H296.422V61.1461H303.022V63.8244Z" fill="white"/>
<path d="M316.797 70.9964C316.797 64.8747 320.91 60.5703 326.745 60.5703C329.71 60.5703 331.91 61.5268 333.632 63.1529C335.927 65.3529 336.979 68.7964 336.884 72.9094H323.684C323.971 75.3964 325.119 76.6399 327.223 76.6399C328.466 76.6399 329.519 76.066 329.901 74.7268H336.597C335.449 79.2225 331.91 81.5181 327.032 81.5181C320.91 81.4225 316.797 77.3094 316.797 70.9964ZM323.779 68.892H330.093C329.997 66.5007 328.658 65.2573 327.032 65.2573C325.023 65.2573 323.971 66.692 323.779 68.892Z" fill="white"/>
<path d="M337.656 74.6293H344.065C344.161 76.2554 345.117 77.2119 346.935 77.2119C348.274 77.2119 349.326 76.8293 349.326 75.4902C349.326 73.8641 347.126 73.7684 344.735 73.3858C341.578 72.9075 337.943 71.8554 337.943 66.9771C337.943 62.9597 341.865 60.6641 346.456 60.6641C352.1 60.6641 355.161 62.8641 355.352 66.7858H348.848C348.656 65.351 347.604 64.8728 346.456 64.8728C345.404 64.8728 344.448 65.2554 344.448 66.4032C344.448 67.551 346.169 67.838 348.274 68.1249C351.717 68.6032 356.021 69.4641 356.021 74.9162C356.021 79.6032 351.908 81.7075 346.839 81.7075C341.387 81.5162 337.752 79.1249 337.656 74.6293Z" fill="white"/>
<path d="M356.875 74.6293H363.284C363.379 76.2554 364.336 77.2119 366.153 77.2119C367.492 77.2119 368.545 76.8293 368.545 75.4902C368.545 73.8641 366.345 73.7684 363.953 73.3858C360.797 72.9075 357.162 71.8554 357.162 66.9771C357.162 62.9597 361.084 60.6641 365.675 60.6641C371.318 60.6641 374.379 62.8641 374.571 66.7858H368.066C367.875 65.351 366.823 64.8728 365.675 64.8728C364.623 64.8728 363.666 65.2554 363.666 66.4032C363.666 67.551 365.388 67.838 367.492 68.1249C370.936 68.6032 375.24 69.4641 375.24 74.9162C375.24 79.6032 371.127 81.7075 366.058 81.7075C360.51 81.5162 356.875 79.1249 356.875 74.6293Z" fill="white"/>
<path d="M397.626 61.1406L394.948 72.045L392.365 61.1406H386.339L383.852 71.9493H383.757L381.078 61.1406H374L380.026 80.845H386.53L389.209 69.3667H389.304L391.983 80.845H398.678L404.609 61.1406H397.626Z" fill="white"/>
<path d="M403.461 70.9964C403.461 64.8747 407.574 60.5703 413.409 60.5703C416.374 60.5703 418.574 61.5268 420.296 63.1529C422.591 65.3529 423.644 68.7964 423.548 72.9094H410.348C410.635 75.3964 411.783 76.6399 413.887 76.6399C415.131 76.6399 416.183 76.066 416.565 74.7268H423.261C422.113 79.2225 418.574 81.5181 413.696 81.5181C407.574 81.4225 403.461 77.3094 403.461 70.9964ZM410.348 68.892H416.661C416.565 66.5007 415.226 65.2573 413.6 65.2573C411.687 65.2573 410.539 66.692 410.348 68.892Z" fill="white"/>
<path d="M424.406 70.9964C424.406 64.8747 428.519 60.5703 434.354 60.5703C437.319 60.5703 439.519 61.5268 441.241 63.1529C443.537 65.3529 444.589 68.7964 444.493 72.9094H431.293C431.58 75.3964 432.728 76.6399 434.832 76.6399C436.076 76.6399 437.128 76.066 437.511 74.7268H444.206C443.058 79.2225 439.519 81.5181 434.641 81.5181C428.519 81.4225 424.406 77.3094 424.406 70.9964ZM431.293 68.892H437.606C437.511 66.5007 436.171 65.2573 434.545 65.2573C432.632 65.2573 431.484 66.692 431.293 68.892Z" fill="white"/>
<path d="M40.1773 27.7587H44.5773C46.586 27.7587 47.8295 26.4196 47.8295 24.5065C47.8295 22.6891 46.586 21.4457 44.5773 21.4457H40.1773V27.7587ZM32.0469 14.75H44.7686C48.3077 14.75 50.8903 15.7065 52.7077 17.3326C54.7164 19.0543 55.7686 21.637 55.7686 24.6978C55.7686 30.0543 51.8469 34.0717 46.2034 34.0717H40.1773V42.4891H32.0469V14.75Z" fill="#38D430"/>
<path d="M63.8965 24.9867H63.9921C65.4269 23.265 67.2443 22.1171 70.0182 22.1171C74.6095 22.1171 77.0008 25.178 77.0008 29.6736V42.491H69.6356V31.491C69.6356 29.4823 68.7747 28.0476 66.8617 28.0476C65.0443 28.0476 63.8965 29.6737 63.8965 31.778V42.3954H56.5312V14.6562H63.8965V24.9867Z" fill="#38D430"/>
<path d="M90.007 20.3956H85.1287L87.52 15.0391H94.5983L90.007 20.3956ZM90.1026 35.3173V33.5956C89.4331 33.9782 88.4766 34.2651 87.2331 34.5521C85.1287 35.0304 84.4592 35.6043 84.4592 36.8478C84.4592 38.1869 85.5113 38.7608 86.7548 38.7608C88.4766 38.6651 90.1026 37.7086 90.1026 35.3173ZM90.1026 40.2912C88.6679 42.1086 86.6592 42.9695 84.0766 42.9695C80.2505 42.9695 77.4766 40.9608 77.4766 37.0391C77.4766 32.6391 80.8244 31.3956 84.6505 30.9173C88.8592 30.4391 90.007 29.9608 90.007 28.7173C90.007 27.6651 89.5287 26.8043 87.9027 26.8043C86.2766 26.8043 85.5113 27.7608 85.32 29.1956H78.3374C78.5287 25.2738 81.494 22.0217 87.7113 22.0217C90.7722 22.0217 92.6853 22.4043 94.2157 23.3608C96.2244 24.6043 97.2766 26.613 97.2766 29.2912V39.1434C97.2766 40.7695 97.3722 41.726 98.0418 42.1086V42.3956H90.8679C90.4853 42.013 90.1983 41.4391 90.1026 40.2912Z" fill="#38D430"/>
<path d="M97.0878 22.6899H99.6704V16.2812H106.844V22.6899H110.575V27.0899H106.844V35.1247C106.844 37.1334 108.279 37.1334 110.479 36.9421V42.2987C109.331 42.5856 108.183 42.7769 106.844 42.7769C102.062 42.7769 99.5748 41.4378 99.5748 36.6552V27.1856H96.9922V22.6899H97.0878Z" fill="#38D430"/>
<path d="M114.109 22.6899H116.692V16.2812H123.866V22.6899H127.596V27.0899H123.866V35.1247C123.866 37.1334 125.301 37.1334 127.596 36.9421V42.2987C126.448 42.5856 125.301 42.7769 123.962 42.7769C119.179 42.7769 116.692 41.4378 116.692 36.6552V27.1856H114.109V22.6899Z" fill="#38D430"/>
<path d="M135.444 25.756H135.539C137.165 23.269 138.983 22.3125 141.565 22.3125C142.139 22.3125 142.522 22.4082 142.809 22.5038V28.7212H142.617C138.313 27.956 135.826 29.9647 135.826 34.3647V42.4951H128.461V22.6951H135.444V25.756Z" fill="#38D430"/>
<path d="M144.344 22.6914H151.709V42.4914H144.344V22.6914ZM144.344 15.4219H151.709V20.3001H144.344V15.4219Z" fill="#38D430"/>
<path d="M174.09 12.3615C174.09 14.0833 173.038 15.5181 171.794 16.2833H167.873C169.307 15.3268 169.69 14.3702 169.69 13.605C169.69 13.0311 169.307 12.3615 168.255 12.3615C167.873 12.3615 167.299 12.3615 166.82 12.6485V9.49198C167.394 9.30068 168.446 9.10938 169.499 9.10938C172.56 9.10938 174.09 10.4485 174.09 12.3615ZM159.455 30.5355H166.246C165.96 28.3355 164.716 26.9963 162.994 26.9963C160.986 26.9963 159.838 28.3355 159.455 30.5355ZM170.36 20.7789H164.716L162.994 18.6746L161.273 20.7789H155.629L159.838 15.4224H166.151L170.36 20.7789ZM152.281 32.5442C152.281 26.6137 156.586 22.0224 162.803 22.0224C165.864 22.0224 168.255 23.0746 170.073 24.7007C172.464 26.9007 173.612 30.4398 173.516 34.3615H159.36C159.742 36.6572 160.986 38.092 163.281 38.092C164.525 38.092 165.481 37.6137 166.055 36.6572H173.133C172.751 38.4746 171.316 40.1963 169.403 41.4398C167.586 42.5876 165.577 43.0659 163.09 43.0659C156.586 43.0659 152.281 38.6659 152.281 32.5442Z" fill="#38D430"/>
<path d="M181.735 25.465H181.83C183.456 23.265 185.465 22.1172 188.143 22.1172C192.734 22.1172 195.126 25.1781 195.126 29.6737V42.4911H187.761V31.4911C187.761 29.4824 186.9 28.0476 184.987 28.0476C183.169 28.0476 182.021 29.6737 182.021 31.7781V42.3954H174.656V22.6911H181.639V25.465H181.735Z" fill="#38D430"/>
<path d="M208.327 27.95L199.718 14.75H209.092L213.397 22.2109H213.492L217.892 14.75H226.692L218.371 27.8543L227.553 42.4891H217.892L213.11 33.8804L208.04 42.4891H198.953L208.327 27.95Z" fill="#38D430"/>
<path d="M238.753 35.3191V33.5973C238.083 33.98 237.127 34.2669 235.883 34.5539C233.779 35.0321 233.11 35.606 233.11 36.8495C233.11 38.1886 234.162 38.7626 235.405 38.7626C237.127 38.6669 238.753 37.7104 238.753 35.3191ZM238.657 40.293C237.223 42.1104 235.214 42.9713 232.631 42.9713C228.805 42.9713 226.031 40.9626 226.031 37.0408C226.031 32.6408 229.379 31.3973 233.205 30.9191C237.414 30.4408 238.562 29.9626 238.562 28.7191C238.562 27.6669 238.083 26.806 236.457 26.806C234.831 26.806 234.066 27.7626 233.875 29.1973H226.892C227.083 25.2756 230.049 22.0234 236.266 22.0234C239.327 22.0234 241.24 22.406 242.77 23.3626C244.779 24.606 245.831 26.6147 245.831 29.293V39.1452C245.831 40.7713 245.927 41.7278 246.596 42.1104V42.3973H239.423C239.04 42.0147 238.849 41.4408 238.657 40.293Z" fill="#38D430"/>
<path d="M254.344 25.465H254.44C256.066 23.265 258.074 22.1172 260.753 22.1172C265.344 22.1172 267.735 25.1781 267.735 29.6737V42.4911H260.37V31.4911C260.37 29.4824 259.509 28.0476 257.596 28.0476C255.779 28.0476 254.631 29.6737 254.631 31.7781V42.3954H247.266V22.6911H254.248V25.465H254.344Z" fill="#38D430"/>
<path d="M276.631 24.9867H276.726C278.161 23.265 279.979 22.1171 282.753 22.1171C287.344 22.1171 289.735 25.178 289.735 29.6736V42.491H282.37V31.491C282.37 29.4823 281.509 28.0476 279.596 28.0476C277.779 28.0476 276.631 29.6737 276.631 31.778V42.3954H269.266V14.6562H276.631V24.9867Z" fill="#38D430"/>
<path d="M294.516 27.6641V42.4901" stroke="white" stroke-width="0.458" stroke-miterlimit="10"/>
<path d="M299.391 31.3951C299.391 29.9603 300.251 28.8125 301.782 28.8125C302.356 28.8125 302.834 29.0038 303.121 29.2908C303.504 29.5777 303.695 29.9603 303.791 30.4386H303.121C303.025 29.8647 302.547 29.3864 301.782 29.3864C300.73 29.3864 300.156 30.2473 300.156 31.3951C300.156 32.5429 300.825 33.4038 301.782 33.4038C302.643 33.4038 303.121 32.8299 303.217 32.0647H303.886C303.886 32.5429 303.599 33.1169 303.312 33.4038C302.93 33.7864 302.451 33.9777 301.782 33.9777C300.251 34.0734 299.391 32.9255 299.391 31.3951Z" fill="white"/>
<path d="M305.129 30.8271C305.416 30.4445 305.798 30.2532 306.276 30.2532C307.042 30.2532 307.52 30.6358 307.52 31.401V33.888H306.946V31.4967C306.946 31.0184 306.659 30.7315 306.181 30.7315C305.607 30.7315 305.224 31.1141 305.224 31.688V33.888H304.555V28.9141H305.224V30.2532C305.129 30.4445 305.129 30.7315 305.129 30.8271Z" fill="white"/>
<path d="M310.678 33.8848V33.4065C310.392 33.7891 310.105 33.9804 309.626 33.9804C308.861 33.9804 308.383 33.5022 308.383 32.737V30.25H309.052V32.737C309.052 33.2152 309.339 33.5022 309.818 33.5022C310.392 33.5022 310.678 33.1196 310.678 32.5457V30.3457H311.348V33.9804H310.678V33.8848Z" fill="white"/>
<path d="M312.021 35.1283V34.5543C312.117 34.5543 312.213 34.65 312.404 34.65C312.691 34.65 312.787 34.5543 312.978 34.1717C312.978 34.1717 313.073 33.7891 313.073 33.6935L311.734 30.25H312.404L313.169 32.2587C313.36 32.6413 313.456 33.2152 313.456 33.2152C313.456 33.2152 313.647 32.6413 313.743 32.2587L314.413 30.25H315.082L313.552 34.1717C313.265 34.937 312.978 35.1283 312.5 35.1283C312.404 35.2239 312.117 35.1283 312.021 35.1283Z" fill="white"/>
<path d="M315.266 32.1643C315.266 31.1122 315.935 30.2513 316.987 30.2513C317.561 30.2513 317.944 30.4426 318.231 30.8252C318.518 31.2078 318.709 31.6861 318.709 32.26H315.935C315.935 32.9296 316.318 33.5035 317.083 33.5035C317.561 33.5035 317.944 33.3122 318.04 32.9296H318.613C318.422 33.5991 317.848 34.0774 317.083 34.0774C315.935 34.0774 315.266 33.2165 315.266 32.1643ZM318.04 29.8687H317.37L316.987 29.3904L316.605 29.8687H316.031L316.796 29.0078H317.37L318.04 29.8687ZM315.935 31.8774H318.04C318.04 31.2078 317.657 30.7296 316.987 30.7296C316.318 30.7296 316.031 31.2078 315.935 31.8774Z" fill="white"/>
<path d="M319.957 30.8239C320.244 30.4413 320.626 30.25 321.105 30.25C321.87 30.25 322.348 30.6326 322.348 31.3978V33.8848H321.774V31.4935C321.774 31.0152 321.487 30.7283 321.009 30.7283C320.435 30.7283 320.052 31.1109 320.052 31.6848V33.8848H319.383V30.25H319.957V30.8239Z" fill="white"/>
<path d="M324.455 30.3431H325.029V29.1953H325.603V30.3431H326.368V30.8214H325.603V33.1171C325.603 33.404 325.698 33.404 325.985 33.404C326.081 33.404 326.272 33.404 326.272 33.404V33.8823C326.081 33.8823 325.89 33.9779 325.794 33.9779C325.316 33.9779 324.933 33.7866 324.933 33.2127V30.8214H324.359V30.3431H324.455Z" fill="white"/>
<path d="M327.515 31.0152C327.802 30.6326 328.089 30.3457 328.567 30.3457C328.663 30.3457 328.759 30.3457 328.759 30.3457V30.9196C328.663 30.9196 328.567 30.9196 328.472 30.9196C327.898 30.9196 327.42 31.3022 327.42 31.9717V33.8848H326.75V30.25H327.324V31.0152H327.515Z" fill="white"/>
<path d="M329.234 33.0239C329.234 32.163 329.808 31.9717 330.765 31.8761C331.339 31.7804 331.626 31.6848 331.626 31.3978C331.626 31.0152 331.339 30.7283 330.86 30.7283C330.287 30.7283 330 31.0152 330 31.3978H329.426C329.426 30.8239 329.904 30.25 330.86 30.25C331.243 30.25 331.53 30.3457 331.721 30.4413C332.008 30.6326 332.2 30.9196 332.2 31.3978V33.1196C332.2 33.4065 332.295 33.5978 332.582 33.5022V33.9804C332.487 33.9804 332.391 34.0761 332.2 34.0761C331.817 34.0761 331.626 33.8848 331.53 33.5022C331.339 33.7891 330.956 34.0761 330.287 34.0761C329.713 33.9804 329.234 33.6935 329.234 33.0239ZM331.626 32.6413V32.0674C331.434 32.163 331.147 32.2587 330.86 32.3543C330.287 32.45 329.904 32.5457 329.904 33.0239C329.904 33.5022 330.287 33.5978 330.669 33.5978C331.243 33.5022 331.626 33.0239 331.626 32.6413Z" fill="white"/>
<path d="M333.73 30.8239C334.017 30.4413 334.4 30.25 334.878 30.25C335.643 30.25 336.121 30.6326 336.121 31.3978V33.8848H335.548V31.4935C335.548 31.0152 335.261 30.7283 334.782 30.7283C334.208 30.7283 333.826 31.1109 333.826 31.6848V33.8848H333.156V30.25H333.73V30.8239Z" fill="white"/>
<path d="M336.885 34.1757H337.459C337.554 34.5584 337.841 34.7497 338.415 34.7497C339.085 34.7497 339.372 34.4627 339.372 33.8888V33.7931C339.372 33.6018 339.372 33.4105 339.372 33.3149C339.085 33.6975 338.798 33.8888 338.32 33.8888C337.363 33.8888 336.789 33.2192 336.789 32.1671C336.789 31.0192 337.459 30.4453 338.32 30.4453C338.798 30.4453 339.18 30.6366 339.372 31.0192V30.541H339.946V33.9844C339.946 34.4627 339.754 34.8453 339.467 35.0366C339.18 35.2279 338.798 35.4192 338.32 35.4192C337.459 35.2279 336.885 34.8453 336.885 34.1757ZM339.467 31.9757C339.467 31.2105 339.085 30.7323 338.415 30.7323C337.746 30.7323 337.459 31.2105 337.459 31.9757C337.459 32.741 337.841 33.2192 338.415 33.2192C339.18 33.2192 339.467 32.741 339.467 31.9757Z" fill="white"/>
<path d="M342.242 32.163C342.242 31.1109 342.912 30.25 343.964 30.25C344.825 30.25 345.399 30.7283 345.494 31.4935H344.825C344.729 31.0152 344.442 30.7283 343.868 30.7283C343.103 30.7283 342.72 31.3022 342.72 32.0674C342.72 32.8326 343.103 33.5022 343.868 33.5022C344.442 33.5022 344.729 33.2152 344.825 32.6413H345.399C345.303 33.5022 344.729 33.9804 343.868 33.9804C342.912 34.0761 342.242 33.2152 342.242 32.163Z" fill="white"/>
<path d="M348.46 33.8878V33.4095C348.173 33.7921 347.886 33.9834 347.408 33.9834C346.642 33.9834 346.164 33.5052 346.164 32.7399V30.253H346.834V32.7399C346.834 33.2182 347.121 33.5052 347.599 33.5052C348.173 33.5052 348.46 33.1226 348.46 32.5486V30.3486H349.129V33.9834H348.46V33.8878ZM348.268 29.2008C348.268 29.4878 348.077 29.6791 347.886 29.7747H347.408C347.695 29.5834 347.79 29.4878 347.79 29.2965C347.79 29.1052 347.694 29.0095 347.503 29.0095C347.408 29.0095 347.312 29.0095 347.216 29.0095V28.6269C347.312 28.6269 347.408 28.5312 347.599 28.5312C347.981 28.7226 348.268 28.9139 348.268 29.2008Z" fill="white"/>
<path d="M349.797 33.0239C349.797 32.163 350.371 31.9717 351.327 31.8761C351.901 31.7804 352.188 31.6848 352.188 31.3978C352.188 31.0152 351.901 30.7283 351.423 30.7283C350.849 30.7283 350.562 31.0152 350.562 31.3978H349.988C349.988 30.8239 350.466 30.25 351.423 30.25C351.806 30.25 352.093 30.3457 352.284 30.4413C352.571 30.6326 352.762 30.9196 352.762 31.3978V33.1196C352.762 33.4065 352.858 33.5978 353.145 33.5022V33.9804C353.049 33.9804 352.953 34.0761 352.858 34.0761C352.475 34.0761 352.284 33.8848 352.188 33.5022C351.997 33.7891 351.614 34.0761 350.945 34.0761C350.371 33.9804 349.797 33.6935 349.797 33.0239ZM352.284 32.6413V32.0674C352.093 32.163 351.806 32.2587 351.519 32.3543C350.945 32.45 350.562 32.5457 350.562 33.0239C350.562 33.5022 350.945 33.5978 351.232 33.5978C351.901 33.5022 352.284 33.0239 352.284 32.6413Z" fill="white"/>
<path d="M355.25 28.9141H357.641C358.12 28.9141 358.598 29.0097 358.789 29.2967C359.076 29.5836 359.172 29.8706 359.172 30.2532C359.172 30.7315 358.885 31.1141 358.407 31.2097C359.076 31.401 359.363 31.7836 359.363 32.4532C359.363 32.9315 359.172 33.3141 358.885 33.5054C358.598 33.7923 358.215 33.888 357.641 33.888H355.25V28.9141ZM357.45 30.9228C357.833 30.9228 358.12 30.7315 358.12 30.3488C358.12 29.9662 357.833 29.7749 357.45 29.7749H356.398V30.9228H357.45ZM357.546 33.0271C357.737 33.0271 357.928 32.9315 358.12 32.8358C358.215 32.7401 358.311 32.5488 358.311 32.3575C358.311 31.8793 358.024 31.688 357.546 31.688H356.398V33.0271H357.546Z" fill="white"/>
<path d="M361.372 28.9113H362.52L364.337 33.8853H363.094L362.807 32.9287H360.989L360.703 33.8853H359.555L361.372 28.9113ZM361.276 32.1635H362.52L362.233 31.207C362.042 30.5374 361.946 29.8679 361.946 29.8679C361.946 29.8679 361.755 30.7287 361.563 31.207L361.276 32.1635ZM362.233 28.4331H361.563L361.946 27.4766H362.998L362.233 28.4331Z" fill="white"/>
<path d="M364.438 31.4967C364.438 29.9662 365.394 28.9141 366.924 28.9141C368.455 28.9141 369.411 30.0619 369.411 31.4967C369.411 33.0271 368.455 34.0793 366.924 34.0793C365.394 34.0793 364.438 32.9315 364.438 31.4967ZM368.168 31.4967C368.168 30.5402 367.785 29.7749 366.924 29.7749C366.064 29.7749 365.585 30.5402 365.585 31.4967C365.585 32.4532 366.064 33.1228 366.924 33.1228C367.69 33.1228 368.168 32.3575 368.168 31.4967Z" fill="white"/>
<path d="M371.031 28.9141H375.144V29.8706H373.614V33.888H372.466V29.8706H371.031V28.9141Z" fill="white"/>
<path d="M376.677 28.9113H377.825L379.642 33.8853H378.399L378.112 32.9287H376.294L376.007 33.8853H374.859L376.677 28.9113ZM376.294 27.4766H377.346L377.729 28.4331H377.059L376.294 27.4766ZM376.581 32.1635H377.825L377.538 31.207C377.346 30.5374 377.251 29.8679 377.251 29.8679C377.251 29.8679 377.059 30.7287 376.868 31.207L376.581 32.1635Z" fill="white"/>
<path d="M380.125 28.9141H381.273V33.888H380.125V28.9141Z" fill="white"/>
<path d="M383.469 28.9141H384.617L385.956 31.1141C386.243 31.5923 386.625 32.4532 386.625 32.4532C386.625 32.4532 386.53 31.5923 386.53 31.0184V29.0097H387.582V33.9836H386.434L385.095 31.8793C384.808 31.401 384.425 30.5401 384.425 30.5401C384.425 30.5401 384.521 31.401 384.521 31.9749V33.9836H383.469V28.9141Z" fill="white"/>
<path d="M392.076 33.2144C391.789 33.7883 391.215 33.9796 390.641 33.9796C389.972 33.9796 389.398 33.6927 388.92 33.3101C388.441 32.8318 388.25 32.1622 388.25 31.397C388.25 30.5361 388.537 29.7709 389.111 29.2927C389.493 28.9101 390.067 28.7188 390.641 28.7188C391.885 28.7188 392.65 29.3883 392.841 30.3448H391.693C391.598 29.9622 391.215 29.6753 390.641 29.6753C389.78 29.6753 389.302 30.4405 389.302 31.3014C389.302 32.2579 389.78 32.9274 390.641 32.9274C391.311 32.9274 391.789 32.4492 391.789 31.9709H390.833V31.1101H392.937V33.7883H392.172L392.076 33.2144Z" fill="white"/>
<path d="M393.703 32.1662V28.9141H394.851V32.1662C394.851 32.7401 395.138 33.0271 395.807 33.0271C396.381 33.0271 396.668 32.6445 396.668 32.1662V28.9141H397.816V32.1662C397.816 33.3141 397.147 33.9836 395.807 33.9836C394.468 33.9836 393.703 33.4097 393.703 32.1662Z" fill="white"/>
<path d="M400.019 32.0706L398.297 28.9141H399.54L400.114 29.9662C400.306 30.4445 400.593 31.1141 400.593 31.1141C400.593 31.1141 400.879 30.3488 401.071 29.9662L401.645 28.9141H402.888L401.166 31.9749V33.888H400.019V32.0706Z" fill="white"/>
<path d="M403.266 28.9094H406.996V29.866H404.413V30.8225H406.709V31.6834H404.413V32.8312H407.092V33.7877H403.266V28.9094ZM406.326 28.5268H405.561L405.179 28.0486L404.796 28.5268H403.935L404.7 27.5703H405.561L406.326 28.5268Z" fill="white"/>
<path d="M407.766 28.9141H408.913L410.253 31.1141C410.54 31.5923 410.922 32.4532 410.922 32.4532C410.922 32.4532 410.827 31.5923 410.827 31.0184V29.0097H411.879V33.9836H410.731L409.392 31.8793C409.105 31.401 408.722 30.5401 408.722 30.5401C408.722 30.5401 408.818 31.401 408.818 31.9749V33.9836H407.766V28.9141Z" fill="white"/>
<path d="M413.789 28.9141H414.937L415.702 31.3054C415.893 31.8793 416.085 32.7401 416.085 32.7401C416.085 32.7401 416.276 31.7836 416.467 31.3054L417.233 28.9141H418.38L416.754 33.888H415.511L413.789 28.9141Z" fill="white"/>
<path d="M419.817 28.9113H420.965L422.783 33.8853H421.539L421.252 32.9287H419.435L419.148 33.8853H418L419.817 28.9113ZM419.435 27.4766H420.487L420.87 28.4331H420.2L419.435 27.4766ZM419.722 32.1635H420.965L420.678 31.207C420.487 30.5374 420.391 29.8679 420.391 29.8679C420.391 29.8679 420.2 30.7287 420.009 31.207L419.722 32.1635Z" fill="white"/>
<path d="M424.695 28.9141H426.226L426.895 31.0184C427.087 31.688 427.278 32.8358 427.278 32.8358C427.278 32.8358 427.469 31.688 427.661 31.0184L428.234 28.9141H429.765V33.888H428.713V31.688C428.713 31.0184 428.808 29.8706 428.808 29.8706C428.808 29.8706 428.617 30.9228 428.426 31.4967L427.756 33.888H426.8L426.034 31.4967C425.843 30.9228 425.652 29.8706 425.652 29.8706C425.652 29.8706 425.747 31.0184 425.747 31.688V33.888H424.695V28.9141Z" fill="white"/>
<path d="M430.344 31.4921C430.344 29.9616 431.3 28.9094 432.831 28.9094C434.361 28.9094 435.318 30.0573 435.318 31.4921C435.318 33.0225 434.361 34.0747 432.831 34.0747C431.3 34.0747 430.344 32.9268 430.344 31.4921ZM434.17 31.4921C434.17 30.5355 433.787 29.7703 432.926 29.7703C432.065 29.7703 431.587 30.5355 431.587 31.4921C431.587 32.4486 432.065 33.1181 432.926 33.1181C433.692 33.1181 434.17 32.3529 434.17 31.4921ZM434.074 28.5268H433.213L432.831 28.0486L432.448 28.5268H431.587L432.352 27.5703H433.213L434.074 28.5268Z" fill="white"/>
<path d="M435.984 28.9141H437.132V33.888H435.984V28.9141Z" fill="white"/>
<path d="M439.047 28.9141H443.16V29.8706H441.629V33.888H440.482V29.8706H439.047V28.9141Z" fill="white"/>
<path d="M445.743 32.1643H444.882V33.9817H443.734V29.0078H446.03C446.604 29.0078 447.082 29.1991 447.369 29.4861C447.656 29.773 447.847 30.1556 447.847 30.6339C447.847 31.3035 447.465 31.7817 446.891 32.0687L448.039 34.0774H446.7L445.743 32.1643ZM444.882 31.2078H445.934C446.413 31.2078 446.7 31.0165 446.7 30.5382C446.7 30.1556 446.413 29.8687 445.934 29.8687H444.882V31.2078Z" fill="white"/>
<path d="M448.422 32.162V28.9099H449.57V32.162C449.57 32.7359 449.857 33.0229 450.526 33.0229C451.1 33.0229 451.387 32.6403 451.387 32.162V28.9099H451.483C451.865 28.9099 452.057 28.7185 452.152 28.3359H453.109C453.109 28.8142 452.918 29.1012 452.631 29.2925V32.162C452.631 33.3099 451.961 33.9794 450.622 33.9794C449.091 33.9794 448.422 33.4055 448.422 32.162Z" fill="white"/>
<path d="M453.008 31.494C453.008 29.9635 453.964 28.9113 455.495 28.9113C455.686 28.9113 455.973 28.9113 456.164 29.007C456.451 29.007 456.643 28.8157 456.643 28.4331H457.599C457.599 28.9113 457.312 29.294 457.025 29.4853C457.599 29.9635 457.982 30.7287 457.982 31.5896C457.982 33.12 457.025 34.1722 455.495 34.1722C453.964 34.0766 453.008 32.9287 453.008 31.494ZM456.834 31.494C456.834 30.5374 456.451 29.7722 455.59 29.7722C454.73 29.7722 454.251 30.5374 454.251 31.494C454.251 32.4505 454.73 33.12 455.59 33.12C456.356 33.12 456.834 32.3548 456.834 31.494ZM454.443 27.4766H455.495L455.877 28.4331H455.208L454.443 27.4766Z" fill="white"/>
<path d="M458.656 28.9141H459.804L461.143 31.1141C461.43 31.5923 461.813 32.4532 461.813 32.4532C461.813 32.4532 461.717 31.5923 461.717 31.0184V29.0097H462.769V33.9836H461.621L460.282 31.8793C459.995 31.401 459.613 30.5401 459.613 30.5401C459.613 30.5401 459.708 31.401 459.708 31.9749V33.9836H458.656V28.9141Z" fill="white"/>
<path d="M467.357 33.2144C467.07 33.7883 466.496 33.9796 465.923 33.9796C465.253 33.9796 464.679 33.6927 464.201 33.3101C463.723 32.8318 463.531 32.1622 463.531 31.397C463.531 30.5361 463.818 29.7709 464.392 29.2927C464.775 28.9101 465.349 28.7188 465.923 28.7188C467.166 28.7188 467.931 29.3883 468.123 30.3448H466.975C466.879 29.9622 466.496 29.6753 466.018 29.6753C465.157 29.6753 464.679 30.4405 464.679 31.3014C464.679 32.2579 465.157 32.9274 466.018 32.9274C466.688 32.9274 467.166 32.4492 467.166 31.9709H466.114V31.1101H468.218V33.7883H467.453L467.357 33.2144Z" fill="white"/>
<path d="M299.391 40.0045C299.391 38.5697 300.251 37.4219 301.782 37.4219C302.356 37.4219 302.834 37.6132 303.121 37.9001C303.504 38.1871 303.695 38.5697 303.791 39.048H303.121C303.025 38.4741 302.547 37.9958 301.782 37.9958C300.73 37.9958 300.156 38.8567 300.156 40.0045C300.156 41.1523 300.825 42.0132 301.782 42.0132C302.643 42.0132 303.121 41.4393 303.217 40.6741H303.886C303.886 41.1523 303.599 41.7262 303.312 42.0132C302.93 42.3958 302.451 42.5871 301.782 42.5871C300.251 42.6827 299.391 41.5349 299.391 40.0045Z" fill="white"/>
<path d="M304.359 40.7737C304.359 39.7215 305.029 38.8607 306.081 38.8607C307.133 38.8607 307.803 39.7215 307.803 40.7737C307.803 41.8259 307.133 42.6867 306.081 42.6867C305.029 42.6867 304.359 41.8259 304.359 40.7737ZM307.229 40.7737C307.229 40.0085 306.846 39.3389 306.081 39.3389C305.316 39.3389 304.933 39.9128 304.933 40.7737C304.933 41.6346 305.316 42.2085 306.081 42.2085C306.846 42.2085 307.229 41.5389 307.229 40.7737ZM306.272 38.4781H305.794L306.177 37.6172H306.942L306.272 38.4781Z" fill="white"/>
<path d="M310.683 39.4333C310.97 39.0507 311.353 38.8594 311.831 38.8594C312.596 38.8594 313.075 39.242 313.075 40.0072V42.4942H312.501V40.1029C312.501 39.6246 312.214 39.3376 311.735 39.3376C311.162 39.3376 310.779 39.7202 310.779 40.2942V42.4942H310.109V38.8594H310.683V39.4333Z" fill="white"/>
<path d="M313.734 40.7737C313.734 39.7215 314.404 38.8607 315.456 38.8607C316.508 38.8607 317.178 39.7215 317.178 40.7737C317.178 41.8259 316.508 42.6868 315.456 42.6868C314.404 42.6868 313.734 41.8259 313.734 40.7737ZM316.604 40.7737C316.604 40.0085 316.221 39.3389 315.456 39.3389C314.691 39.3389 314.308 39.9128 314.308 40.7737C314.308 41.6346 314.691 42.2085 315.456 42.2085C316.221 42.2085 316.604 41.5389 316.604 40.7737ZM316.508 38.4781H315.839L315.456 37.9998L315.073 38.4781H314.5L315.265 37.6172H315.839L316.508 38.4781ZM315.169 43.165H315.839V43.8346H315.169V43.165Z" fill="white"/>
<path d="M317.953 37.6172H318.623V38.2868H317.953V37.6172ZM317.953 38.9563H318.623V42.5911H317.953V38.9563Z" fill="white"/>
<path d="M320.719 40.7737C320.719 39.6259 321.388 38.8607 322.249 38.8607C322.727 38.8607 323.206 39.1476 323.397 39.5302C323.397 39.3389 323.397 39.1476 323.397 38.8607V37.6172H324.067V42.5911H323.493V42.1128C323.301 42.4955 322.919 42.7824 322.345 42.7824C321.388 42.6868 320.719 41.9215 320.719 40.7737ZM323.493 40.7737C323.493 40.0085 323.11 39.4346 322.345 39.4346C321.675 39.4346 321.388 40.0085 321.388 40.7737C321.388 41.5389 321.771 42.1128 322.345 42.1128C323.11 42.1128 323.493 41.5389 323.493 40.7737Z" fill="white"/>
<path d="M327.225 42.4942V42.0159C326.938 42.3985 326.651 42.5898 326.173 42.5898C325.408 42.5898 324.93 42.1116 324.93 41.3463V38.8594H325.599V41.3463C325.599 41.8246 325.886 42.1115 326.364 42.1115C326.938 42.1115 327.225 41.7289 327.225 41.155V38.955H327.895V42.5898H327.225V42.4942Z" fill="white"/>
<path d="M329.332 39.4333C329.619 39.0507 330.001 38.8594 330.48 38.8594C331.245 38.8594 331.723 39.242 331.723 40.0072V42.4942H331.149V40.1029C331.149 39.6246 330.862 39.3376 330.384 39.3376C329.81 39.3376 329.427 39.7202 329.427 40.2942V42.4942H328.758V38.8594H329.332V39.4333Z" fill="white"/>
<path d="M332.486 42.7773H333.06C333.156 43.1599 333.443 43.3512 334.017 43.3512C334.686 43.3512 334.973 43.0643 334.973 42.4904V42.3947C334.973 42.2034 334.973 42.0121 334.973 41.9164C334.686 42.299 334.399 42.4904 333.921 42.4904C332.965 42.4904 332.391 41.8208 332.391 40.7686C332.391 39.6208 333.06 39.0469 333.921 39.0469C334.399 39.0469 334.782 39.2382 334.973 39.6208V39.1425H335.547V42.586C335.547 43.0643 335.356 43.4469 335.069 43.6382C334.782 43.8295 334.399 44.0208 333.921 44.0208C333.06 43.8295 332.486 43.4469 332.486 42.7773ZM334.973 40.5773C334.973 39.8121 334.591 39.3338 333.921 39.3338C333.252 39.3338 332.965 39.8121 332.965 40.5773C332.965 41.3425 333.347 41.8208 333.921 41.8208C334.782 41.8208 334.973 41.3425 334.973 40.5773Z" fill="white"/>
<path d="M337.752 38.9525H338.326V37.8047H338.9V38.9525H339.665V39.4308H338.9V41.7264C338.9 42.0134 338.995 42.0134 339.282 42.0134C339.378 42.0134 339.569 42.0134 339.569 42.0134V42.4916C339.378 42.4916 339.187 42.5873 339.091 42.5873C338.613 42.5873 338.23 42.396 338.23 41.8221V39.4308H337.656V38.9525H337.752Z" fill="white"/>
<path d="M340.804 39.6246C341.091 39.242 341.378 38.955 341.856 38.955C341.952 38.955 342.048 38.955 342.048 38.955V39.5289C341.952 39.5289 341.856 39.5289 341.761 39.5289C341.187 39.5289 340.709 39.9116 340.709 40.5811V42.4942H340.039V38.8594H340.613V39.6246H340.804Z" fill="white"/>
<path d="M342.531 41.6333C342.531 40.7724 343.105 40.5811 344.062 40.4855C344.636 40.3898 344.923 40.2942 344.923 40.0072C344.923 39.6246 344.636 39.3376 344.157 39.3376C343.583 39.3376 343.296 39.6246 343.296 40.0072H342.723C342.723 39.4333 343.201 38.8594 344.157 38.8594C344.54 38.8594 344.827 38.955 345.018 39.0507C345.305 39.242 345.496 39.5289 345.496 40.0072V41.7289C345.496 42.0159 345.592 42.2072 345.879 42.1116V42.5898C345.783 42.5898 345.688 42.6855 345.592 42.6855C345.209 42.6855 345.018 42.4942 344.923 42.1116C344.731 42.3985 344.349 42.6855 343.679 42.6855C343.009 42.5898 342.531 42.3029 342.531 41.6333ZM344.923 41.2507V40.6768C344.731 40.7724 344.444 40.8681 344.157 40.9637C343.583 41.0594 343.201 41.155 343.201 41.6333C343.201 42.1116 343.583 42.2072 343.87 42.2072C344.636 42.1115 344.923 41.6333 344.923 41.2507Z" fill="white"/>
<path d="M346.164 40.7724C346.164 39.7202 346.834 38.8594 347.886 38.8594C348.938 38.8594 349.608 39.7202 349.608 40.7724C349.608 41.8246 348.938 42.6855 347.886 42.6855C346.834 42.6855 346.164 41.8246 346.164 40.7724ZM349.034 40.7724C349.034 40.0072 348.651 39.3376 347.886 39.3376C347.121 39.3376 346.738 39.9115 346.738 40.7724C346.738 41.6333 347.121 42.2072 347.886 42.2072C348.651 42.2072 349.034 41.5376 349.034 40.7724Z" fill="white"/>
<path d="M355.443 38.4781H354.965V42.5911H354.391V42.1128C354.2 42.4955 353.817 42.7824 353.243 42.7824C352.287 42.7824 351.617 42.0172 351.617 40.8694C351.617 39.7215 352.287 38.9563 353.148 38.9563C353.626 38.9563 354.104 39.2433 354.295 39.6259C354.295 39.4346 354.295 39.2433 354.295 38.9563V38.5737H353.243V38.0954H354.295V37.6172H354.965V38.0954H355.443V38.4781ZM354.391 40.7737C354.391 40.0085 354.008 39.4346 353.243 39.4346C352.574 39.4346 352.287 40.0085 352.287 40.7737C352.287 41.5389 352.669 42.1128 353.243 42.1128C354.104 42.1128 354.391 41.5389 354.391 40.7737Z" fill="white"/>
<path d="M355.633 40.7712C355.633 39.719 356.302 38.8582 357.355 38.8582C358.407 38.8582 359.076 39.719 359.076 40.7712C359.076 41.8234 358.407 42.6842 357.355 42.6842C356.302 42.6842 355.633 41.8234 355.633 40.7712ZM358.598 40.7712C358.598 40.006 358.215 39.3364 357.45 39.3364C356.685 39.3364 356.302 39.9103 356.302 40.7712C356.302 41.6321 356.685 42.206 357.45 42.206C358.215 42.206 358.598 41.5364 358.598 40.7712ZM358.502 38.4755H357.833L357.45 37.9973L357.068 38.4755H356.494L357.259 37.6147H357.833L358.502 38.4755ZM358.981 37.1364C358.981 37.4234 358.789 37.6147 358.598 37.7103H358.12C358.407 37.519 358.502 37.4234 358.502 37.2321C358.502 37.0408 358.407 37.0408 358.215 37.0408C358.12 37.0408 358.024 37.0408 357.928 37.0408V36.6582C358.024 36.6582 358.12 36.5625 358.311 36.5625C358.789 36.6582 358.981 36.8495 358.981 37.1364Z" fill="white"/>
<path d="M359.844 37.6172H360.513V38.2868H359.844V37.6172ZM359.844 38.9563H360.513V42.5911H359.844V38.9563Z" fill="white"/>
<path d="M361.377 43.257C361.568 43.1613 361.664 43.0657 361.664 42.5874V42.4918H361.281V41.7266H362.046V42.5874C362.046 43.1613 361.76 43.544 361.281 43.544V43.257H361.377Z" fill="white"/>
<path d="M365.011 39.4365C365.298 39.0539 365.681 38.8626 366.159 38.8626C366.924 38.8626 367.403 39.2452 367.403 40.0104V42.4974H366.829V40.106C366.829 39.6278 366.542 39.3408 366.064 39.3408C365.49 39.3408 365.107 39.7234 365.107 40.2973V42.4974H364.438V37.5234H365.107V38.8626C365.011 39.0539 365.011 39.3408 365.011 39.4365Z" fill="white"/>
<path d="M368.07 40.7741C368.07 39.7219 368.74 38.8611 369.792 38.8611C369.983 38.8611 370.175 38.8611 370.366 38.9567C370.653 38.9567 370.844 38.7654 370.844 38.3828H371.418C371.418 38.8611 371.227 39.148 370.94 39.2437C371.322 39.6263 371.609 40.1046 371.609 40.7741C371.609 41.8263 370.94 42.6872 369.888 42.6872C368.74 42.6872 368.07 41.8263 368.07 40.7741ZM370.94 40.7741C370.94 40.0089 370.557 39.3393 369.792 39.3393C369.027 39.3393 368.644 39.9132 368.644 40.7741C368.644 41.635 369.027 42.2089 369.792 42.2089C370.557 42.2089 370.94 41.5393 370.94 40.7741ZM369.505 43.1654H370.175V43.835H369.505V43.1654Z" fill="white"/>
<path d="M372.283 38.955H372.857V39.5289C373.144 39.1463 373.527 38.8594 374.005 38.8594C374.961 38.8594 375.535 39.5289 375.535 40.7724C375.535 41.9202 374.961 42.6855 374.005 42.6855C373.527 42.6855 373.144 42.4942 372.857 42.1116C372.857 42.2072 372.857 42.3985 372.857 42.6855V43.7376H372.188V38.955H372.283ZM374.961 40.7724C374.961 40.0072 374.674 39.4333 374.005 39.4333C373.24 39.4333 372.857 40.0072 372.857 40.7724C372.857 41.5376 373.144 42.1116 374.005 42.1116C374.674 42.1116 374.961 41.5376 374.961 40.7724Z" fill="white"/>
<path d="M377.539 38.9525H378.113V37.8047H378.687V38.9525H379.452V39.4308H378.783V41.7264C378.783 42.0134 378.878 42.0134 379.165 42.0134C379.261 42.0134 379.452 42.0134 379.452 42.0134V42.4916C379.261 42.4916 379.069 42.5873 378.974 42.5873C378.496 42.5873 378.113 42.396 378.113 41.8221V39.4308H377.539V38.9525Z" fill="white"/>
<path d="M379.93 41.6346C379.93 40.7737 380.504 40.5824 381.46 40.4868C382.034 40.3911 382.321 40.2954 382.321 40.0085C382.321 39.6259 382.034 39.3389 381.556 39.3389C380.982 39.3389 380.695 39.6259 380.695 40.0085H380.121C380.121 39.4346 380.599 38.8607 381.556 38.8607C381.938 38.8607 382.225 38.9563 382.417 39.052C382.704 39.2433 382.895 39.5302 382.895 40.0085V41.7302C382.895 42.0172 382.991 42.2085 383.278 42.1128V42.5911C383.182 42.5911 383.086 42.6867 382.895 42.6867C382.512 42.6867 382.321 42.4954 382.225 42.1128C382.034 42.3998 381.651 42.6867 380.982 42.6867C380.504 42.5911 379.93 42.3041 379.93 41.6346ZM382.321 41.252V40.6781C382.13 40.7737 381.843 40.8694 381.556 40.965C380.982 41.0607 380.599 41.1563 380.599 41.6346C380.599 42.1128 380.982 42.2085 381.364 42.2085C382.034 42.1128 382.321 41.6346 382.321 41.252ZM381.747 38.4781H381.269L381.651 37.6172H382.417L381.747 38.4781Z" fill="white"/>
<path d="M383.562 40.7724C383.562 39.7202 384.232 38.8594 385.284 38.8594C386.145 38.8594 386.719 39.3376 386.815 40.1029H386.145C386.049 39.6246 385.763 39.3376 385.189 39.3376C384.423 39.3376 384.041 39.9115 384.041 40.6768C384.041 41.442 384.423 42.1115 385.189 42.1115C385.763 42.1115 386.049 41.8246 386.145 41.2507H386.719C386.623 42.1115 386.049 42.5898 385.189 42.5898C384.328 42.6855 383.562 41.8246 383.562 40.7724Z" fill="white"/>
<path d="M388.633 38.9531H389.302L389.972 40.8662C390.163 41.3444 390.259 42.014 390.259 42.014C390.259 42.014 390.45 41.3444 390.546 40.8662L391.215 38.9531H391.885L390.546 42.5879H389.876L388.633 38.9531Z" fill="white"/>
<path d="M392.078 40.7737C392.078 39.7215 392.748 38.8607 393.8 38.8607C393.991 38.8607 394.182 38.8607 394.374 38.9563C394.661 38.9563 394.852 38.765 394.852 38.3824H395.426C395.426 38.8607 395.235 39.1476 394.948 39.2433C395.33 39.6259 395.617 40.1041 395.617 40.7737C395.617 41.8259 394.948 42.6867 393.896 42.6867C392.748 42.6867 392.078 41.8259 392.078 40.7737ZM394.948 40.7737C394.948 40.0085 394.565 39.3389 393.8 39.3389C393.035 39.3389 392.652 39.9128 392.652 40.7737C392.652 41.6346 393.035 42.2085 393.8 42.2085C394.565 42.2085 394.948 41.5389 394.948 40.7737ZM394.087 38.4781H393.609L393.991 37.6172H394.756L394.087 38.4781Z" fill="white"/>
<path d="M396.281 37.6172H396.951V38.2868H396.281V37.6172ZM396.281 38.9563H396.951V42.5911H396.281V38.9563Z" fill="white"/>
<path d="M397.812 39.7188H398.578V40.484H397.812V39.7188ZM397.812 41.8231H398.578V42.5883H397.812V41.8231Z" fill="white"/>
</svg>
