<?xml version="1.0" encoding="UTF-8"?>
<svg id="Layer_1" xmlns="http://www.w3.org/2000/svg" version="1.1" viewBox="0 0 528 52.9">
  <!-- Generator: Adobe Illustrator 29.0.1, SVG Export Plug-In . SVG Version: 2.1.0 Build 192)  -->
  <defs>
    <style>
      .st0 {
        fill: #fff;
      }
    </style>
  </defs>
  <g>
    <path class="st0" d="M509.8,28.2c0,.4.3.6.7.6.5,0,1-.3,1-1v-.5c-.2.1-.5.2-.9.3-.6.1-.8.3-.8.7Z"/>
    <path class="st0" d="M501.5,0c-14.6,0-26.5,11.9-26.5,26.5s11.9,26.5,26.5,26.5,26.5-11.9,26.5-26.5-11.9-26.5-26.5-26.5ZM484.9,29.9h-2.7l-2.7-8.4h2.5l1.1,3.9c.2.7.4,1.6.4,1.6h0s.2-.9.4-1.6l1.1-3.9h2.5l-2.7,8.4ZM489.9,29.9h-2.2v-6h2.2v6ZM489.9,23.3h-2.2v-1.5h2.2v1.5ZM493.7,28.6c.4,0,.7-.2.8-.4h2.1c-.1.5-.6,1.1-1.1,1.4-.6.4-1.1.5-1.9.5-2,0-3.3-1.3-3.3-3.2s1.3-3.2,3.2-3.2,1.7.3,2.2.8c.7.7,1.1,1.7,1,2.9h-4.3c.1.7.5,1.1,1.2,1.1ZM500.7,25.3h-1.1v2.4c0,.6.4.6,1.1.6v1.6c-.3,0-.7.1-1.1.1-1.5,0-2.2-.4-2.2-1.8v-2.9h-.8v-1.3h.8v-1.9h2.2v1.9h1.1v1.3ZM507.3,29.9h-2.2v-3.3c0-.6-.3-1-.8-1s-.9.5-.9,1.1v3.2h-2.2v-6h2.1v.8h0c.5-.7,1.1-1,1.9-1,1.4,0,2.1.9,2.1,2.3v3.9ZM513.8,29.9h-2.2c0-.1-.2-.3-.2-.7h0c-.4.5-1,.8-1.8.8-1.1,0-2-.6-2-1.8s1-1.7,2.2-1.8c1.3-.1,1.6-.3,1.6-.7s-.2-.6-.6-.6-.7.3-.8.7h-2.1c0-1.2,1-2.2,2.8-2.2s1.5.1,2,.4c.6.4.9,1,.9,1.8v3c0,.5,0,.8.2.9h0ZM521.9,29.9v-3.3c0-.6-.2-1-.8-1s-.8.5-.8,1.1v3.2h-2.2v-3.3c0-.6-.2-1-.8-1s-.8.5-.8,1.1v3.2h-2.2v-6h2.1v.9h0c.4-.7,1-1.1,1.9-1.1s1.4.4,1.7,1h0c.5-.8,1.2-1,2-1,1.5,0,2.1,1,2.1,2.4v3.8h-2.2Z"/>
    <path class="st0" d="M493.5,25.3c-.6,0-.9.4-1.1,1.1h2.1c0-.7-.5-1.1-1-1.1Z"/>
  </g>
  <g>
    <g>
      <path class="st0" d="M192.3,29.9c0-2.7-1.3-4.8-3.4-4.8s-3.4,1.9-3.4,4.8,1.3,4.9,3.4,4.9,3.4-2.1,3.4-4.9M178.5,41.4h7.2c.3.9,1.2,1.8,3,1.8s3.2-1.5,3.2-3.7v-1.6h-.2c-1.2,1.4-2.8,2.4-5.1,2.4-4.6,0-8.6-3.4-8.6-10.1s3.3-10.8,8.2-10.8,4.6,1.1,5.7,3h.1v-2.3h7.1v18.4c0,3.4-1.2,6.1-3,7.6-1.9,1.7-4.5,2.3-7.5,2.3-5.7,0-9.6-2.3-10.3-7.1"/>
      <path class="st0" d="M170.2,23.7h.1c1.5-3,3.6-4.1,6.1-4.1s1,0,1.2.2v6.5h-.2c-4.4-.8-7,1.3-7,6.1v8.9h-7.5v-21.3h7.1v3.6Z"/>
      <path class="st0" d="M13.2,23.2c1.6,0,2.7-.9,2.7-2.6s-1.2-2.5-2.8-2.5h-5v5.1h5.1ZM13.9,34.8c1.8,0,3.1-1.1,3.1-3s-1.4-3-3.1-3h-5.8v6.1h5.8ZM0,11.5h14.6c2.8,0,4.9.7,6.4,1.9,1.7,1.4,2.6,3.4,2.6,5.9s-1.1,4.6-3.5,5.7h0c3.1,1.1,4.9,3.9,4.9,7.3s-1.2,5.7-3.2,7.2c-1.7,1.2-3.9,1.8-6.8,1.8H0V11.5Z"/>
      <rect class="st0" x="26.4" y="11.5" width="7.7" height="29.8"/>
      <path class="st0" d="M50,30.8c0-3.7-1.2-6.1-3.5-6.1s-3.4,2.3-3.4,6.1,1.1,6.1,3.4,6.1,3.5-2.3,3.5-6.1M35.5,30.8c0-6.7,4.4-11.3,11.1-11.3s11,4.6,11,11.3-4.3,11.3-11,11.3-11.1-4.5-11.1-11.3"/>
      <path class="st0" d="M72.9,30.8c0-3.7-1.2-6.1-3.5-6.1s-3.4,2.3-3.4,6.1,1.1,6.1,3.4,6.1,3.5-2.3,3.5-6.1M58.5,30.8c0-6.7,4.4-11.3,11.1-11.3s11,4.6,11,11.3-4.3,11.3-11,11.3-11.1-4.5-11.1-11.3"/>
      <path class="st0" d="M82,20.1h7.1v3.2h.1c1.4-2.5,3.4-3.8,6.4-3.8s4.7,1.3,5.7,3.7h.1c1.7-2.8,4-3.7,6.6-3.7,4.9,0,7.1,3.6,7.1,8.5v13.4h-7.5v-12c0-2.2-.7-3.6-2.6-3.6s-2.8,1.7-2.8,4v11.6h-7.5v-12c0-2.2-.7-3.6-2.6-3.6s-2.8,1.7-2.8,4v11.6h-7.5v-21.3Z"/>
      <path class="st0" d="M131.6,30.6c0-3.4-1.3-5.7-3.5-5.7s-3.8,2.2-3.8,5.7,1.5,5.7,3.8,5.7,3.5-2.2,3.5-5.7M124.4,38.6h0v2.8h-7.1V11.5h7.5v10.8h.1c1.4-1.9,3.3-2.8,6.1-2.8,5.3,0,8.4,4.8,8.4,11.2s-3.4,11.4-8.9,11.4-4.7-1.1-6-3.5"/>
      <path class="st0" d="M147.6,28.5h6.8c-.1-2.6-1.5-3.9-3.3-3.9s-3.2,1.5-3.5,3.9M140.2,30.7c0-6.6,4.4-11.3,10.8-11.3s5.6,1,7.5,2.8c2.5,2.4,3.6,6.1,3.5,10.5h-14.3c.3,2.7,1.6,4,3.8,4s2.5-.6,2.9-2h7.2c-1.3,4.9-5,7.3-10.4,7.3s-11-4.5-11-11.3"/>
    </g>
    <g>
      <polygon class="st0" points="446.1 11.5 446.1 41.4 453.5 41.4 453.5 35.4 455 33.6 459 41.4 467.5 41.4 460 28 466.7 20.1 458.5 20.1 453.5 26.6 453.5 11.5 446.1 11.5"/>
      <path class="st0" d="M219.5,23.2c1.6,0,2.7-.9,2.7-2.6s-1.2-2.5-2.8-2.5h-5v5.1h5.1ZM220.2,34.8c1.8,0,3.1-1.1,3.1-3s-1.4-3-3.1-3h-5.8v6.1h5.8ZM206.3,11.5h14.6c2.8,0,4.9.7,6.4,1.9,1.7,1.4,2.6,3.4,2.6,5.9s-1.1,4.6-3.5,5.7h0c3.1,1.1,4.9,3.9,4.9,7.3s-1.2,5.7-3.2,7.2c-1.7,1.2-3.9,1.8-6.8,1.8h-14.9V11.5Z"/>
      <path class="st0" d="M246.1,41.4v-2.8h-.1c-1.5,2.2-3.5,3.4-6.3,3.4-4.8,0-7.2-3.3-7.2-8.2v-13.7h7.5v12.1c0,2.4.9,3.4,2.7,3.4s3.1-1.3,3.1-3.8v-11.7h7.5v21.3h-7.1Z"/>
      <path class="st0" d="M254.4,34.7h6.9c.1,1.7,1.1,2.8,3,2.8s2.6-.4,2.6-1.9-2.3-1.9-4.9-2.3c-3.4-.5-7.3-1.6-7.3-7s4.2-6.8,9.2-6.8,9.3,2.4,9.6,6.6h-7c-.2-1.6-1.3-2-2.5-2s-2.1.4-2.1,1.7,1.9,1.5,4.2,1.8c3.7.6,8.3,1.4,8.3,7.3s-4.4,7.3-9.9,7.3-9.9-2.6-9.9-7.4"/>
      <path class="st0" d="M275.5,18.4h7.5v-6h-7.5v6ZM275.5,41.4h7.5v-21.3h-7.5v21.3Z"/>
      <path class="st0" d="M292.2,23h.1c1.6-2.3,3.7-3.6,6.5-3.6,4.7,0,7.1,3.3,7.1,8.2v13.8h-7.5v-12c0-2.4-.9-3.7-2.8-3.7s-3,1.6-3,4v11.7h-7.5v-21.3h7.1v2.9Z"/>
      <path class="st0" d="M314.7,28.5h6.8c-.1-2.6-1.5-3.9-3.3-3.9s-3.2,1.5-3.5,3.9M307.2,30.7c0-6.6,4.4-11.3,10.8-11.3s5.6,1,7.5,2.8c2.5,2.4,3.6,6.1,3.5,10.5h-14.3c.3,2.7,1.6,4,3.8,4s2.5-.6,2.9-2h7.2c-1.3,4.9-5,7.3-10.4,7.3s-11-4.5-11-11.3"/>
      <path class="st0" d="M329.7,34.7h6.9c.1,1.7,1.1,2.8,3,2.8s2.6-.4,2.6-1.9-2.3-1.9-4.9-2.3c-3.4-.5-7.3-1.6-7.3-7s4.2-6.8,9.2-6.8,9.3,2.4,9.6,6.6h-7c-.2-1.6-1.3-2-2.5-2s-2.1.4-2.1,1.7,1.9,1.5,4.2,1.8c3.7.6,8.3,1.4,8.3,7.3s-4.4,7.3-9.9,7.3-9.9-2.6-9.9-7.4"/>
      <path class="st0" d="M350.4,34.7h6.9c.1,1.7,1.1,2.8,3,2.8s2.6-.4,2.6-1.9-2.3-1.9-4.9-2.3c-3.4-.5-7.3-1.6-7.3-7s4.2-6.8,9.2-6.8,9.3,2.4,9.6,6.6h-7c-.2-1.6-1.3-2-2.5-2s-2.1.4-2.1,1.7,1.9,1.5,4.2,1.8c3.7.6,8.3,1.4,8.3,7.3s-4.4,7.3-9.9,7.3-9.9-2.6-9.9-7.4"/>
      <polygon class="st0" points="394.4 20.1 391.5 31.8 391.4 31.8 388.7 20.1 382.2 20.1 379.5 31.7 379.4 31.7 376.5 20.1 368.9 20.1 375.3 41.4 382.4 41.4 385.3 29 385.4 29 388.3 41.4 395.5 41.4 401.9 20.1 394.4 20.1"/>
      <path class="st0" d="M408.1,28.5h6.8c-.1-2.6-1.5-3.9-3.3-3.9s-3.2,1.5-3.5,3.9M400.6,30.7c0-6.6,4.4-11.3,10.8-11.3s5.6,1,7.5,2.8c2.5,2.4,3.6,6.1,3.5,10.5h-14.3c.3,2.7,1.6,4,3.8,4s2.5-.6,2.9-2h7.2c-1.3,4.9-5,7.3-10.4,7.3s-11-4.5-11-11.3"/>
      <path class="st0" d="M430.7,28.5h6.8c-.1-2.6-1.5-3.9-3.3-3.9s-3.2,1.5-3.5,3.9M423.2,30.7c0-6.6,4.4-11.3,10.8-11.3s5.6,1,7.5,2.8c2.5,2.4,3.6,6.1,3.5,10.5h-14.3c.3,2.7,1.6,4,3.8,4s2.5-.6,2.9-2h7.2c-1.3,4.9-5,7.3-10.4,7.3s-11-4.5-11-11.3"/>
    </g>
  </g>
</svg>