<?xml version="1.0" encoding="utf-8"?>
<!-- Generator: Adobe Illustrator 26.2.1, SVG Export Plug-In . SVG Version: 6.00 Build 0)  -->
<svg version="1.1" id="Layer_1" xmlns="http://www.w3.org/2000/svg" xmlns:xlink="http://www.w3.org/1999/xlink" x="0px" y="0px"
	 viewBox="0 0 313.2 48" style="enable-background:new 0 0 313.2 48;" xml:space="preserve">
<style type="text/css">
	.st0{fill:#B79559;}
	.st1{fill:#231F20;}
</style>
<g>
	<g>
		<path class="st0" d="M8.5,9.3h10.7c6.1,0,8.9,3.4,8.9,7.7c0,2.7-1.4,4.6-3.6,5.7c3.6,1,5.8,3.7,5.8,7.7c0,5.1-3.2,9.1-10.2,9.1
			H8.5V9.3z M18.9,21.2c3.3,0,4.4-1.5,4.4-4c0-2.3-1.1-3.8-4.4-3.8h-5.7v7.8H18.9z M19.7,35.5c4.2,0,5.6-2.1,5.6-5.2
			c0-3.1-1.7-5.3-5.8-5.3h-6.3v10.5H19.7z"/>
		<path class="st0" d="M34,9.3h19.3v4.2H38.8v12.5h12.9v4.1H38.8v5.1h15.1v4.2H34V9.3z"/>
		<path class="st0" d="M61.9,39.6h-4.8L70.3,8.7h0.3l13.3,30.9h-5l-1.7-4.2H63.6L61.9,39.6z M70.4,19.1l-5,12h10L70.4,19.1z"/>
		<path class="st0" d="M84.4,24.4c0-8.9,6.8-15.5,15.4-15.5c5.6,0,9.5,2.2,12.1,5.9l-3.6,2.6c-2-2.7-4.6-4.1-8.6-4.1
			c-6,0-10.4,4.8-10.4,11.2c0,6.5,4.5,11.2,10.5,11.2c3.9,0,6.8-1.5,9.1-4.4l3.7,2.5c-3.1,4.1-7.1,6.2-13,6.2
			C91.1,40,84.4,33.4,84.4,24.4z"/>
		<path class="st0" d="M115.7,24.4c0-8.9,6.9-15.5,15.6-15.5c8.7,0,15.6,6.6,15.6,15.5c0,9-6.9,15.5-15.6,15.5
			C122.6,40,115.7,33.4,115.7,24.4z M142,24.4c0-6.4-4.4-11.2-10.7-11.2c-6.3,0-10.7,4.8-10.7,11.2c0,6.4,4.4,11.2,10.7,11.2
			C137.6,35.6,142,30.8,142,24.4z"/>
		<path class="st0" d="M156,19.7v19.9h-4.5V8.8h0.4l19.4,20.3V9.3h4.4V40h-0.4L156,19.7z"/>
	</g>
	<path class="st1" d="M183.9,8.8h0.2l13.7,17.9l13.7-17.9h0.2v30.6h-1.3V12.5l-12.5,16.3h-0.1l-12.4-16.3v26.9h-1.3V8.8z"/>
	<path class="st1" d="M219.5,9.4h17.3v1.2h-15.9v17.1h14.2V29h-14.2v9.2h16.5v1.2h-17.9V9.4z"/>
	<path class="st1" d="M244.1,9.4h6.7c10.1,0,15.9,6.1,15.9,15c0,8.9-5.8,15-15.9,15h-6.7V9.4z M250.5,38.1c9.7,0,14.6-5.6,14.6-13.7
		c0-8.1-4.9-13.7-14.6-13.7h-5.1v27.4H250.5z"/>
	<path class="st1" d="M273.3,9.4h1.4v30h-1.4V9.4z"/>
	<path class="st1" d="M282.4,39.4H281l12.2-30.7h0.2l12.2,30.7h-1.5l-2.4-6h-17L282.4,39.4z M293.3,11.9l-8,20.2h16L293.3,11.9z"/>
</g>
</svg>
