<svg width="480" height="73" viewBox="0 0 480 73" fill="none" xmlns="http://www.w3.org/2000/svg">
<g clip-path="url(#clip0_3_9260)">
<path d="M222.429 21.2547C222.429 18.1914 220.964 15.7252 218.448 15.7252C216.023 15.7252 214.464 17.9204 214.464 21.2547C214.464 24.5475 216.023 26.9224 218.448 26.9224C220.967 26.9224 222.429 24.5005 222.429 21.2547ZM206.5 34.5254H214.83C215.151 35.576 216.25 36.6293 218.309 36.6293C221.1 36.6293 222.063 34.8931 222.063 32.3302V30.5027H221.881C220.496 32.1035 218.675 33.2923 215.976 33.2923C210.666 33.2923 206.043 29.3581 206.043 21.6805C206.043 14.6415 209.844 9.15625 215.566 9.15625C218.863 9.15625 220.876 10.4806 222.21 12.5845H222.346V9.8889H230.582V31.1911C230.582 35.1226 229.197 38.1859 227.149 40.0161C224.998 41.9348 221.93 42.7117 218.451 42.7117C211.904 42.7117 207.325 40.0106 206.5 34.5254Z" fill="white"/>
<path d="M196.835 14.0769H196.97C198.756 10.6486 201.09 9.37682 204.066 9.37682C204.549 9.34829 205.033 9.42665 205.483 9.60629V17.1485H205.3C200.22 16.2333 197.244 18.658 197.244 24.1875V34.4722H188.602V9.8717H196.835V14.0769Z" fill="white"/>
<path d="M15.2317 13.4836C17.0616 13.4836 18.3904 12.48 18.3904 10.4673C18.3904 8.50153 17.0062 7.54218 15.1874 7.54218H9.37393V13.4836H15.2317ZM16.101 26.8317C18.1606 26.8317 19.6694 25.5958 19.6694 23.3122C19.6694 20.9345 18.0222 19.7927 16.0539 19.7927H9.38223V26.8317H16.101ZM0.00585938 0H16.9426C20.1455 0 22.6177 0.77689 24.359 2.19243C26.3245 3.79321 27.3792 6.17087 27.3792 9.00471C27.3792 12.2975 26.0532 14.3517 23.3042 15.6401V15.7755C26.8754 16.9644 28.9323 20.1632 28.9323 24.0504C28.9323 27.7523 27.5149 30.6332 25.1812 32.3694C23.2129 33.7877 20.6494 34.4734 17.2637 34.4734H0.00585938V0Z" fill="white"/>
<path d="M39.3691 0H30.4883V34.4678H39.3691V0Z" fill="white"/>
<path d="M57.8137 22.2149C57.8137 17.9185 56.4296 15.2201 53.7858 15.2201C51.142 15.2201 49.8492 17.9185 49.8492 22.2149C49.8492 26.5583 51.131 29.2539 53.7858 29.2539C56.4406 29.2539 57.8137 26.5583 57.8137 22.2149ZM41.0625 22.2149C41.0625 14.4432 46.0981 9.1875 53.8772 9.1875C61.6562 9.1875 66.6115 14.4405 66.6115 22.2149C66.6115 30.0308 61.6673 35.2423 53.8772 35.2423C46.087 35.2423 41.0625 30.028 41.0625 22.2149Z" fill="white"/>
<path d="M84.3645 22.2149C84.3645 17.9185 82.9803 15.2201 80.3366 15.2201C77.6928 15.2201 76.4111 17.9185 76.4111 22.2149C76.4111 26.5583 77.6928 29.2539 80.3476 29.2539C83.0025 29.2539 84.3756 26.5583 84.3756 22.2149H84.3645ZM67.6244 22.2149C67.6244 14.4432 72.66 9.1875 80.439 9.1875C88.218 9.1875 93.1734 14.4405 93.1734 22.2149C93.1734 30.0308 88.2291 35.2423 80.439 35.2423C72.6489 35.2423 67.6133 30.028 67.6133 22.2149" fill="white"/>
<path d="M94.8477 9.87199H103.086V13.574H103.222C104.869 10.6931 107.098 9.15039 110.638 9.15039C113.75 9.15039 116.086 10.7042 117.282 13.4025H117.418C119.431 10.1568 122.041 9.15039 125.061 9.15039C130.784 9.15039 133.256 13.3555 133.256 19.0232V34.4753H124.599V20.5659C124.599 18.05 123.821 16.4189 121.626 16.4189C119.475 16.4189 118.376 18.4288 118.376 21.083V34.4781H109.727V20.5659C109.727 18.05 108.95 16.4189 106.752 16.4189C104.598 16.4189 103.501 18.4288 103.501 21.083V34.4781H94.8477V9.87199Z" fill="white"/>
<path d="M152.265 22.0321C152.265 18.0537 150.801 15.4935 148.19 15.4935C145.535 15.4935 143.841 18.0537 143.841 22.0321C143.841 25.9635 145.535 28.5679 148.19 28.5679C150.845 28.5679 152.265 26.0078 152.265 22.0321ZM143.844 31.2663H143.752V34.4651H135.5V0H144.151V12.4413H144.287C145.948 10.2931 148.132 9.15124 151.291 9.15124C157.47 9.15124 161.038 14.7277 161.038 22.1455C161.038 30.5115 157.148 35.3111 150.74 35.3111C149.329 35.329 147.94 34.964 146.721 34.255C145.502 33.546 144.499 32.5197 143.819 31.2856" fill="white"/>
<path d="M170.749 19.563H178.622C178.484 16.5909 176.837 15.0371 174.774 15.0371C172.399 15.0371 171.07 16.7291 170.749 19.563ZM162.145 22.1231C162.145 14.4427 167.225 9.0957 174.603 9.0957C178.265 9.0957 181.103 10.2375 183.254 12.2945C186.091 15.0371 187.373 19.3335 187.279 24.4095H170.749C171.114 27.4728 172.579 29.0266 175.178 29.0266C176.69 29.0266 178.016 28.341 178.567 26.6959H186.897C185.432 32.3166 181.083 35.1532 174.907 35.1532C167.264 35.1532 162.137 29.986 162.137 22.1231" fill="white"/>
<path d="M277.359 36.9316V71.3995H285.872V64.496L287.658 62.439L292.325 71.3995H302.122L293.427 55.9032L301.206 46.8045H291.686L285.872 54.3024V36.9316H277.359Z" fill="white"/>
<path d="M15.2317 50.4175C17.0616 50.4175 18.3904 49.4111 18.3904 47.3984C18.3904 45.4327 17.0062 44.4733 15.1874 44.4733H9.37393V50.4175H15.2317ZM16.1121 63.7573C18.1717 63.7573 19.6805 62.5215 19.6805 60.235C19.6805 57.8574 18.0333 56.7155 16.065 56.7155H9.38223V63.7573H16.1121ZM0.00585938 36.9395H16.9426C20.1455 36.9395 22.6177 37.7163 24.359 39.1346C26.3245 40.7327 27.3792 43.1103 27.3792 45.9442C27.3792 49.237 26.0532 51.2939 23.3042 52.5795V52.6984C26.8754 53.8872 28.9323 57.0888 28.9323 60.9732C28.9323 64.6779 27.5149 67.556 25.1812 69.2923C23.2129 70.7078 20.6494 71.3962 17.2637 71.3962H0.00585938V36.9395Z" fill="white"/>
<path d="M46.0479 71.3989V68.2001H45.9095C44.1239 70.7602 41.8345 72.1758 38.6315 72.1758C33.0478 72.1758 30.2988 68.3356 30.2988 62.6679V46.8066H38.9499V60.7492C38.9499 63.5388 40.0019 64.6364 42.0643 64.6364C44.3066 64.6364 45.6327 63.1268 45.6327 60.293V46.8094H54.2837V71.4016H46.0479V71.3989Z" fill="white"/>
<path d="M55.6641 63.6275H63.6784C63.8141 65.6374 65.0045 66.8263 67.2025 66.8263C68.8967 66.8263 70.1757 66.3231 70.1757 64.6338C70.1757 62.6239 67.4766 62.4856 64.4536 61.9825C60.517 61.388 55.9852 60.1107 55.9852 53.9371C55.9852 48.9081 60.8852 46.0742 66.6046 46.0742C73.6998 46.0742 77.4011 48.8638 77.725 53.6634H69.5778C69.348 51.8359 68.0662 51.3327 66.6489 51.3327C65.3671 51.3327 64.1767 51.8359 64.1767 53.2514C64.1767 54.6338 66.3277 54.9905 68.9826 55.3554C73.2403 55.9968 78.6413 57.0004 78.6413 63.8155C78.6413 69.7126 73.5614 72.2258 67.1527 72.2258C60.2318 72.2258 55.7139 69.2509 55.6641 63.6275Z" fill="white"/>
<path d="M80.0625 44.8376H88.7136V37.9258H80.0625V44.8376ZM80.0625 71.3983H88.7136V46.7923H80.0625V71.3983Z" fill="white"/>
<path d="M99.3887 50.1881H99.5243C101.401 47.4925 103.782 46.0742 107.032 46.0742C112.433 46.0742 115.226 49.8674 115.226 55.4909V71.3991H106.57V57.5036C106.57 54.7582 105.562 53.2514 103.32 53.2514C101.122 53.2514 99.7956 55.0817 99.7956 57.9155V71.3991H91.1445V46.8069H99.3887V50.1881Z" fill="white"/>
<path d="M125.336 56.4938H133.209C133.073 53.5217 131.426 51.9679 129.364 51.9679C126.986 51.9679 125.657 53.6599 125.336 56.4938ZM116.732 59.0567C116.732 51.3763 121.812 46.0293 129.189 46.0293C132.849 46.0293 135.689 47.1711 137.838 49.2281C140.675 51.9707 141.957 56.2671 141.866 61.3403H125.336C125.701 64.4037 127.166 65.9574 129.765 65.9574C131.277 65.9574 132.603 65.2718 133.151 63.624H141.481C140.016 69.2475 135.667 72.0813 129.488 72.0813C121.848 72.0813 116.721 66.9196 116.721 59.0567" fill="white"/>
<path d="M142.727 63.6275H150.735C150.874 65.6374 152.064 66.8263 154.262 66.8263C155.956 66.8263 157.235 66.3231 157.235 64.6338C157.235 62.6239 154.534 62.4856 151.513 61.9825C147.577 61.388 143.045 60.1107 143.045 53.9371C143.045 48.9081 147.945 46.0742 153.664 46.0742C160.76 46.0742 164.461 48.8638 164.787 53.6634H156.64C156.413 51.8359 155.132 51.3327 153.711 51.3327C152.43 51.3327 151.242 51.8359 151.242 53.2514C151.242 54.6338 153.393 54.9905 156.045 55.3554C160.303 55.9968 165.704 57.0004 165.704 63.8155C165.704 69.7126 160.624 72.2258 154.215 72.2258C147.294 72.2258 142.774 69.2509 142.727 63.6275Z" fill="white"/>
<path d="M166.627 63.6275H174.636C174.774 65.6374 175.965 66.8263 178.163 66.8263C179.857 66.8263 181.136 66.3231 181.136 64.6338C181.136 62.6239 178.434 62.4856 175.414 61.9825C171.477 61.388 166.945 60.1107 166.945 53.9371C166.945 48.9081 171.845 46.0742 177.565 46.0742C184.66 46.0742 188.361 48.8638 188.688 53.6634H180.541C180.314 51.8359 179.032 51.3327 177.612 51.3327C176.33 51.3327 175.142 51.8359 175.142 53.2514C175.142 54.6338 177.293 54.9905 179.945 55.3554C184.203 55.9968 189.604 57.0004 189.604 63.8155C189.604 69.7126 184.524 72.2258 178.116 72.2258C171.195 72.2258 166.671 69.2509 166.627 63.6275Z" fill="white"/>
<path d="M217.573 46.8047L214.235 60.3353H214.143L210.982 46.8047H203.477L200.318 60.244H200.224L196.885 46.8047H188.049L195.512 71.3997H203.704L207.048 57.0452H207.137L210.481 71.3997H218.811L226.227 46.8047H217.573Z" fill="white"/>
<path d="M233.376 56.4938H241.246C241.111 53.5217 239.461 51.9679 237.401 51.9679C235.023 51.9679 233.694 53.6599 233.376 56.4938ZM224.764 59.0567C224.764 51.3763 229.844 46.0293 237.221 46.0293C240.881 46.0293 243.721 47.1711 245.87 49.2281C248.707 51.9707 249.989 56.2671 249.898 61.3403H233.376C233.741 64.4037 235.206 65.9574 237.805 65.9574C239.317 65.9574 240.643 65.2718 241.194 63.624H249.524C248.059 69.2475 243.71 72.0813 237.534 72.0813C229.888 72.0813 224.764 66.9196 224.764 59.0567Z" fill="white"/>
<path d="M259.505 56.4938H267.378C267.243 53.5217 265.596 51.9679 263.533 51.9679C261.155 51.9679 259.826 53.6599 259.505 56.4938ZM250.901 59.0567C250.901 51.3763 255.981 46.0293 263.359 46.0293C267.021 46.0293 269.859 47.1711 272.01 49.2281C274.847 51.9707 276.129 56.2671 276.038 61.3403H259.513C259.879 64.4037 261.346 65.9574 263.943 65.9574C265.452 65.9574 266.78 65.2718 267.328 63.624H275.658C274.194 69.2475 269.845 72.0813 263.666 72.0813C256.025 72.0813 250.898 66.9196 250.898 59.0567" fill="white"/>
<path d="M277.359 36.9316V71.3995H285.872V64.496L287.658 62.439L292.325 71.3995H302.122L293.427 55.9032L301.206 46.8045H291.686L285.872 54.3024V36.9316H277.359Z" fill="white"/>
<path d="M15.2317 50.4175C17.0616 50.4175 18.3904 49.4111 18.3904 47.3984C18.3904 45.4327 17.0062 44.4733 15.1874 44.4733H9.37393V50.4175H15.2317ZM16.1121 63.7573C18.1717 63.7573 19.6805 62.5215 19.6805 60.235C19.6805 57.8574 18.0333 56.7155 16.065 56.7155H9.38223V63.7573H16.1121ZM0.00585938 36.9395H16.9426C20.1455 36.9395 22.6177 37.7163 24.359 39.1346C26.3245 40.7327 27.3792 43.1103 27.3792 45.9442C27.3792 49.237 26.0532 51.2939 23.3042 52.5795V52.6984C26.8754 53.8872 28.9323 57.0888 28.9323 60.9732C28.9323 64.6779 27.5149 67.556 25.1812 69.2923C23.2129 70.7078 20.6494 71.3962 17.2637 71.3962H0.00585938V36.9395Z" fill="white"/>
<path d="M46.0479 71.3989V68.2001H45.9095C44.1239 70.7602 41.8345 72.1758 38.6315 72.1758C33.0478 72.1758 30.2988 68.3356 30.2988 62.6679V46.8066H38.9499V60.7492C38.9499 63.5388 40.0019 64.6364 42.0643 64.6364C44.3066 64.6364 45.6327 63.1268 45.6327 60.293V46.8094H54.2837V71.4016H46.0479V71.3989Z" fill="white"/>
<path d="M55.6641 63.6275H63.6784C63.8141 65.6374 65.0045 66.8263 67.2025 66.8263C68.8967 66.8263 70.1757 66.3231 70.1757 64.6338C70.1757 62.6239 67.4766 62.4856 64.4536 61.9825C60.517 61.388 55.9852 60.1107 55.9852 53.9371C55.9852 48.9081 60.8852 46.0742 66.6046 46.0742C73.6998 46.0742 77.4011 48.8638 77.725 53.6634H69.5778C69.348 51.8359 68.0662 51.3327 66.6489 51.3327C65.3671 51.3327 64.1767 51.8359 64.1767 53.2514C64.1767 54.6338 66.3277 54.9905 68.9826 55.3554C73.2403 55.9968 78.6413 57.0004 78.6413 63.8155C78.6413 69.7126 73.5614 72.2258 67.1527 72.2258C60.2318 72.2258 55.7139 69.2509 55.6641 63.6275Z" fill="white"/>
<path d="M80.0625 44.8376H88.7136V37.9258H80.0625V44.8376ZM80.0625 71.3983H88.7136V46.7923H80.0625V71.3983Z" fill="white"/>
<path d="M99.3887 50.1881H99.5243C101.401 47.4925 103.782 46.0742 107.032 46.0742C112.433 46.0742 115.226 49.8674 115.226 55.4909V71.3991H106.57V57.5036C106.57 54.7582 105.562 53.2514 103.32 53.2514C101.122 53.2514 99.7956 55.0817 99.7956 57.9155V71.3991H91.1445V46.8069H99.3887V50.1881Z" fill="white"/>
<path d="M125.336 56.4938H133.209C133.073 53.5217 131.426 51.9679 129.364 51.9679C126.986 51.9679 125.657 53.6599 125.336 56.4938ZM116.732 59.0567C116.732 51.3763 121.812 46.0293 129.189 46.0293C132.849 46.0293 135.689 47.1711 137.838 49.2281C140.675 51.9707 141.957 56.2671 141.866 61.3403H125.336C125.701 64.4037 127.166 65.9574 129.765 65.9574C131.277 65.9574 132.603 65.2718 133.151 63.624H141.481C140.016 69.2475 135.667 72.0813 129.488 72.0813C121.848 72.0813 116.721 66.9196 116.721 59.0567" fill="white"/>
<path d="M142.727 63.6275H150.735C150.874 65.6374 152.064 66.8263 154.262 66.8263C155.956 66.8263 157.235 66.3231 157.235 64.6338C157.235 62.6239 154.534 62.4856 151.513 61.9825C147.577 61.388 143.045 60.1107 143.045 53.9371C143.045 48.9081 147.945 46.0742 153.664 46.0742C160.76 46.0742 164.461 48.8638 164.787 53.6634H156.64C156.413 51.8359 155.132 51.3327 153.711 51.3327C152.43 51.3327 151.242 51.8359 151.242 53.2514C151.242 54.6338 153.393 54.9905 156.045 55.3554C160.303 55.9968 165.704 57.0004 165.704 63.8155C165.704 69.7126 160.624 72.2258 154.215 72.2258C147.294 72.2258 142.774 69.2509 142.727 63.6275Z" fill="white"/>
<path d="M166.627 63.6275H174.636C174.774 65.6374 175.965 66.8263 178.163 66.8263C179.857 66.8263 181.136 66.3231 181.136 64.6338C181.136 62.6239 178.434 62.4856 175.414 61.9825C171.477 61.388 166.945 60.1107 166.945 53.9371C166.945 48.9081 171.845 46.0742 177.565 46.0742C184.66 46.0742 188.361 48.8638 188.688 53.6634H180.541C180.314 51.8359 179.032 51.3327 177.612 51.3327C176.33 51.3327 175.142 51.8359 175.142 53.2514C175.142 54.6338 177.293 54.9905 179.945 55.3554C184.203 55.9968 189.604 57.0004 189.604 63.8155C189.604 69.7126 184.524 72.2258 178.116 72.2258C171.195 72.2258 166.671 69.2509 166.627 63.6275Z" fill="white"/>
<path d="M217.573 46.8047L214.235 60.3353H214.143L210.982 46.8047H203.477L200.318 60.244H200.224L196.885 46.8047H188.049L195.512 71.3997H203.704L207.048 57.0452H207.137L210.481 71.3997H218.811L226.227 46.8047H217.573Z" fill="white"/>
<path d="M233.376 56.4938H241.246C241.111 53.5217 239.461 51.9679 237.401 51.9679C235.023 51.9679 233.694 53.6599 233.376 56.4938ZM224.764 59.0567C224.764 51.3763 229.844 46.0293 237.221 46.0293C240.881 46.0293 243.721 47.1711 245.87 49.2281C248.707 51.9707 249.989 56.2671 249.898 61.3403H233.376C233.741 64.4037 235.206 65.9574 237.805 65.9574C239.317 65.9574 240.643 65.2718 241.194 63.624H249.524C248.059 69.2475 243.71 72.0813 237.534 72.0813C229.888 72.0813 224.764 66.9196 224.764 59.0567Z" fill="white"/>
<path d="M259.505 56.4938H267.378C267.243 53.5217 265.596 51.9679 263.533 51.9679C261.155 51.9679 259.826 53.6599 259.505 56.4938ZM250.901 59.0567C250.901 51.3763 255.981 46.0293 263.359 46.0293C267.021 46.0293 269.859 47.1711 272.01 49.2281C274.847 51.9707 276.129 56.2671 276.038 61.3403H259.513C259.879 64.4037 261.346 65.9574 263.943 65.9574C265.452 65.9574 266.78 65.2718 267.328 63.624H275.658C274.194 69.2475 269.845 72.0813 263.666 72.0813C256.025 72.0813 250.898 66.9196 250.898 59.0567" fill="white"/>
<path d="M304.84 37.3516H314.623L319.083 53.4229C319.913 56.3397 320.675 60.0721 320.675 60.0721H320.766C320.766 60.0721 321.597 56.3397 322.358 53.4229L326.726 37.3516H336.36L325.896 71.5512H315.249L304.84 37.3516Z" fill="white"/>
<path d="M337.598 37.3516H346.196V44.1915H337.598V37.3516ZM337.598 47.158H346.196V71.5512H337.598V47.158Z" fill="white"/>
<path d="M348.244 59.3067C348.244 51.9415 353.294 46.3457 360.619 46.3457C364.259 46.3457 367.033 47.5898 369.173 49.6468C371.994 52.3728 373.325 56.7273 373.223 61.5572H356.663C357.164 64.38 358.62 66.1025 361.211 66.1025C362.711 66.1025 363.805 65.4804 364.442 64.286H372.769C372.268 66.4978 370.632 68.6377 368.356 70.1694C366.219 71.6043 363.896 72.2263 360.94 72.2263C353.341 72.2208 348.244 66.7687 348.244 59.3067ZM356.66 56.7715H364.669C364.303 54.0455 362.85 52.4198 360.793 52.4198C358.434 52.4226 357.122 54.0952 356.66 56.7715Z" fill="white"/>
<path d="M372.674 47.1692H375.67V39.2676H384.088V47.1692H388.501V52.6212H384.088V62.5217C384.088 64.9602 385.727 65.0099 388.41 64.8164V71.4518C387.029 71.8222 385.606 72.0154 384.177 72.0268C378.535 72.0268 375.67 70.3514 375.67 64.5178V52.6101H372.666L372.674 47.1692Z" fill="white"/>
<path d="M398.838 50.5065H398.974C400.84 47.8275 403.204 46.3926 406.448 46.3926C411.816 46.3926 414.593 50.172 414.593 55.7678V71.5516H405.994V57.9685C405.994 55.4332 404.992 53.7606 402.764 53.7606C400.579 53.7606 399.259 55.7705 399.259 58.3998V71.5544H390.646V47.1695H398.835V50.5148L398.838 50.5065Z" fill="white"/>
<path d="M431.186 68.8726H431.095C429.547 71.1203 427.092 72.1736 424.088 72.1736C419.628 72.1736 416.354 69.6384 416.354 64.8554C416.354 59.4504 420.312 57.8717 424.772 57.3464C429.686 56.7714 431.006 56.1493 431.006 54.6204C431.006 53.2823 430.414 52.2759 428.548 52.2759C426.682 52.2759 425.727 53.4233 425.503 55.1927H417.358C417.541 50.3627 421.09 46.3926 428.368 46.3926C431.917 46.3926 434.182 46.8709 435.967 48.0182C438.378 49.5969 439.566 52.0851 439.566 55.3365V67.5344C439.566 69.5914 439.702 70.6917 440.43 71.17V71.5516H431.967C431.64 70.9793 431.369 70.2134 431.186 68.8726ZM431.231 62.7045V60.5507C430.178 61.0751 429.061 61.4608 427.909 61.6981C425.417 62.2732 424.634 63.0362 424.634 64.4628C424.634 66.0885 425.907 66.8073 427.319 66.8073C429.32 66.8184 431.231 65.6212 431.231 62.7045Z" fill="white"/>
<path d="M441.832 47.1682H450.021V50.8038H450.156C451.795 47.981 454.032 46.4023 457.526 46.4023C460.621 46.4023 462.941 47.981 464.123 50.66H464.258C466.26 47.4087 468.854 46.4023 471.858 46.4023C477.544 46.4023 480.002 50.6103 480.002 56.2088V71.5613H471.404V57.8704C471.404 55.3822 470.631 53.7565 468.447 53.7565C466.31 53.7565 465.216 55.7665 465.216 58.3957V71.5503H456.615V57.8704C456.615 55.3822 455.843 53.7565 453.658 53.7565C451.521 53.7565 450.428 55.7665 450.428 58.3957V71.5503H441.832V47.1682Z" fill="white"/>
</g>
<defs>
<clipPath id="clip0_3_9260">
<rect width="480" height="72.2257" fill="white"/>
</clipPath>
</defs>
</svg>
