<svg width="584" height="83" viewBox="0 0 584 83" fill="none" xmlns="http://www.w3.org/2000/svg">
<path d="M24.8506 47.627C26.4433 47.627 27.645 48.1439 28.5811 48.9961C29.8105 50.1278 30.3834 51.9445 30.3555 53.9424H23.1182C23.3417 55.1156 23.9703 55.8279 25.1016 55.8281C25.758 55.8281 26.2332 55.5768 26.5127 55.0742H30.1455C29.9219 55.9821 29.2094 56.876 28.2178 57.5186C27.2818 58.1193 26.2757 58.3711 24.9766 58.3711C21.6654 58.3711 19.4298 56.1074 19.4297 53.0059H19.4434C19.4435 49.9463 21.6513 47.627 24.8506 47.627ZM55.1729 47.6445C56.7235 47.6445 57.7157 47.8405 58.498 48.3154C59.5459 48.9721 60.0635 50.0061 60.0635 51.3613V56.4326C60.0635 57.2847 60.1192 57.7458 60.4404 57.9414V58.0957H56.7383C56.5986 57.8582 56.4862 57.5363 56.4023 56.9775V56.9912H56.3604C55.6897 57.9272 54.614 58.3613 53.3008 58.3613C51.359 58.3613 49.9201 57.313 49.9199 55.3154C49.9199 53.0661 51.6527 52.4088 53.5947 52.1992C55.7458 51.9617 56.3183 51.696 56.3184 51.0674C56.3182 50.5088 56.0531 50.0899 55.2432 50.0898C54.4328 50.0898 54.0138 50.5652 53.916 51.3057H50.3672C50.451 49.2939 52.0016 47.6446 55.1729 47.6445ZM35.7461 47.9648H37.6738V50.2285H35.7461V54.3359C35.7462 55.3417 36.4583 55.37 37.6318 55.2861V58.0527C37.059 58.1924 36.4577 58.29 35.7871 58.29C33.3285 58.29 32.0713 57.5906 32.0713 55.1738V50.2285H30.7578V47.9648H32.0713V44.6816H35.7461V47.9648ZM74.5879 47.6445C77.0747 47.6446 78.1367 49.3914 78.1367 51.7246V58.1094H74.3779V52.4229C74.3779 51.3891 74.0428 50.7188 73.0928 50.7188C72.1428 50.7188 71.6817 51.5568 71.6816 52.6465V58.1094H67.9238V52.4229C67.9238 51.3891 67.5877 50.7188 66.6377 50.7188C65.688 50.719 65.2266 51.5569 65.2266 52.6465V58.1094H61.4688V47.9805L61.4824 47.9658H65.0596V49.4756H65.1152C65.8278 48.302 66.8062 47.6445 68.3291 47.6445C69.684 47.6447 70.6901 48.3014 71.207 49.4189H71.2627C72.1289 48.0639 73.2747 47.6445 74.5879 47.6445ZM45.5439 47.6445C47.8911 47.6445 49.1064 49.2098 49.1064 51.543V58.0957H45.3486V52.4512C45.3486 51.4034 44.9154 50.7051 43.9375 50.7051C42.9595 50.7051 42.4141 51.543 42.4141 52.6328V58.0957H38.6562V47.9658H42.2324V49.3496H42.2891C43.0994 48.2319 44.1329 47.6446 45.5439 47.6445ZM6.61719 50.5625C6.97887 51.7728 7.31356 53.3159 7.31641 53.3291H7.3584C7.3631 53.3091 7.72353 51.77 8.05664 50.5625L9.9707 43.8848H14.1904L9.62109 58.0938H4.96875L0.400391 43.8848H4.67578L6.61719 50.5625ZM18.5234 58.0928H14.7656V47.9639H18.5234V58.0928ZM56.417 53.5264C56.0538 53.708 55.6064 53.8623 54.9639 54.002C53.8743 54.2394 53.5382 54.5606 53.5381 55.1611C53.5382 55.8316 54.0973 56.1396 54.7119 56.1396C55.5921 56.1396 56.4169 55.636 56.417 54.4346V53.5264ZM24.9346 50.1562C23.9008 50.1562 23.3275 50.8544 23.1318 51.958H26.625C26.4713 50.8266 25.8286 50.1563 24.9346 50.1562ZM18.5234 46.7344H14.7656V44.2051H18.5234V46.7344ZM232.814 9.87891C236.377 9.87891 238.542 11.3179 239.981 13.5811H240.121V10.6611H249.021V33.7002C249.021 37.9474 247.54 41.2583 245.318 43.2422C242.999 45.3238 239.688 46.1621 235.93 46.1621C228.86 46.162 223.915 43.2421 223.021 37.3184H232.019C232.368 38.464 233.555 39.5957 235.776 39.5957C238.794 39.5957 239.828 37.7237 239.828 34.9434V32.96H239.633C238.152 34.6923 236.168 35.9775 233.262 35.9775C227.533 35.9775 222.531 31.7299 222.531 23.417C222.531 15.8027 226.639 9.87893 232.814 9.87891ZM329.652 9.87891C337.309 9.87893 341.319 12.8967 341.668 18.0801H332.865C332.614 16.1102 331.231 15.5654 329.708 15.5654C328.325 15.5655 327.04 16.1101 327.04 17.6328C327.04 19.1556 329.359 19.505 332.223 19.9102C336.819 20.6087 342.646 21.6847 342.646 29.0615C342.646 35.4324 337.155 38.1572 330.239 38.1572C322.779 38.1572 317.889 34.9435 317.833 28.8662H326.48C326.634 31.0456 327.92 32.3311 330.281 32.3311C332.111 32.331 333.494 31.7859 333.494 29.9561C333.494 27.7766 330.575 27.6366 327.319 27.0918C323.072 26.4491 318.182 25.0658 318.182 18.3877C318.182 12.9529 323.477 9.87891 329.652 9.87891ZM423.67 9.87891C431.34 9.87891 435.336 12.8967 435.686 18.0801H426.884C426.632 16.1101 425.248 15.5654 423.726 15.5654C422.343 15.5655 421.058 16.1102 421.058 17.6328C421.058 19.1557 423.377 19.505 426.241 19.9102C430.838 20.6087 436.663 21.6849 436.663 29.0615C436.663 35.4324 431.173 38.1572 424.257 38.1572C416.796 38.1572 411.893 34.9435 411.851 28.8662H420.499C420.653 31.0455 421.938 32.331 424.312 32.3311C426.143 32.3311 427.526 31.786 427.526 29.9561C427.526 27.7765 424.606 27.6367 421.351 27.0918C417.103 26.4491 412.199 25.0657 412.199 18.3877C412.199 12.9529 417.495 9.87895 423.67 9.87891ZM449.48 9.87891C457.151 9.87891 461.147 12.8967 461.496 18.0801H452.694C452.443 16.1101 451.059 15.5654 449.536 15.5654C448.153 15.5655 446.868 16.1102 446.868 17.6328C446.868 19.1557 449.188 19.505 452.052 19.9102C456.648 20.6087 462.474 21.6849 462.474 29.0615C462.474 35.4324 456.983 38.1572 450.067 38.1572C442.607 38.1572 437.703 34.9435 437.661 28.8662H446.31C446.463 31.0455 447.748 32.331 450.123 32.3311C451.953 32.3311 453.337 31.786 453.337 29.9561C453.337 27.7765 450.416 27.6367 447.161 27.0918C442.914 26.4491 438.01 25.0656 438.01 18.3877C438.01 12.9529 443.305 9.87896 449.48 9.87891ZM155.686 13.4404H155.839C157.613 11.1212 159.989 9.87793 163.398 9.87793C170.077 9.87822 173.919 15.9136 173.919 23.9189C173.919 32.9584 169.713 38.1553 162.797 38.1553C159.933 38.1552 156.957 36.7724 155.336 33.8105H155.238V37.2754H146.338V0H155.686V13.4404ZM299.766 25.749C299.766 28.7667 300.897 29.9541 303.133 29.9541C305.55 29.9539 306.988 28.3193 306.988 25.2598V10.6738H316.335V37.2617H307.436V33.8105H307.282C305.354 36.5769 302.881 38.1133 299.416 38.1133C293.381 38.1133 290.419 33.9642 290.419 27.8311V10.6738H299.766V25.749ZM58.1904 9.93164C66.6014 9.9318 71.9248 15.618 71.9248 24.0146C71.9248 32.4113 66.5874 38.0975 58.1904 38.0977C49.7933 38.0977 44.3438 32.4673 44.3438 24.0146C44.3438 15.6179 49.7793 9.93164 58.1904 9.93164ZM86.8623 9.93164C95.2733 9.93177 100.61 15.618 100.61 24.0146C100.61 32.4113 95.2733 38.0975 86.8623 38.0977C78.4512 38.0977 73.0156 32.4673 73.0156 24.0146C73.0157 15.6179 78.4512 9.93164 86.8623 9.93164ZM188.546 9.83203C192.5 9.83203 195.573 11.0616 197.893 13.2969C200.952 16.2588 202.336 20.9116 202.238 26.4023H184.396C184.788 29.7132 186.367 31.3895 189.188 31.3896C190.823 31.3896 192.249 30.6494 192.85 28.875H201.847C200.268 34.9524 195.574 38.0263 188.896 38.0264C180.639 38.0264 175.106 32.4377 175.105 23.9434L175.109 23.5283C175.277 15.4371 180.72 9.83214 188.546 9.83203ZM397.225 9.83203C401.178 9.83211 404.238 11.0615 406.571 13.2969C409.631 16.2588 411.014 20.9117 410.916 26.4023H393.075C393.466 29.7133 395.059 31.3896 397.867 31.3896C399.502 31.3896 400.927 30.6493 401.527 28.8613H410.525C408.947 34.9387 404.251 38.0117 397.573 38.0117C389.316 38.0116 383.784 32.4232 383.784 23.9287L383.788 23.5283C383.956 15.437 389.399 9.83203 397.225 9.83203ZM513.891 9.83203C517.844 9.83207 520.904 11.0615 523.237 13.2969C526.297 16.2588 527.68 20.9116 527.582 26.4023H509.741C510.132 29.7133 511.725 31.3896 514.533 31.3896C516.168 31.3896 517.593 30.6493 518.193 28.8613H527.191C525.613 34.9387 520.917 38.0117 514.239 38.0117C505.982 38.0115 500.45 32.4231 500.45 23.9287L500.454 23.5283C500.622 15.437 506.065 9.83203 513.891 9.83203ZM542.115 9.83203C546.069 9.83207 549.143 11.0615 551.462 13.2969C554.522 16.2588 555.904 20.9116 555.807 26.4023H537.966C538.357 29.7133 539.95 31.3896 542.758 31.3896C544.392 31.3896 545.817 30.6493 546.418 28.8613H555.416C553.837 34.9387 549.142 38.0117 542.464 38.0117C534.207 38.0115 528.675 32.4231 528.675 23.9287L528.679 23.5283C528.847 15.437 534.29 9.83203 542.115 9.83203ZM373.298 9.89258C379.138 9.89258 382.142 14.0006 382.142 20.0781V37.2764H372.795V22.2568C372.795 19.2951 371.705 17.6602 369.288 17.6602C366.871 17.6602 365.488 19.6445 365.488 22.7041V37.29H356.142V10.6748H365.041V14.3359H365.194C367.22 11.416 369.791 9.89262 373.298 9.89258ZM220.394 10.1426C221.134 10.1426 221.637 10.2408 221.931 10.3945V18.5537H221.734C216.244 17.5619 213.03 20.1884 213.03 26.168V37.2891H203.684V10.6738H212.584V15.2285H212.737C214.665 11.5261 217.18 10.1426 220.394 10.1426ZM18.2891 0C21.7539 0 24.4227 0.838312 26.2949 2.375C28.4187 4.10744 29.5508 6.67856 29.5508 9.73828C29.5507 13.3008 28.1254 15.5221 25.1494 16.9053V17.0586C29.0057 18.344 31.2275 21.8096 31.2275 26.001C31.2275 30.1921 29.6906 33.112 27.1758 34.998C25.0521 36.5348 22.2855 37.2753 18.625 37.2754H0V0H18.2891ZM42.5117 37.2754H32.9277V0H42.5117V37.2754ZM473.943 25.2041H474.055L477.464 10.6738H485.568L488.978 25.3154H489.075L492.68 10.6738H502.027L494.021 37.2754H485.023L481.418 21.7529H481.32L477.702 37.2754H468.857L460.796 10.6738H470.339L473.943 25.2041ZM566.452 18.791L572.726 10.6738H583.008L574.598 20.5098L584 37.2754H573.41L568.366 27.5791L566.452 29.8008V37.2754H557.245V0H566.452V18.791ZM353.531 37.2734H344.185V10.6719H353.531V37.2734ZM135.059 9.87891C141.234 9.87891 143.903 14.4195 143.903 20.5527V37.2627H134.556V22.2295C134.556 19.5051 133.717 17.7305 131.342 17.7305C128.967 17.7307 127.835 19.9104 127.835 22.7744V37.2627H118.488V22.2295C118.488 19.5051 117.65 17.7305 115.274 17.7305C112.899 17.7305 111.768 19.9103 111.768 22.7744V37.2627H102.42V10.6748H111.32V14.6709H111.474C113.248 11.5554 115.679 9.87903 119.479 9.87891C122.833 9.87891 125.362 11.5556 126.647 14.4756H126.801C128.98 10.9688 131.789 9.87893 135.059 9.87891ZM275.999 0C279.464 0 282.133 0.838235 284.005 2.375C286.129 4.10744 287.261 6.67856 287.261 9.73828C287.261 13.3008 285.835 15.5221 282.859 16.9053V17.0449C286.716 18.3303 288.937 21.7951 288.938 25.9863C288.938 30.1776 287.401 33.1122 284.886 34.9844C282.762 36.5212 279.995 37.2617 276.334 37.2617H257.695V0H275.999ZM58.0918 16.4561C55.2279 16.4564 53.8447 19.3765 53.8447 24.0146C53.8447 28.6529 55.2279 31.6286 58.0918 31.6289C60.9561 31.6289 62.4375 28.709 62.4375 24.0146C62.4375 19.3622 60.956 16.4561 58.0918 16.4561ZM86.7646 16.4561C83.9004 16.4561 82.5166 19.3762 82.5166 24.0146C82.5166 28.6531 83.9004 31.6289 86.7646 31.6289C89.6286 31.6286 91.1094 28.7088 91.1094 24.0146C91.1094 19.3625 89.6286 16.4564 86.7646 16.4561ZM160.03 16.752C157.208 16.7522 155.336 19.5183 155.336 23.8213C155.336 28.1241 157.166 30.8903 160.03 30.8906C162.894 30.8906 164.432 28.1243 164.432 23.8213C164.432 19.5181 162.853 16.752 160.03 16.752ZM235.916 17.0039C233.192 17.004 231.613 19.3798 231.613 22.9844C231.613 26.5887 233.29 29.1171 235.916 29.1172C238.543 29.1172 240.22 26.491 240.22 22.9844C240.22 19.6732 238.64 17.0039 235.916 17.0039ZM267.84 29.0322H275.104V29.0186C277.326 29.0186 278.961 27.6767 278.961 25.2178C278.961 22.7591 277.186 21.418 275.062 21.418H267.84V29.0322ZM10.1299 29.0186H17.3955C19.6169 29.0184 21.251 27.6766 21.251 25.2178C21.2508 22.7591 19.4765 21.4043 17.3389 21.4043H10.1299V29.0186ZM188.756 16.2588C186.185 16.2588 184.759 18.0889 184.41 21.1484H192.905C192.751 17.9353 190.977 16.2589 188.756 16.2588ZM397.42 16.2588C394.849 16.2588 393.411 18.089 393.075 21.1484H401.569C401.416 17.9353 399.641 16.2588 397.42 16.2588ZM514.086 16.2588C511.515 16.2588 510.091 18.089 509.741 21.1484H518.235C518.082 17.9353 516.307 16.2588 514.086 16.2588ZM542.324 16.2588C539.754 16.259 538.315 18.0891 537.979 21.1484H546.474C546.334 17.9353 544.546 16.2588 542.324 16.2588ZM10.1299 14.5996H16.459V14.5859C18.4289 14.5859 19.868 13.4964 19.8682 11.3311C19.8682 9.16557 18.3873 8.17291 16.4033 8.17285H10.1299V14.5996ZM267.84 14.5859H274.169C276.139 14.5859 277.578 13.4959 277.578 11.3164C277.578 9.13729 276.097 8.15932 274.113 8.15918H267.84V14.5859ZM353.531 8.54883H344.185V1.08789H353.531V8.54883Z" fill="white"/>
<path d="M140.248 81.0199C140.463 81.0199 140.647 81.0942 140.799 81.2426C140.955 81.3911 141.033 81.5695 141.033 81.778C141.033 81.9865 140.955 82.165 140.799 82.3134C140.647 82.4618 140.463 82.5362 140.248 82.5362C140.033 82.5361 139.847 82.4619 139.691 82.3134C139.538 82.165 139.462 81.9864 139.462 81.778C139.462 81.5696 139.538 81.391 139.691 81.2426C139.847 81.0942 140.033 81.0199 140.248 81.0199Z" fill="#6E6E6E"/>
<path d="M236 81.0199C236.215 81.0199 236.399 81.0941 236.552 81.2426C236.708 81.3911 236.786 81.5695 236.786 81.778C236.786 81.9865 236.708 82.165 236.552 82.3134C236.399 82.4619 236.215 82.5362 236 82.5362C235.785 82.5361 235.599 82.4619 235.444 82.3134C235.291 82.165 235.214 81.9865 235.214 81.778C235.214 81.5695 235.291 81.391 235.444 81.2426C235.599 81.0941 235.785 81.0199 236 81.0199Z" fill="#6E6E6E"/>
<path d="M176.466 69.8374C176.466 70.4565 176.374 70.9778 176.19 71.401C176.01 71.8211 175.717 72.1402 175.311 72.3582C175.039 72.5037 174.707 72.5985 174.315 72.6455V76.8501C174.315 77.5135 174.161 78.1058 173.852 78.627C173.547 79.145 173.115 79.5542 172.557 79.8542C171.999 80.1511 171.344 80.2997 170.593 80.2997C169.842 80.2996 169.187 80.1512 168.629 79.8542C168.071 79.5542 167.638 79.145 167.329 78.627C167.024 78.1058 166.871 77.5135 166.871 76.8501V70.4249H168.03V76.7554C168.03 77.2292 168.133 77.6509 168.339 78.0205C168.545 78.3869 168.838 78.676 169.218 78.8876C169.602 79.0961 170.06 79.2003 170.593 79.2004C171.126 79.2004 171.584 79.0961 171.968 78.8876C172.351 78.676 172.644 78.3869 172.847 78.0205C173.053 77.6509 173.156 77.2292 173.156 76.7554V70.4249H174.315V71.6925C174.477 71.6562 174.616 71.6038 174.731 71.5337C174.975 71.3884 175.143 71.1736 175.236 70.8893C175.333 70.605 175.381 70.2544 175.381 69.8374H176.466Z" fill="#6E6E6E"/>
<path d="M39.498 70.2923C40.0029 70.2923 40.4738 70.3697 40.9102 70.5244C41.3497 70.6761 41.741 70.8925 42.0839 71.1736C42.4299 71.4516 42.7183 71.7849 42.949 72.1734C43.1797 72.5588 43.3387 72.9868 43.426 73.4575H42.2289C42.126 73.1385 41.9904 72.8525 41.822 72.5998C41.6568 72.344 41.4588 72.126 41.2282 71.946C41.0006 71.7659 40.7418 71.6285 40.4519 71.5337C40.162 71.439 39.8439 71.3916 39.498 71.3916C38.9307 71.3916 38.4146 71.5401 37.9502 71.837C37.4857 72.1339 37.1162 72.5715 36.8419 73.1495C36.5676 73.7276 36.4304 74.4368 36.4304 75.277C36.4304 76.1172 36.5691 76.8265 36.8466 77.4045C37.124 77.9825 37.4998 78.4201 37.9735 78.717C38.4473 79.0139 38.9806 79.1624 39.5728 79.1625C40.1214 79.1625 40.6047 79.0439 41.0224 78.8071C41.4432 78.567 41.7706 78.229 42.0044 77.7931C42.2312 77.3728 42.3483 76.8816 42.358 76.3194H39.8347V75.277H43.4821V76.3194C43.4821 77.1186 43.3137 77.8136 42.9771 78.4043C42.6435 78.995 42.1821 79.4531 41.5929 79.7784C41.0069 80.1006 40.3334 80.2617 39.5728 80.2617C38.7249 80.2617 37.9797 80.0595 37.3376 79.6552C36.6986 79.2509 36.1997 78.6759 35.8412 77.9305C35.4858 77.185 35.3081 76.3005 35.3081 75.277C35.3081 74.5094 35.4094 73.8192 35.6121 73.2064C35.8178 72.5904 36.1078 72.066 36.4818 71.6332C36.8559 71.2005 37.2987 70.8688 37.8099 70.6382C38.3211 70.4076 38.8839 70.2923 39.498 70.2923Z" fill="#6E6E6E"/>
<path fill-rule="evenodd" clip-rule="evenodd" d="M70.6945 70.2923C71.5113 70.2923 72.2377 70.4945 72.8737 70.8988C73.5096 71.3031 74.01 71.8781 74.3747 72.6235C74.7394 73.369 74.9218 74.2535 74.9218 75.277C74.9218 76.3005 74.7394 77.185 74.3747 77.9305C74.01 78.676 73.5096 79.2509 72.8737 79.6552C72.2377 80.0595 71.5113 80.2617 70.6945 80.2617C69.8778 80.2617 69.1514 80.0596 68.5154 79.6552C67.8795 79.2509 67.3791 78.6759 67.0144 77.9305C66.6497 77.185 66.4673 76.3005 66.4673 75.277C66.4673 74.2536 66.6497 73.369 67.0144 72.6235C67.3791 71.8781 67.8795 71.3031 68.5154 70.8988C69.1514 70.4945 69.8778 70.2923 70.6945 70.2923ZM70.6945 71.3916C70.1148 71.3916 69.5894 71.5401 69.1187 71.837C68.6511 72.1339 68.2785 72.5715 68.0011 73.1495C67.7268 73.7276 67.5896 74.4368 67.5896 75.277C67.5896 76.1172 67.7268 76.8265 68.0011 77.4045C68.2785 77.9826 68.6511 78.4201 69.1187 78.717C69.5894 79.014 70.1148 79.1624 70.6945 79.1625C71.2744 79.1625 71.7982 79.0139 72.2657 78.717C72.7365 78.4201 73.109 77.9826 73.3834 77.4045C73.6608 76.8264 73.7995 76.1173 73.7995 75.277C73.7995 74.4367 73.6608 73.7276 73.3834 73.1495C73.109 72.5714 72.7365 72.1339 72.2657 71.837C71.7982 71.5401 71.2744 71.3916 70.6945 71.3916Z" fill="#6E6E6E"/>
<path d="M90.3392 70.2923C90.8442 70.2923 91.315 70.3697 91.7514 70.5244C92.1909 70.6761 92.5823 70.8925 92.9251 71.1736C93.2711 71.4516 93.5596 71.7849 93.7902 72.1734C94.0209 72.5588 94.1799 72.9868 94.2672 73.4575H93.0701C92.9672 73.1385 92.8316 72.8525 92.6633 72.5998C92.4981 72.344 92.3 72.126 92.0694 71.946C91.8419 71.7659 91.583 71.6285 91.2931 71.5337C91.0033 71.439 90.6852 71.3916 90.3392 71.3916C89.7719 71.3916 89.2559 71.5401 88.7914 71.837C88.3269 72.1339 87.9575 72.5715 87.6831 73.1495C87.4088 73.7276 87.2716 74.4367 87.2716 75.277C87.2716 76.1173 87.4104 76.8264 87.6878 77.4045C87.9653 77.9826 88.3409 78.4201 88.8148 78.717C89.2886 79.0139 89.8218 79.1625 90.414 79.1625C90.9626 79.1624 91.4459 79.044 91.8636 78.8071C92.2844 78.567 92.6119 78.2289 92.8456 77.7931C93.0724 77.3728 93.1896 76.8815 93.1993 76.3194H90.6759V75.277H94.3233V76.3194C94.3233 77.1186 94.1549 77.8136 93.8183 78.4043C93.4847 78.995 93.0233 79.4531 92.4341 79.7784C91.8481 80.1006 91.1746 80.2617 90.414 80.2617C89.5661 80.2617 88.821 80.0595 88.1788 79.6552C87.5397 79.2509 87.0409 78.6759 86.6824 77.9305C86.327 77.185 86.1493 76.3005 86.1493 75.277C86.1493 74.5094 86.2507 73.8192 86.4533 73.2064C86.659 72.5904 86.949 72.066 87.3231 71.6332C87.6971 71.2005 88.1399 70.8688 88.6511 70.6382C89.1623 70.4076 89.7251 70.2923 90.3392 70.2923Z" fill="#6E6E6E"/>
<path fill-rule="evenodd" clip-rule="evenodd" d="M193.476 70.2923C194.293 70.2923 195.019 70.4945 195.655 70.8988C196.291 71.3031 196.791 71.8781 197.156 72.6235C197.521 73.369 197.703 74.2535 197.703 75.277C197.703 76.3005 197.521 77.185 197.156 77.9305C196.791 78.6759 196.291 79.2509 195.655 79.6552C195.019 80.0595 194.293 80.2617 193.476 80.2617C192.659 80.2617 191.933 80.0595 191.297 79.6552C190.661 79.2509 190.16 78.6759 189.796 77.9305C189.431 77.185 189.249 76.3004 189.249 75.277C189.249 74.2536 189.431 73.369 189.796 72.6235C190.16 71.8781 190.661 71.3031 191.297 70.8988C191.933 70.4945 192.659 70.2923 193.476 70.2923ZM193.476 71.3916C192.896 71.3916 192.371 71.5401 191.9 71.837C191.433 72.1339 191.06 72.5715 190.782 73.1495C190.508 73.7275 190.371 74.4368 190.371 75.277C190.371 76.1172 190.508 76.8265 190.782 77.4045C191.06 77.9825 191.433 78.4201 191.9 78.717C192.371 79.0139 192.896 79.1624 193.476 79.1625C194.056 79.1625 194.58 79.0139 195.047 78.717C195.518 78.4201 195.89 77.9825 196.165 77.4045C196.442 76.8264 196.581 76.1173 196.581 75.277C196.581 74.4367 196.442 73.7276 196.165 73.1495C195.89 72.5715 195.518 72.1339 195.047 71.837C194.58 71.5401 194.056 71.3916 193.476 71.3916Z" fill="#6E6E6E"/>
<path d="M213.121 70.2923C213.626 70.2923 214.096 70.3697 214.533 70.5244C214.972 70.6761 215.364 70.8925 215.707 71.1736C216.053 71.4516 216.341 71.7849 216.572 72.1734C216.802 72.5588 216.961 72.9868 217.049 73.4575H215.851C215.749 73.1384 215.613 72.8525 215.445 72.5998C215.279 72.344 215.081 72.126 214.851 71.946C214.623 71.7659 214.364 71.6285 214.075 71.5337C213.785 71.439 213.467 71.3916 213.121 71.3916C212.553 71.3916 212.037 71.54 211.573 71.837C211.108 72.1339 210.739 72.5714 210.465 73.1495C210.19 73.7276 210.053 74.4367 210.053 75.277C210.053 76.1173 210.192 76.8264 210.469 77.4045C210.747 77.9826 211.122 78.4201 211.596 78.717C212.07 79.014 212.603 79.1625 213.195 79.1625C213.744 79.1624 214.227 79.044 214.645 78.8071C215.066 78.567 215.393 78.229 215.627 77.7931C215.854 77.3728 215.971 76.8815 215.981 76.3194H213.457V75.277H217.105V76.3194C217.105 77.1186 216.936 77.8136 216.6 78.4043C216.266 78.995 215.805 79.4531 215.216 79.7784C214.629 80.1006 213.956 80.2617 213.195 80.2617C212.347 80.2617 211.602 80.0596 210.96 79.6552C210.321 79.2509 209.822 78.676 209.464 77.9305C209.108 77.185 208.931 76.3005 208.931 75.277C208.931 74.5094 209.032 73.8192 209.235 73.2064C209.44 72.5904 209.73 72.066 210.104 71.6332C210.479 71.2005 210.921 70.8688 211.432 70.6382C211.944 70.4076 212.506 70.2923 213.121 70.2923Z" fill="#6E6E6E"/>
<path fill-rule="evenodd" clip-rule="evenodd" d="M240.994 69.7237C240.994 70.5766 240.784 71.2352 240.363 71.6996C240.132 71.956 239.838 72.1409 239.481 72.2557C239.551 72.3733 239.618 72.4959 239.68 72.6235C240.045 73.369 240.227 74.2535 240.227 75.277C240.227 76.3005 240.045 77.185 239.68 77.9305C239.315 78.676 238.815 79.2509 238.179 79.6552C237.543 80.0596 236.817 80.2617 236 80.2617C235.183 80.2617 234.457 80.0596 233.821 79.6552C233.185 79.2509 232.685 78.676 232.32 77.9305C231.955 77.185 231.773 76.3005 231.773 75.277C231.773 74.2535 231.955 73.369 232.32 72.6235C232.685 71.878 233.185 71.3031 233.821 70.8988C234.457 70.4944 235.183 70.2923 236 70.2923C236.817 70.2923 237.543 70.4945 238.179 70.8988C238.421 71.0524 238.643 71.2307 238.845 71.4336C239.152 71.3741 239.389 71.2332 239.554 71.0078C239.778 70.7013 239.891 70.2733 239.891 69.7237H240.994ZM236 71.3916C235.42 71.3916 234.895 71.54 234.424 71.837C233.957 72.1339 233.584 72.5714 233.307 73.1495C233.032 73.7276 232.895 74.4368 232.895 75.277C232.895 76.1173 233.032 76.8265 233.307 77.4045C233.584 77.9826 233.957 78.4201 234.424 78.717C234.895 79.014 235.42 79.1624 236 79.1625C236.58 79.1625 237.104 79.014 237.571 78.717C238.042 78.4201 238.414 77.9826 238.689 77.4045C238.966 76.8264 239.105 76.1173 239.105 75.277C239.105 74.4367 238.966 73.7276 238.689 73.1495C238.414 72.5714 238.042 72.1339 237.571 71.837C237.104 71.54 236.58 71.3916 236 71.3916Z" fill="#6E6E6E"/>
<path d="M7.18262 71.4674H4.17116V80.1291H3.01146V71.4674H0V70.4249H7.18262V71.4674Z" fill="#6E6E6E"/>
<path fill-rule="evenodd" clip-rule="evenodd" d="M12.0768 70.4249C12.825 70.4249 13.4392 70.5545 13.9192 70.8135C14.3993 71.0693 14.7547 71.4216 14.9854 71.8701C15.2161 72.3187 15.3315 72.8289 15.3315 73.4006C15.3315 73.9724 15.2161 74.4794 14.9854 74.9216C14.7547 75.3639 14.4009 75.7114 13.9239 75.9641C13.8048 76.0264 13.6773 76.0802 13.5416 76.1269L15.7055 80.1291H14.3588L12.3387 76.3331C12.2593 76.3362 12.1782 76.3384 12.0955 76.3384H10.0006V80.1291H8.84091V70.4249H12.0768ZM10.0006 75.277H12.0581C12.5693 75.277 12.9809 75.2012 13.2926 75.0496C13.6075 74.898 13.8351 74.6831 13.9754 74.4052C14.1188 74.124 14.1905 73.7892 14.1905 73.4006C14.1905 73.0121 14.1188 72.6725 13.9754 72.3819C13.832 72.0913 13.6028 71.867 13.288 71.709C12.9731 71.548 12.5569 71.4674 12.0394 71.4674H10.0006V75.277Z" fill="#6E6E6E"/>
<path fill-rule="evenodd" clip-rule="evenodd" d="M24.5394 80.1291H23.3236L22.3609 77.3808H18.4879L17.5252 80.1291H16.3094L19.8259 70.4249H21.023L24.5394 80.1291ZM18.8532 76.3384H21.9956L20.4618 71.9602H20.387L18.8532 76.3384Z" fill="#6E6E6E"/>
<path d="M32.2592 78.0632H32.3528V70.4249H33.4938V80.1291H32.3715L27.1528 72.5098H27.0593V80.1291H25.8996V70.4249H27.0219L32.2592 78.0632Z" fill="#6E6E6E"/>
<path d="M55.5677 71.4674H52.5562V80.1291H51.3965V71.4674H48.3851V70.4249H55.5677V71.4674Z" fill="#6E6E6E"/>
<path d="M58.3857 74.7463H63.4921V70.4249H64.6518V80.1291H63.4921V75.7887H58.3857V80.1291H57.226V70.4249H58.3857V74.7463Z" fill="#6E6E6E"/>
<path d="M83.0999 78.0632H83.1934V70.4249H84.3344V80.1291H83.2121L77.9935 72.5098H77.9V80.1291H76.7403V70.4249H77.8626L83.0999 78.0632Z" fill="#6E6E6E"/>
<path d="M106.408 71.4674H103.397V80.1291H102.237V71.4674H99.2257V70.4249H106.408V71.4674Z" fill="#6E6E6E"/>
<path d="M109.226 80.1291H108.067V70.4249H109.226V80.1291Z" fill="#6E6E6E"/>
<path d="M117.78 78.0632H117.873V70.4249H119.014V80.1291H117.892L112.673 72.5098H112.58V80.1291H111.42V70.4249H112.542L117.78 78.0632Z" fill="#6E6E6E"/>
<path fill-rule="evenodd" clip-rule="evenodd" d="M127.861 70.4249C128.79 70.4249 129.585 70.6192 130.246 71.0078C130.907 71.3931 131.413 71.9475 131.766 72.6709C132.118 73.3911 132.294 74.2535 132.294 75.2581C132.294 76.2689 132.116 77.1392 131.761 77.8689C131.405 78.5954 130.888 79.1546 130.208 79.5463C129.529 79.9348 128.703 80.1291 127.73 80.1291H124.775V75.5613H123.297V74.6895H124.775V70.4249H127.861ZM125.934 74.6895H127.412V75.5613H125.934V79.0866H127.655C128.447 79.0866 129.103 78.9319 129.624 78.6223C130.144 78.3127 130.533 77.872 130.788 77.3003C131.044 76.7285 131.172 76.0478 131.172 75.2581C131.172 74.4747 131.045 73.8002 130.793 73.2348C130.54 72.6662 130.163 72.2303 129.661 71.927C129.159 71.6206 128.534 71.4674 127.786 71.4674H125.934V74.6895Z" fill="#6E6E6E"/>
<path d="M135.267 80.1291H134.108V70.4249H135.267V80.1291Z" fill="#6E6E6E"/>
<path d="M143.24 71.4674H138.62V74.7463H142.941V75.7887H138.62V79.0866H143.315V80.1291H137.461V70.4249H143.24V71.4674Z" fill="#6E6E6E"/>
<path d="M151.559 78.0632H151.652V70.4249H152.793V80.1291H151.671L146.452 72.5098H146.359V80.1291H145.199V70.4249H146.321L151.559 78.0632Z" fill="#6E6E6E"/>
<path d="M165.213 71.4674H162.202V80.1291H161.042V71.4674H158.03V70.4249H165.213V71.4674Z" fill="#6E6E6E"/>
<path d="M188.364 71.4674H185.352V80.1291H184.193V71.4674H181.181V70.4249H188.364V71.4674Z" fill="#6E6E6E"/>
<path d="M205.881 78.0632H205.975V70.4249H207.116V80.1291H205.994L200.775 72.5098H200.681V80.1291H199.522V70.4249H200.644L205.881 78.0632Z" fill="#6E6E6E"/>
<path d="M223.691 74.7463H228.797V70.4249H229.957V80.1291H228.797V75.7887H223.691V80.1291H222.531V70.4249H223.691V74.7463Z" fill="#6E6E6E"/>
<path fill-rule="evenodd" clip-rule="evenodd" d="M245.449 70.4249C246.2 70.425 246.814 70.5624 247.291 70.8372C247.771 71.1088 248.127 71.4769 248.357 71.9412C248.588 72.4056 248.703 72.9237 248.703 73.4954C248.703 74.0671 248.588 74.5868 248.357 75.0543C248.13 75.5218 247.778 75.8946 247.301 76.1726C246.824 76.4474 246.213 76.5848 245.468 76.5848H243.373V80.1291H242.213V70.4249H245.449ZM243.373 75.5424H245.43C245.944 75.5423 246.358 75.4523 246.669 75.2723C246.981 75.0922 247.207 74.8489 247.347 74.5426C247.491 74.233 247.562 73.8839 247.562 73.4954C247.562 73.1069 247.491 72.7594 247.347 72.453C247.207 72.1466 246.979 71.9065 246.665 71.7327C246.35 71.5558 245.932 71.4674 245.411 71.4674H243.373V75.5424Z" fill="#6E6E6E"/>
<path d="M195.889 69.6479H194.729L193.457 68.4538L192.204 69.6479H191.044L192.821 67.9231H194.112L195.889 69.6479Z" fill="#6E6E6E"/>
<path d="M72.7147 69.4773V69.5531H71.6672L70.6945 68.2264L69.7219 69.5531H68.6744V69.4773L70.1895 67.5061H71.1996L72.7147 69.4773Z" fill="#6E6E6E"/>
<path d="M142.361 69.4773V69.5531H141.314L140.341 68.2264L139.368 69.5531H138.321V69.4773L139.836 67.5061H140.846L142.361 69.4773Z" fill="#6E6E6E"/>
<path d="M170.088 66.729C170.733 66.729 171.221 66.8428 171.552 67.0702C171.885 67.2976 172.052 67.6009 172.052 67.98C172.052 68.3022 171.951 68.5375 171.748 68.686C171.545 68.8344 171.322 68.9276 171.079 68.9655V69.4394H170.163V68.4159C170.49 68.3969 170.721 68.3511 170.855 68.2785C170.992 68.2058 171.061 68.0937 171.061 67.9421C171.061 67.7715 170.962 67.6467 170.766 67.5677C170.57 67.4888 170.331 67.4493 170.051 67.4493L170.088 66.729Z" fill="#6E6E6E"/>
<path d="M195.215 66.4258C195.777 66.4258 196.201 66.5222 196.487 66.7148C196.774 66.9075 196.918 67.165 196.918 67.4872C196.918 67.7715 196.83 67.9784 196.656 68.1079C196.484 68.2342 196.291 68.3117 196.076 68.3401V68.7381H195.29V67.8662C195.552 67.8473 195.745 67.8125 195.87 67.762C195.995 67.7083 196.057 67.6104 196.057 67.4682C196.057 67.3166 195.973 67.2092 195.805 67.146C195.639 67.0829 195.43 67.0512 195.178 67.0512L195.215 66.4258Z" fill="#6E6E6E"/>
</svg>
