<?xml version="1.0" encoding="UTF-8"?>
<svg id="Layer_2" data-name="Layer 2" xmlns="http://www.w3.org/2000/svg" viewBox="0 0 313.2 49.98">
  <defs>
    <style>
      .cls-1 {
        fill: #0d0116;
      }

      .cls-1, .cls-2, .cls-3 {
        stroke-width: 0px;
      }

      .cls-2 {
        fill: #d12027;
      }

      .cls-3 {
        fill: #fff;
      }
    </style>
  </defs>
  <g id="Layer_1-2" data-name="Layer 1">
    <g>
      <rect class="cls-2" x="313.2" y="14.28" width="0" height="35.7"/>
      <path class="cls-1" d="M281.5,35.74c.28,0,.55-.16.55-.55v-.29c-.12.06-.26.11-.47.15-.36.08-.46.18-.46.37,0,.22.18.32.38.32Z"/>
      <path class="cls-1" d="M291.14,34.46c0-8.06-6.54-14.6-14.6-14.6s-14.6,6.54-14.6,14.6,6.54,14.6,14.6,14.6,14.6-6.53,14.6-14.6ZM284.76,33.09v.49h.02c.23-.38.55-.59,1.05-.59.44,0,.77.21.94.57h.02c.28-.44.65-.57,1.08-.57.81,0,1.16.57,1.16,1.32v2.07h-1.22v-1.85c0-.34-.11-.55-.42-.55s-.46.27-.46.63v1.77h-1.22v-1.85c0-.34-.11-.55-.42-.55s-.46.27-.46.63v1.77h-1.22v-3.29h1.16ZM270.17,32.69h-1.22v-.82h1.22v.82ZM270.17,36.38h-1.22v-3.29h1.22v3.29ZM276.36,33.09h1.16v.45h.02c.26-.36.6-.56,1.06-.56.76,0,1.16.51,1.16,1.26v2.13h-1.22v-1.83c0-.34-.14-.57-.46-.57s-.5.27-.5.63v1.77h-1.22v-3.29ZM281.64,32.99c.5,0,.83.06,1.08.22.34.21.51.55.51.99v1.65c0,.28.02.43.12.49v.05h-1.2c-.05-.08-.08-.18-.11-.36h-.01c-.22.3-.57.44-.99.44-.63,0-1.1-.34-1.1-.99,0-.73.56-.94,1.19-1.01.7-.08.88-.16.88-.37,0-.18-.08-.32-.35-.32s-.4.15-.43.39h-1.16c.03-.65.53-1.19,1.56-1.19ZM274.29,32.03h1.19v1.07h.63v.74h-.63v1.34c0,.33.23.34.61.31v.9c-.19.04-.38.08-.6.08-.8,0-1.21-.23-1.21-1.01v-1.61h-.43v-.74h.43v-1.07ZM272.14,32.98c.52,0,.91.17,1.21.44.4.37.59.96.57,1.61h-2.35c.07.38.28.61.65.61.21,0,.37-.08.46-.25h1.18c-.07.3-.3.59-.63.79-.3.19-.63.28-1.05.28-1.08,0-1.8-.74-1.8-1.74s.72-1.75,1.75-1.75ZM268.89,31.77l-1.48,4.61h-1.51l-1.48-4.61h1.39l.63,2.17c.12.39.23.9.23.9h.01s.12-.5.23-.9l.62-2.17h1.37Z"/>
      <path class="cls-1" d="M272.16,33.8c-.34,0-.52.23-.59.59h1.14c-.05-.37-.26-.59-.55-.59Z"/>
      <path class="cls-1" d="M102.97,42.12c1.29,0,2.16-.57,2.82-1.33h.09v.87c0,1.22-.46,2.05-1.79,2.05-.98,0-1.51-.5-1.66-1h-3.97c.39,2.62,2.58,3.91,5.7,3.91,1.66,0,3.12-.37,4.15-1.29.98-.87,1.64-2.34,1.64-4.21v-10.17h-3.93v1.29h-.06c-.63-1-1.59-1.64-3.16-1.64-2.73,0-4.54,2.62-4.54,5.98,0,3.67,2.2,5.54,4.74,5.54ZM104.15,33.74c1.2,0,1.9,1.18,1.9,2.64,0,1.55-.7,2.71-1.9,2.71s-1.9-1.13-1.9-2.71.74-2.64,1.9-2.64Z"/>
      <path class="cls-1" d="M97.88,34.42h.09v-3.6c-.13-.07-.35-.11-.68-.11-1.42,0-2.53.61-3.38,2.25h-.07v-2.01h-3.93v11.74h4.13v-4.91c0-2.64,1.42-3.8,3.84-3.36Z"/>
      <path class="cls-1" d="M0,42.69h8.23c1.62,0,2.84-.33,3.78-1,1.11-.83,1.79-2.2,1.79-3.97,0-1.86-.98-3.38-2.68-3.95v-.07c1.31-.61,1.94-1.59,1.94-3.16,0-1.35-.5-2.49-1.44-3.25-.83-.68-2.01-1.05-3.54-1.05H0v16.45ZM4.47,29.83h2.77c.87,0,1.53.46,1.53,1.4s-.63,1.44-1.51,1.44h-2.79v-2.84ZM4.47,35.68h3.19c.94,0,1.72.55,1.72,1.68s-.72,1.68-1.7,1.68h-3.21v-3.36Z"/>
      <rect class="cls-1" x="14.54" y="26.23" width="4.23" height="16.45"/>
      <path class="cls-1" d="M25.69,43.06c3.71,0,6.07-2.49,6.07-6.22s-2.36-6.22-6.07-6.22-6.11,2.51-6.11,6.22,2.4,6.22,6.11,6.22ZM25.64,33.5c1.27,0,1.92,1.29,1.92,3.34s-.65,3.36-1.92,3.36-1.88-1.29-1.88-3.36.61-3.34,1.88-3.34Z"/>
      <path class="cls-1" d="M44.41,36.84c0-3.71-2.36-6.22-6.07-6.22s-6.11,2.51-6.11,6.22,2.4,6.22,6.11,6.22,6.07-2.49,6.07-6.22ZM38.3,33.5c1.26,0,1.92,1.29,1.92,3.34s-.66,3.36-1.92,3.36-1.88-1.29-1.88-3.36.61-3.34,1.88-3.34Z"/>
      <path class="cls-1" d="M45.22,42.69h4.12v-6.39c0-1.27.52-2.23,1.55-2.23s1.42.79,1.42,1.99v6.63h4.12v-6.39c0-1.27.52-2.23,1.55-2.23s1.42.79,1.42,1.99v6.63h4.12v-7.38c0-2.71-1.18-4.71-3.91-4.71-1.44,0-2.68.48-3.64,2.03h-.07c-.57-1.29-1.68-2.03-3.16-2.03-1.68,0-2.75.74-3.53,2.12h-.07v-1.77h-3.93v11.74Z"/>
      <path class="cls-1" d="M76.78,36.79c0-3.54-1.7-6.2-4.65-6.2-1.51,0-2.55.55-3.34,1.57h-.07v-5.94h-4.12v16.45h3.93v-1.53h.04c.72,1.31,2.03,1.92,3.3,1.92,3.05,0,4.91-2.29,4.91-6.28ZM70.65,33.63c1.24,0,1.94,1.22,1.94,3.12s-.68,3.12-1.94,3.12-2.07-1.24-2.07-3.12.81-3.12,2.07-3.12Z"/>
      <path class="cls-1" d="M83.39,43.01c2.95,0,5.02-1.35,5.72-4.04h-3.97c-.26.79-.9,1.11-1.62,1.11-1.24,0-1.94-.74-2.12-2.2h7.88c.04-2.42-.57-4.47-1.92-5.78-1.03-.98-2.38-1.53-4.12-1.53-3.51,0-5.94,2.55-5.94,6.22s2.44,6.22,6.09,6.22ZM83.33,33.41c.98,0,1.77.74,1.83,2.16h-3.75c.15-1.35.79-2.16,1.92-2.16Z"/>
      <polygon class="cls-1" points="257.8 42.69 253.66 35.29 257.37 30.95 252.83 30.95 250.06 34.53 250.06 26.23 246 26.23 246 42.69 250.06 42.69 250.06 39.39 250.91 38.41 253.13 42.69 257.8 42.69"/>
      <path class="cls-1" d="M113.77,42.69h8.23c1.62,0,2.84-.33,3.78-1,1.11-.83,1.79-2.2,1.79-3.97,0-1.85-.98-3.38-2.68-3.95v-.07c1.31-.61,1.94-1.59,1.94-3.16,0-1.35-.5-2.49-1.44-3.25-.83-.68-2.01-1.05-3.54-1.05h-8.07v16.45ZM118.24,29.83h2.77c.87,0,1.53.46,1.53,1.4s-.63,1.44-1.51,1.44h-2.79v-2.84ZM118.24,35.68h3.19c.94,0,1.72.55,1.72,1.68s-.72,1.68-1.7,1.68h-3.21v-3.36Z"/>
      <path class="cls-1" d="M128.21,38.52c0,2.71,1.31,4.54,3.97,4.54,1.53,0,2.62-.68,3.47-1.9h.07v1.53h3.93v-11.74h-4.12v6.44c0,1.35-.63,2.07-1.7,2.07-.98,0-1.48-.52-1.48-1.86v-6.66h-4.13v7.57Z"/>
      <path class="cls-1" d="M151.26,39.06c0-3.25-2.57-3.73-4.6-4.04-1.26-.17-2.29-.35-2.29-1s.57-.92,1.18-.92c.68,0,1.29.24,1.4,1.11h3.88c-.15-2.29-1.92-3.62-5.3-3.62-2.73,0-5.06,1.35-5.06,3.75,0,2.95,2.16,3.56,4.04,3.84,1.44.24,2.73.31,2.73,1.27,0,.81-.61,1.05-1.42,1.05-1.05,0-1.62-.57-1.68-1.53h-3.82c.02,2.68,2.18,4.1,5.48,4.1,3.06,0,5.48-1.2,5.48-4.01Z"/>
      <rect class="cls-1" x="151.94" y="30.95" width="4.12" height="11.74"/>
      <rect class="cls-1" x="151.94" y="26.71" width="4.12" height="3.3"/>
      <path class="cls-1" d="M168.7,42.69v-7.59c0-2.68-1.33-4.5-3.91-4.5-1.55,0-2.68.68-3.58,1.96h-.07v-1.61h-3.93v11.74h4.13v-6.44c0-1.35.63-2.23,1.68-2.23s1.55.72,1.55,2.03v6.63h4.12Z"/>
      <path class="cls-1" d="M175.51,43.01c2.95,0,5.02-1.35,5.72-4.04h-3.97c-.26.79-.89,1.11-1.61,1.11-1.24,0-1.94-.74-2.12-2.2h7.88c.04-2.42-.57-4.47-1.92-5.78-1.03-.98-2.38-1.53-4.12-1.53-3.51,0-5.94,2.55-5.94,6.22s2.44,6.22,6.09,6.22ZM175.44,33.41c.98,0,1.77.74,1.83,2.16h-3.75c.15-1.35.79-2.16,1.92-2.16Z"/>
      <path class="cls-1" d="M181.81,38.98c.02,2.68,2.18,4.1,5.48,4.1,3.06,0,5.48-1.2,5.48-4.01,0-3.25-2.57-3.73-4.6-4.04-1.26-.17-2.29-.35-2.29-1s.57-.92,1.18-.92c.68,0,1.29.24,1.4,1.11h3.88c-.15-2.29-1.92-3.62-5.3-3.62-2.73,0-5.06,1.35-5.06,3.75,0,2.95,2.16,3.56,4.04,3.84,1.44.24,2.73.31,2.73,1.27,0,.81-.61,1.05-1.42,1.05-1.05,0-1.62-.57-1.68-1.53h-3.82Z"/>
      <path class="cls-1" d="M198.68,43.08c3.06,0,5.48-1.2,5.48-4.01,0-3.25-2.57-3.73-4.6-4.04-1.26-.17-2.29-.35-2.29-1s.57-.92,1.18-.92c.68,0,1.29.24,1.4,1.11h3.88c-.15-2.29-1.92-3.62-5.3-3.62-2.73,0-5.06,1.35-5.06,3.75,0,2.95,2.16,3.56,4.04,3.84,1.44.24,2.73.31,2.73,1.27,0,.81-.61,1.05-1.42,1.05-1.05,0-1.62-.57-1.68-1.53h-3.82c.02,2.68,2.18,4.1,5.48,4.1Z"/>
      <polygon class="cls-1" points="218.09 42.69 221.62 30.95 217.5 30.95 215.9 37.41 215.86 37.41 214.35 30.95 210.77 30.95 209.27 37.36 209.22 37.36 207.63 30.95 203.42 30.95 206.98 42.69 210.88 42.69 212.48 35.83 212.52 35.83 214.11 42.69 218.09 42.69"/>
      <path class="cls-1" d="M227.01,43.01c2.95,0,5.02-1.35,5.72-4.04h-3.97c-.26.79-.9,1.11-1.62,1.11-1.24,0-1.94-.74-2.12-2.2h7.88c.04-2.42-.57-4.47-1.92-5.78-1.03-.98-2.38-1.53-4.12-1.53-3.51,0-5.94,2.55-5.94,6.22s2.44,6.22,6.09,6.22ZM226.95,33.41c.98,0,1.77.74,1.83,2.16h-3.75c.15-1.35.79-2.16,1.92-2.16Z"/>
      <path class="cls-1" d="M239.47,43.01c2.95,0,5.02-1.35,5.72-4.04h-3.97c-.26.79-.9,1.11-1.61,1.11-1.24,0-1.94-.74-2.12-2.2h7.88c.04-2.42-.57-4.47-1.92-5.78-1.03-.98-2.38-1.53-4.12-1.53-3.51,0-5.93,2.55-5.93,6.22s2.44,6.22,6.09,6.22ZM239.41,33.41c.98,0,1.77.74,1.83,2.16h-3.75c.15-1.35.79-2.16,1.92-2.16Z"/>
      <path class="cls-3" d="M4.82,19.86v-5.03h3.64c3.32,0,5.67-2.4,5.67-5.58,0-1.82-.67-3.32-1.84-4.36-1.08-.97-2.61-1.52-4.71-1.52H0v16.49h4.82ZM4.82,7.36h2.56c1.25,0,1.96.72,1.96,1.82s-.74,1.91-1.91,1.91h-2.61v-3.74Z"/>
      <path class="cls-3" d="M14.57,19.86h4.36v-6.34c0-1.27.67-2.24,1.78-2.24s1.64.81,1.64,2.03v6.55h4.36v-7.61c0-2.7-1.41-4.52-4.13-4.52-1.64,0-2.7.69-3.57,1.71h-.07V3.37h-4.36v16.49Z"/>
      <polygon class="cls-3" points="37.19 3.51 32.97 3.51 31.54 6.69 34.47 6.69 37.19 3.51"/>
      <path class="cls-3" d="M33.18,10.56c.95,0,1.25.48,1.25,1.13,0,.74-.67,1.04-3.16,1.31-2.26.25-4.27,1.02-4.27,3.62,0,2.31,1.66,3.53,3.92,3.53,1.52,0,2.77-.51,3.55-1.59h.05c.09.65.23,1.01.39,1.29h4.29v-.18c-.37-.23-.44-.76-.44-1.75v-5.88c0-1.57-.6-2.77-1.82-3.53-.9-.55-2.05-.78-3.85-.78-3.69,0-5.49,1.91-5.58,4.24h4.13c.12-.85.6-1.41,1.55-1.41ZM32.55,17.57c-.72,0-1.36-.35-1.36-1.13,0-.69.39-1.06,1.66-1.34.74-.16,1.27-.35,1.68-.55v1.04c0,1.41-.97,1.98-1.98,1.98Z"/>
      <path class="cls-3" d="M38.72,10.72h1.52v5.74c0,2.81,1.45,3.62,4.31,3.62.78,0,1.48-.12,2.14-.28v-3.21c-1.36.09-2.19.07-2.19-1.11v-4.77h2.24v-2.63h-2.24v-3.81h-4.27v3.81h-1.52v2.63Z"/>
      <path class="cls-3" d="M50.34,16.47c0,2.81,1.45,3.62,4.31,3.62.78,0,1.48-.12,2.14-.28v-3.21c-1.36.09-2.19.07-2.19-1.11v-4.77h2.24v-2.63h-2.24v-3.81h-4.27v3.81h-1.52v2.63h1.52v5.74Z"/>
      <path class="cls-3" d="M57.36,19.86h4.36v-4.82c0-2.65,1.5-3.81,4.06-3.37h.09v-3.71c-.14-.07-.37-.12-.71-.12-1.5,0-2.63.55-3.57,2.03h-.07v-1.78h-4.15v11.76Z"/>
      <rect class="cls-3" x="66.79" y="3.74" width="4.36" height="2.93"/>
      <rect class="cls-3" x="66.79" y="8.1" width="4.36" height="11.76"/>
      <polygon class="cls-3" points="77.91 5.65 78.95 6.92 82.3 6.92 79.78 3.74 76.04 3.74 73.53 6.92 76.87 6.92 77.91 5.65"/>
      <path class="cls-3" d="M81.86,2.65c0,.44-.25,1.02-1.08,1.59h2.33c.74-.41,1.38-1.27,1.38-2.31,0-1.18-.92-1.94-2.74-1.94-.67,0-1.29.14-1.61.23v1.87c.3-.14.6-.16.85-.16.67,0,.88.35.88.71Z"/>
      <path class="cls-3" d="M77.96,20.18c1.5,0,2.68-.3,3.76-.99,1.15-.74,1.98-1.78,2.24-2.84h-4.22c-.32.58-.88.88-1.64.88-1.32,0-2.05-.83-2.31-2.19h8.4c.05-2.33-.62-4.43-2.05-5.74-1.08-.99-2.49-1.59-4.34-1.59-3.71,0-6.27,2.7-6.27,6.25s2.58,6.23,6.43,6.23ZM77.89,10.63c1.04,0,1.78.78,1.96,2.1h-4.06c.23-1.29.9-2.1,2.1-2.1Z"/>
      <path class="cls-3" d="M84.92,19.86h4.36v-6.34c0-1.27.67-2.24,1.78-2.24s1.64.81,1.64,2.03v6.55h4.36v-7.61c0-2.7-1.41-4.52-4.13-4.52-1.64,0-2.84.69-3.78,1.98h-.07v-1.61h-4.15v11.76Z"/>
      <polygon class="cls-3" points="104.87 11.19 99.27 19.86 104.69 19.86 107.68 14.71 107.73 14.71 110.57 19.86 116.31 19.86 110.82 11.14 115.78 3.37 110.54 3.37 107.94 7.77 107.89 7.77 105.33 3.37 99.77 3.37 104.87 11.19"/>
      <path class="cls-3" d="M122.87,18.57h.05c.09.65.23,1.01.39,1.29h4.29v-.18c-.37-.23-.44-.76-.44-1.75v-5.88c0-1.57-.6-2.77-1.82-3.53-.9-.55-2.05-.78-3.85-.78-3.69,0-5.49,1.91-5.58,4.24h4.13c.12-.85.6-1.41,1.55-1.41s1.25.48,1.25,1.13c0,.74-.67,1.04-3.16,1.31-2.26.25-4.27,1.02-4.27,3.62,0,2.31,1.66,3.53,3.92,3.53,1.52,0,2.77-.51,3.55-1.59ZM121.25,15.11c.74-.16,1.27-.35,1.68-.55v1.04c0,1.41-.97,1.98-1.98,1.98-.72,0-1.36-.35-1.36-1.13,0-.69.39-1.06,1.66-1.34Z"/>
      <path class="cls-3" d="M128.09,19.86h4.36v-6.34c0-1.27.67-2.24,1.78-2.24s1.64.81,1.64,2.03v6.55h4.36v-7.61c0-2.7-1.41-4.52-4.13-4.52-1.64,0-2.84.69-3.78,1.98h-.07v-1.61h-4.15v11.76Z"/>
      <path class="cls-3" d="M141.15,19.86h4.36v-6.34c0-1.27.67-2.24,1.78-2.24s1.64.81,1.64,2.03v6.55h4.36v-7.61c0-2.7-1.41-4.52-4.13-4.52-1.64,0-2.7.69-3.57,1.71h-.07V3.37h-4.36v16.49Z"/>
      <polygon class="cls-3" points="160.14 11.38 160.36 11.65 160.72 11.65 160.32 11.19 159.96 11.19 159.56 11.65 159.92 11.65 160.14 11.38"/>
      <path class="cls-3" d="M159.92,11.87l-1.12,3.05h.39l.33-.93h1.22l.32.93h.42l-1.13-3.05h-.43ZM160.14,12.22h0s.08.26.14.43l.35,1.03h-1l.36-1.03c.06-.18.14-.43.14-.43Z"/>
      <polygon class="cls-3" points="160.86 11.26 161.21 10.81 160.79 10.81 160.57 11.26 160.86 11.26"/>
      <path class="cls-3" d="M161.82,14.92h.35v-1.36c0-.36.26-.61.61-.61.31,0,.5.16.5.45v1.52h.35v-1.55c0-.46-.28-.71-.74-.71-.32,0-.54.13-.7.34h0v-.29h-.35v2.21Z"/>
      <path class="cls-3" d="M164.72,15.63h.35v-.97h0c.18.24.4.32.7.32.6,0,.96-.45.96-1.16s-.39-1.16-.95-1.16c-.32,0-.54.14-.71.36h0v-.31h-.35v2.92ZM165.75,12.96c.42,0,.63.38.63.87s-.21.87-.63.87c-.51,0-.7-.39-.7-.87s.22-.87.71-.87Z"/>
      <path class="cls-3" d="M167.13,14.92h.35v-1.36c0-.36.26-.61.61-.61.31,0,.5.16.5.45v1.52h.35v-1.55c0-.46-.28-.71-.74-.71-.32,0-.54.13-.7.34h0v-1.14h-.35v3.05Z"/>
      <path class="cls-3" d="M170.98,12.05c.11-.06.21-.17.21-.32,0-.17-.12-.28-.35-.28-.09,0-.15.02-.19.03v.2s.09-.03.14-.03c.09,0,.15.04.15.12,0,.09-.06.18-.2.26h.25Z"/>
      <polygon class="cls-3" points="170.1 12.44 170.32 12.17 170.53 12.44 170.9 12.44 170.5 11.98 170.13 11.98 169.74 12.44 170.1 12.44"/>
      <path class="cls-3" d="M169.77,13.42c.01-.33.19-.49.55-.49.32,0,.5.14.5.39s-.22.27-.53.32c-.55.09-.96.19-.96.71,0,.42.33.62.75.62.38,0,.6-.18.73-.35h0c.03.23.15.33.38.33.09,0,.15-.02.19-.03v-.25h-.01c-.19.04-.24-.06-.24-.24v-1.05c0-.53-.35-.7-.82-.7-.58,0-.87.32-.88.75h.33ZM170.15,14.7c-.23,0-.46-.06-.46-.36,0-.33.28-.38.62-.45.19-.03.39-.09.5-.16v.38c0,.26-.21.59-.67.59Z"/>
      <path class="cls-3" d="M171.72,14.92h.35v-1.38c0-.35.3-.59.57-.59.23,0,.38.16.38.44v1.53h.35v-1.38c0-.35.26-.59.54-.59.22,0,.41.16.41.44v1.53h.35v-1.55c0-.46-.28-.71-.67-.71-.27,0-.53.14-.67.39h0c-.09-.26-.31-.39-.58-.39s-.51.15-.65.37h0v-.32h-.35v2.21Z"/>
      <path class="cls-3" d="M176.71,14.98c.55,0,.9-.31.94-.84h-.34c-.03.34-.24.55-.6.55-.47,0-.71-.38-.71-.87s.24-.88.71-.88c.33,0,.54.18.59.48h.35c-.08-.47-.42-.77-.94-.77-.66,0-1.07.52-1.07,1.16s.41,1.16,1.07,1.16Z"/>
      <path class="cls-3" d="M179,12.13c0,.09-.06.18-.2.26h.25c.11-.06.21-.18.21-.32,0-.17-.12-.28-.35-.28-.09,0-.15.02-.19.03v.2s.09-.03.14-.03c.09,0,.15.04.15.12Z"/>
      <path class="cls-3" d="M178.79,14.97c.32,0,.51-.14.67-.35h0v.3h.35v-2.21h-.35v1.36c0,.35-.23.62-.58.62-.31,0-.5-.17-.5-.45v-1.52h-.35v1.53c0,.46.29.73.74.73Z"/>
      <path class="cls-3" d="M180.66,13.42c.01-.33.19-.49.55-.49.32,0,.5.14.5.39s-.22.27-.53.32c-.55.09-.96.19-.96.71,0,.42.33.62.75.62.38,0,.6-.18.73-.35h0c.03.23.15.33.38.33.09,0,.15-.02.19-.03v-.25h-.01c-.19.04-.24-.06-.24-.24v-1.05c0-.53-.35-.7-.82-.7-.58,0-.87.32-.88.75h.33ZM181.04,14.7c-.23,0-.46-.06-.46-.36,0-.33.28-.38.62-.45.19-.03.39-.09.5-.16v.38c0,.26-.21.59-.67.59Z"/>
      <path class="cls-3" d="M183.16,14.92h1.27c.29,0,.54-.08.7-.22.16-.14.24-.32.24-.58,0-.34-.21-.6-.51-.69h0c.26-.1.43-.28.43-.57,0-.22-.07-.38-.22-.52-.14-.13-.37-.2-.67-.2h-1.24v2.77ZM183.72,12.61h.62c.25,0,.4.12.4.32,0,.22-.17.33-.41.33h-.61v-.66ZM184.35,13.68c.26,0,.45.14.45.4,0,.22-.16.38-.43.38h-.65v-.77h.63Z"/>
      <path class="cls-3" d="M185.57,14.92h.57l.18-.59h1l.19.59h.58l-.98-2.77h-.58l-.96,2.77ZM186.81,12.68h0s.07.28.11.43l.25.8h-.73l.25-.8c.05-.15.12-.43.12-.43Z"/>
      <polygon class="cls-3" points="186.97 11.91 187.32 11.46 186.8 11.46 186.58 11.91 186.97 11.91"/>
      <path class="cls-3" d="M189.54,14.99c.82,0,1.33-.61,1.33-1.44s-.51-1.44-1.33-1.44-1.34.62-1.34,1.44.52,1.44,1.34,1.44ZM189.55,12.56c.51,0,.76.43.76.98s-.25.98-.76.98-.77-.43-.77-.98.26-.98.77-.98Z"/>
      <polygon class="cls-3" points="192.45 14.92 193.01 14.92 193.01 12.63 193.84 12.63 193.84 12.15 191.61 12.15 191.61 12.63 192.45 12.63 192.45 14.92"/>
      <path class="cls-3" d="M194.71,12.15l-.96,2.77h.57l.18-.59h1l.19.59h.58l-.98-2.77h-.58ZM194.99,12.68h0s.07.28.11.43l.25.8h-.73l.25-.8c.05-.15.12-.43.12-.43Z"/>
      <polygon class="cls-3" points="195.22 11.91 195 11.46 194.48 11.46 194.83 11.91 195.22 11.91"/>
      <rect class="cls-3" x="196.61" y="12.15" width=".56" height="2.77"/>
      <path class="cls-3" d="M198.18,14.92h.55v-1.43c0-.19-.02-.48-.02-.48h0s.11.24.2.38l.95,1.53h.54v-2.77h-.55v1.45c0,.19.02.48.02.48h0s-.1-.24-.19-.39l-.92-1.54h-.57v2.77Z"/>
      <path class="cls-3" d="M201.23,14.58c.23.25.55.4.97.4.33,0,.59-.11.78-.43h0l.02.37h.42v-1.47h-1.16v.43h.67c0,.32-.28.64-.71.64-.48,0-.77-.41-.77-.98s.26-.98.78-.98c.36,0,.56.19.62.46h.55c-.09-.54-.49-.93-1.19-.93-.37,0-.67.11-.89.32-.29.27-.45.67-.45,1.13,0,.42.13.77.36,1.03Z"/>
      <path class="cls-3" d="M205.03,14.97c.71,0,1.07-.34,1.07-.94v-1.88h-.56v1.87c0,.29-.17.5-.52.5-.38,0-.52-.2-.52-.49v-1.88h-.56v1.88c0,.6.38.94,1.09.94Z"/>
      <path class="cls-3" d="M207.83,12.98c-.08.17-.19.39-.19.39h0s-.1-.23-.18-.39l-.42-.82h-.61l.92,1.7v1.07h.56v-1.07l.92-1.7h-.59l-.41.82Z"/>
      <polygon class="cls-3" points="209.17 12.15 209.17 14.92 211.21 14.92 211.21 14.45 209.73 14.45 209.73 13.71 211.02 13.71 211.02 13.25 209.73 13.25 209.73 12.63 211.2 12.63 211.2 12.15 209.17 12.15"/>
      <polygon class="cls-3" points="210.15 11.72 210.34 11.95 210.76 11.95 210.37 11.5 209.93 11.5 209.54 11.95 209.96 11.95 210.15 11.72"/>
      <path class="cls-3" d="M211.69,14.92h.55v-1.43c0-.19-.02-.48-.02-.48h0s.11.24.2.38l.95,1.53h.54v-2.77h-.55v1.45c0,.19.02.48.02.48h0s-.1-.24-.19-.39l-.92-1.54h-.57v2.77Z"/>
      <path class="cls-3" d="M215.65,14.92h.51l.93-2.77h-.57l-.48,1.6c-.05.18-.12.44-.12.44h0s-.07-.26-.12-.44l-.49-1.6h-.59l.93,2.77Z"/>
      <polygon class="cls-3" points="218.5 11.91 218.28 11.46 217.76 11.46 218.11 11.91 218.5 11.91"/>
      <path class="cls-3" d="M217.99,12.15l-.96,2.77h.57l.18-.59h1l.19.59h.58l-.98-2.77h-.58ZM218.27,12.68h0s.07.28.11.43l.25.8h-.73l.25-.8c.05-.15.12-.43.12-.43Z"/>
      <path class="cls-3" d="M220.36,14.92h.51v-1.59c0-.22-.02-.57-.02-.57h0s.06.33.12.53l.46,1.63h.54l.48-1.63c.06-.2.12-.53.12-.53h0s-.02.35-.02.57v1.59h.52v-2.77h-.8l-.39,1.39c-.1.35-.17.75-.17.75h0s-.08-.4-.17-.75l-.39-1.39h-.79v2.77Z"/>
      <path class="cls-3" d="M224.87,14.99c.82,0,1.33-.61,1.33-1.44s-.51-1.44-1.33-1.44-1.34.62-1.34,1.44.52,1.44,1.34,1.44ZM224.87,12.56c.51,0,.76.43.76.98s-.25.98-.76.98-.77-.43-.77-.98.26-.98.77-.98Z"/>
      <polygon class="cls-3" points="224.65 11.5 224.26 11.95 224.68 11.95 224.87 11.72 225.06 11.95 225.48 11.95 225.09 11.5 224.65 11.5"/>
      <rect class="cls-3" x="226.66" y="12.15" width=".56" height="2.77"/>
      <polygon class="cls-3" points="228.92 14.92 229.48 14.92 229.48 12.63 230.31 12.63 230.31 12.15 228.08 12.15 228.08 12.63 228.92 12.63 228.92 14.92"/>
      <path class="cls-3" d="M230.68,14.92h.58v-1.07h.46l.64,1.07h.65l-.69-1.13c.35-.12.55-.39.55-.77,0-.25-.09-.44-.25-.6-.16-.17-.4-.26-.72-.26h-1.22v2.77ZM231.26,12.64h.59c.28,0,.44.12.44.38s-.15.38-.45.38h-.58v-.76Z"/>
      <path class="cls-3" d="M234.4,14.97c.71,0,1.07-.34,1.07-.94v-1.67c.15-.1.26-.27.27-.51h-.46c-.03.22-.11.31-.29.31h-.08v1.87c0,.29-.17.5-.52.5-.38,0-.52-.2-.52-.49v-1.88h-.56v1.88c0,.6.38.94,1.09.94Z"/>
      <path class="cls-3" d="M235.85,13.54c0,.83.52,1.44,1.34,1.44s1.33-.61,1.33-1.44c0-.49-.18-.91-.5-1.17.18-.09.29-.27.31-.53h-.46c-.03.22-.11.3-.28.31-.12-.04-.26-.05-.4-.05-.82,0-1.34.62-1.34,1.44ZM237.18,12.56c.51,0,.76.43.76.98s-.25.98-.76.98-.77-.43-.77-.98.26-.98.77-.98Z"/>
      <polygon class="cls-3" points="237 11.91 237.39 11.91 237.17 11.46 236.65 11.46 237 11.91"/>
      <path class="cls-3" d="M238.96,14.92h.55v-1.43c0-.19-.02-.48-.02-.48h0s.11.24.2.38l.95,1.53h.54v-2.77h-.55v1.45c0,.19.02.48.02.48h0s-.1-.24-.19-.39l-.92-1.54h-.57v2.77Z"/>
      <path class="cls-3" d="M242.01,14.58c.23.25.55.4.97.4.33,0,.59-.11.78-.43h0l.02.37h.42v-1.47h-1.16v.43h.67c0,.32-.28.64-.71.64-.48,0-.77-.41-.77-.98s.26-.98.78-.98c.36,0,.56.19.62.46h.55c-.09-.54-.49-.93-1.19-.93-.37,0-.67.11-.89.32-.29.27-.45.67-.45,1.13,0,.42.13.77.36,1.03Z"/>
      <path class="cls-3" d="M160.38,19.59c.39,0,.71-.11.92-.32.22-.22.37-.56.37-.87h-.38c-.04.45-.32.85-.9.85-.64,0-1.06-.51-1.06-1.26s.38-1.27,1.06-1.27c.49,0,.79.26.87.65h.38c-.08-.57-.52-.98-1.24-.98-.92,0-1.46.7-1.46,1.61s.57,1.6,1.45,1.6Z"/>
      <path class="cls-3" d="M163.14,19.59c.67,0,1.07-.53,1.07-1.17s-.41-1.17-1.07-1.17-1.08.53-1.08,1.17.41,1.17,1.08,1.17ZM163.14,17.53c.47,0,.72.39.72.88s-.24.88-.72.88-.72-.39-.72-.88.25-.88.72-.88Z"/>
      <polygon class="cls-3" points="163.16 16.51 162.94 16.97 163.23 16.97 163.58 16.51 163.16 16.51"/>
      <path class="cls-3" d="M165.35,19.53h.35v-1.37c0-.37.26-.62.61-.62.32,0,.5.16.5.45v1.54h.35v-1.57c0-.46-.28-.72-.75-.72-.32,0-.55.13-.71.34h0v-.29h-.35v2.23Z"/>
      <path class="cls-3" d="M168.73,19.59c.67,0,1.07-.53,1.07-1.17s-.41-1.17-1.07-1.17-1.08.53-1.08,1.17.41,1.17,1.08,1.17ZM168.73,17.53c.47,0,.72.39.72.88s-.24.88-.72.88-.72-.39-.72-.88.25-.88.72-.88Z"/>
      <rect class="cls-3" x="168.54" y="19.82" width=".35" height=".39"/>
      <polygon class="cls-3" points="168.91 16.56 168.54 16.56 168.13 17.01 168.5 17.01 168.72 16.74 168.94 17.01 169.31 17.01 168.91 16.56"/>
      <rect class="cls-3" x="170.3" y="16.57" width=".35" height=".39"/>
      <rect class="cls-3" x="170.3" y="17.29" width=".35" height="2.23"/>
      <path class="cls-3" d="M172.77,19.59c.32,0,.52-.12.69-.34h0v.27h.35v-3.09h-.35v1.17h0c-.14-.21-.38-.37-.7-.37-.55,0-.98.43-.98,1.17s.38,1.17.99,1.17ZM172.78,17.54c.46,0,.71.36.71.88s-.21.88-.71.88c-.43,0-.64-.37-.64-.88s.22-.88.64-.88Z"/>
      <path class="cls-3" d="M174.39,18.84c0,.46.29.74.75.74.32,0,.51-.14.67-.36h0v.31h.35v-2.23h-.35v1.37c0,.35-.23.62-.58.62-.32,0-.5-.17-.5-.46v-1.54h-.35v1.54Z"/>
      <path class="cls-3" d="M176.75,19.53h.35v-1.37c0-.37.26-.62.61-.62.32,0,.5.16.5.45v1.54h.35v-1.57c0-.46-.28-.72-.75-.72-.32,0-.55.13-.71.34h0v-.29h-.35v2.23Z"/>
      <path class="cls-3" d="M179.02,18.34c0,.64.4,1.1.98,1.1.32,0,.5-.13.66-.35h0v.32c0,.39-.23.57-.64.57-.35,0-.58-.09-.61-.34h-.32c.04.38.37.62.95.62s.98-.28.98-.86v-2.11h-.35v.28h0c-.15-.21-.36-.34-.68-.34-.52,0-.95.41-.95,1.1ZM180.01,17.54c.47,0,.68.3.68.79s-.16.83-.68.83c-.41,0-.63-.32-.63-.81s.21-.81.63-.81Z"/>
      <path class="cls-3" d="M182.13,17.58h.32v1.53c0,.31.21.43.49.43.1,0,.2-.01.28-.03v-.3h-.01s-.12.03-.19.03c-.14,0-.22-.05-.22-.21v-1.45h.43v-.28h-.43v-.7h-.35v.7h-.32v.28Z"/>
      <path class="cls-3" d="M183.66,19.53h.35v-1.24c0-.42.3-.68.65-.68.07,0,.1,0,.16.02h.01v-.34s-.08-.03-.14-.03c-.3,0-.53.18-.66.4h0v-.37h-.35v2.23Z"/>
      <path class="cls-3" d="M185.05,18.95c0,.42.33.62.76.62.38,0,.61-.18.74-.35h0c.03.23.15.33.38.33.09,0,.15-.02.19-.04v-.25h-.01c-.19.04-.24-.06-.24-.24v-1.06c0-.53-.35-.71-.82-.71-.59,0-.88.32-.89.76h.34c.01-.34.19-.49.56-.49.32,0,.5.14.5.39s-.22.27-.54.32c-.56.09-.97.19-.97.72ZM186.06,18.49c.19-.03.39-.09.51-.16v.38c0,.26-.21.6-.68.6-.23,0-.46-.06-.46-.36,0-.33.28-.39.63-.45Z"/>
      <path class="cls-3" d="M188.43,19.59c.67,0,1.07-.53,1.07-1.17s-.41-1.17-1.07-1.17-1.08.53-1.08,1.17.41,1.17,1.08,1.17ZM188.43,17.53c.47,0,.72.39.72.88s-.24.88-.72.88-.72-.39-.72-.88.25-.88.72-.88Z"/>
      <path class="cls-3" d="M191.5,19.59c.32,0,.52-.12.69-.34h0v.27h.35v-2.49h.27v-.27h-.27v-.32h-.35v.32h-.58v.27h.58v.58h0c-.14-.21-.38-.37-.7-.37-.55,0-.98.43-.98,1.17s.38,1.17.99,1.17ZM191.51,17.54c.46,0,.71.36.71.88s-.21.88-.71.88c-.43,0-.64-.37-.64-.88s.22-.88.64-.88Z"/>
      <path class="cls-3" d="M194.1,19.59c.67,0,1.07-.53,1.07-1.17s-.41-1.17-1.07-1.17-1.08.53-1.08,1.17.41,1.17,1.08,1.17ZM194.1,17.53c.47,0,.72.39.72.88s-.24.88-.72.88-.72-.39-.72-.88.25-.88.72-.88Z"/>
      <polygon class="cls-3" points="194.09 16.74 194.31 17.01 194.68 17.01 194.28 16.56 193.91 16.56 193.51 17.01 193.87 17.01 194.09 16.74"/>
      <path class="cls-3" d="M194.62,16.02c-.09,0-.15.02-.19.03v.21s.09-.03.14-.03c.09,0,.15.04.15.13,0,.1-.06.18-.21.27h.25c.11-.06.21-.18.21-.33,0-.17-.12-.28-.35-.28Z"/>
      <rect class="cls-3" x="195.67" y="17.29" width=".35" height="2.23"/>
      <rect class="cls-3" x="195.67" y="16.57" width=".35" height=".39"/>
      <path class="cls-3" d="M196.59,19.53h.2c0,.24-.1.32-.19.36v.19c.25-.05.41-.22.41-.54v-.44h-.42v.43Z"/>
      <path class="cls-3" d="M198.23,19.53h.35v-1.37c0-.37.26-.62.61-.62.32,0,.5.16.5.45v1.54h.35v-1.57c0-.46-.28-.72-.75-.72-.32,0-.55.13-.71.34h0v-1.15h-.35v3.09Z"/>
      <path class="cls-3" d="M201.6,19.59c.67,0,1.07-.53,1.07-1.17,0-.37-.14-.71-.39-.93.16-.09.27-.28.27-.53h-.33c-.01.22-.11.33-.27.34-.11-.03-.22-.06-.35-.06-.66,0-1.08.53-1.08,1.17s.41,1.17,1.08,1.17ZM201.6,17.53c.47,0,.72.39.72.88s-.24.88-.72.88-.72-.39-.72-.88.25-.88.72-.88Z"/>
      <rect class="cls-3" x="201.41" y="19.82" width=".35" height=".39"/>
      <path class="cls-3" d="M203.17,20.24h.35v-.98h0c.19.24.4.33.7.33.6,0,.97-.46.97-1.17s-.39-1.17-.96-1.17c-.32,0-.55.14-.72.37h0v-.32h-.35v2.95ZM204.21,17.54c.42,0,.63.38.63.88s-.21.88-.64.88c-.51,0-.71-.39-.71-.88s.22-.88.71-.88Z"/>
      <path class="cls-3" d="M206.53,19.11c0,.31.21.43.49.43.1,0,.2-.01.28-.03v-.3h-.01s-.12.03-.19.03c-.14,0-.22-.05-.22-.21v-1.45h.43v-.28h-.43v-.7h-.35v.7h-.32v.28h.32v1.53Z"/>
      <polygon class="cls-3" points="209.11 16.51 208.69 16.51 208.47 16.97 208.76 16.97 209.11 16.51"/>
      <path class="cls-3" d="M207.63,18.95c0,.42.33.62.76.62.38,0,.61-.18.74-.35h0c.03.23.15.33.38.33.09,0,.15-.02.19-.04v-.25h-.01c-.19.04-.24-.06-.24-.24v-1.06c0-.53-.35-.71-.82-.71-.59,0-.88.32-.89.76h.34c.01-.34.19-.49.56-.49.32,0,.5.14.5.39s-.22.27-.54.32c-.56.09-.97.19-.97.72ZM208.63,18.49c.19-.03.39-.09.51-.16v.38c0,.26-.21.6-.68.6-.23,0-.46-.06-.46-.36,0-.33.28-.39.63-.45Z"/>
      <path class="cls-3" d="M211,19.59c.56,0,.91-.31.95-.85h-.35c-.03.35-.25.55-.61.55-.47,0-.72-.39-.72-.88s.25-.88.72-.88c.34,0,.55.19.6.49h.35c-.08-.47-.43-.78-.95-.78-.66,0-1.08.53-1.08,1.17s.41,1.17,1.08,1.17Z"/>
      <path class="cls-3" d="M213.63,19.53h.39l.8-2.23h-.36l-.47,1.42c-.06.19-.15.47-.15.47h0s-.08-.27-.15-.47l-.46-1.42h-.37l.78,2.23Z"/>
      <path class="cls-3" d="M215,18.41c0,.65.41,1.17,1.08,1.17s1.07-.53,1.07-1.17c0-.37-.14-.71-.39-.93.16-.09.27-.28.27-.53h-.33c-.01.22-.11.33-.27.34-.11-.03-.22-.06-.35-.06-.66,0-1.08.53-1.08,1.17ZM216.08,17.53c.47,0,.72.39.72.88s-.24.88-.72.88-.72-.39-.72-.88.25-.88.72-.88Z"/>
      <polygon class="cls-3" points="215.88 16.97 216.17 16.97 216.53 16.51 216.1 16.51 215.88 16.97"/>
      <rect class="cls-3" x="217.65" y="16.57" width=".35" height=".39"/>
      <rect class="cls-3" x="217.65" y="17.29" width=".35" height="2.23"/>
      <rect class="cls-3" x="218.56" y="17.79" width=".42" height=".43"/>
      <rect class="cls-3" x="218.56" y="19.1" width=".42" height=".43"/>
      <rect class="cls-3" x="156.31" y="11.31" width=".26" height="8.65"/>
    </g>
  </g>
</svg>