<?xml version="1.0" encoding="utf-8"?>
<!-- Generator: Adobe Illustrator 28.2.0, SVG Export Plug-In . SVG Version: 6.00 Build 0)  -->
<svg version="1.1" id="Layer_2_00000151529057217115750340000017473070360104973719_"
	 xmlns="http://www.w3.org/2000/svg" xmlns:xlink="http://www.w3.org/1999/xlink" x="0px" y="0px" viewBox="0 0 313.2 50"
	 style="enable-background:new 0 0 313.2 50;" xml:space="preserve">
<style type="text/css">
	.st0{fill:#D12027;}
	.st1{fill:#FFFFFF;}
	.st2{fill:#38D430;}
</style>
<g id="Layer_1-2">
	<g>
		<rect x="313.2" y="14.3" class="st0" width="0" height="35.7"/>
		<g>
			<path class="st1" d="M281.5,35.7c0.3,0,0.5-0.2,0.5-0.5v-0.3c-0.1,0.1-0.3,0.1-0.5,0.2c-0.4,0.1-0.5,0.2-0.5,0.4
				C281.1,35.6,281.3,35.7,281.5,35.7z"/>
			<path class="st1" d="M291.1,34.5c0-8.1-6.5-14.6-14.6-14.6s-14.6,6.5-14.6,14.6s6.5,14.6,14.6,14.6S291.1,42.5,291.1,34.5z
				 M284.8,33.1v0.5h0c0.2-0.4,0.5-0.6,1-0.6c0.4,0,0.8,0.2,0.9,0.6h0c0.3-0.4,0.6-0.6,1.1-0.6c0.8,0,1.2,0.6,1.2,1.3v2.1h-1.2v-1.8
				c0-0.3-0.1-0.5-0.4-0.5s-0.5,0.3-0.5,0.6v1.8h-1.2v-1.8c0-0.3-0.1-0.5-0.4-0.5s-0.5,0.3-0.5,0.6v1.8h-1.2v-3.3L284.8,33.1
				L284.8,33.1z M270.2,32.7H269v-0.8h1.2V32.7z M270.2,36.4H269v-3.3h1.2V36.4z M276.4,33.1h1.2v0.5h0c0.3-0.4,0.6-0.6,1.1-0.6
				c0.8,0,1.2,0.5,1.2,1.3v2.1h-1.2v-1.8c0-0.3-0.1-0.6-0.5-0.6s-0.5,0.3-0.5,0.6v1.8h-1.2V33.1L276.4,33.1z M281.6,33
				c0.5,0,0.8,0.1,1.1,0.2c0.3,0.2,0.5,0.5,0.5,1v1.7c0,0.3,0,0.4,0.1,0.5v0h-1.2c0-0.1-0.1-0.2-0.1-0.4h0c-0.2,0.3-0.6,0.4-1,0.4
				c-0.6,0-1.1-0.3-1.1-1c0-0.7,0.6-0.9,1.2-1c0.7-0.1,0.9-0.2,0.9-0.4c0-0.2-0.1-0.3-0.4-0.3s-0.4,0.2-0.4,0.4h-1.2
				C280.1,33.5,280.6,33,281.6,33L281.6,33z M274.3,32h1.2v1.1h0.6v0.7h-0.6v1.3c0,0.3,0.2,0.3,0.6,0.3v0.9c-0.2,0-0.4,0.1-0.6,0.1
				c-0.8,0-1.2-0.2-1.2-1v-1.6h-0.4v-0.7h0.4L274.3,32L274.3,32z M272.1,33c0.5,0,0.9,0.2,1.2,0.4c0.4,0.4,0.6,1,0.6,1.6h-2.4
				c0.1,0.4,0.3,0.6,0.6,0.6c0.2,0,0.4-0.1,0.5-0.2h1.2c-0.1,0.3-0.3,0.6-0.6,0.8c-0.3,0.2-0.6,0.3-1,0.3c-1.1,0-1.8-0.7-1.8-1.7
				S271.1,33,272.1,33L272.1,33z M268.9,31.8l-1.5,4.6h-1.5l-1.5-4.6h1.4l0.6,2.2c0.1,0.4,0.2,0.9,0.2,0.9h0c0,0,0.1-0.5,0.2-0.9
				l0.6-2.2L268.9,31.8L268.9,31.8z"/>
			<path class="st1" d="M272.2,33.8c-0.3,0-0.5,0.2-0.6,0.6h1.1C272.7,34,272.5,33.8,272.2,33.8L272.2,33.8z"/>
			<path class="st1" d="M103,42.1c1.3,0,2.2-0.6,2.8-1.3h0.1v0.9c0,1.2-0.5,2-1.8,2c-1,0-1.5-0.5-1.7-1h-4c0.4,2.6,2.6,3.9,5.7,3.9
				c1.7,0,3.1-0.4,4.2-1.3c1-0.9,1.6-2.3,1.6-4.2V30.9H106v1.3H106c-0.6-1-1.6-1.6-3.2-1.6c-2.7,0-4.5,2.6-4.5,6
				C98.3,40.2,100.5,42.1,103,42.1L103,42.1z M104.2,33.7c1.2,0,1.9,1.2,1.9,2.6c0,1.5-0.7,2.7-1.9,2.7s-1.9-1.1-1.9-2.7
				S103,33.7,104.2,33.7z"/>
			<path class="st1" d="M97.9,34.4L97.9,34.4l0.1-3.6c-0.1-0.1-0.3-0.1-0.7-0.1c-1.4,0-2.5,0.6-3.4,2.3h-0.1v-2h-3.9v11.7H94v-4.9
				C94,35.1,95.5,34,97.9,34.4z"/>
			<path class="st1" d="M0,42.7h8.2c1.6,0,2.8-0.3,3.8-1c1.1-0.8,1.8-2.2,1.8-4c0-1.9-1-3.4-2.7-4v-0.1c1.3-0.6,1.9-1.6,1.9-3.2
				c0-1.4-0.5-2.5-1.4-3.2c-0.8-0.7-2-1-3.5-1H0V42.7z M4.5,29.8h2.8c0.9,0,1.5,0.5,1.5,1.4c0,0.9-0.6,1.4-1.5,1.4H4.5
				C4.5,32.7,4.5,29.8,4.5,29.8z M4.5,35.7h3.2c0.9,0,1.7,0.5,1.7,1.7S8.7,39,7.7,39H4.5C4.5,39,4.5,35.7,4.5,35.7z"/>
			<rect x="14.5" y="26.2" class="st1" width="4.2" height="16.5"/>
			<path class="st1" d="M25.7,43.1c3.7,0,6.1-2.5,6.1-6.2s-2.4-6.2-6.1-6.2s-6.1,2.5-6.1,6.2S22,43.1,25.7,43.1z M25.6,33.5
				c1.3,0,1.9,1.3,1.9,3.3s-0.6,3.4-1.9,3.4s-1.9-1.3-1.9-3.4S24.4,33.5,25.6,33.5z"/>
			<path class="st1" d="M44.4,36.8c0-3.7-2.4-6.2-6.1-6.2s-6.1,2.5-6.1,6.2s2.4,6.2,6.1,6.2S44.4,40.6,44.4,36.8z M38.3,33.5
				c1.3,0,1.9,1.3,1.9,3.3s-0.7,3.4-1.9,3.4s-1.9-1.3-1.9-3.4S37,33.5,38.3,33.5z"/>
			<path class="st1" d="M45.2,42.7h4.1v-6.4c0-1.3,0.5-2.2,1.5-2.2s1.4,0.8,1.4,2v6.6h4.1v-6.4c0-1.3,0.5-2.2,1.5-2.2s1.4,0.8,1.4,2
				v6.6h4.1v-7.4c0-2.7-1.2-4.7-3.9-4.7c-1.4,0-2.7,0.5-3.6,2h-0.1c-0.6-1.3-1.7-2-3.2-2c-1.7,0-2.8,0.7-3.5,2.1h-0.1V31h-3.9
				L45.2,42.7L45.2,42.7z"/>
			<path class="st1" d="M76.8,36.8c0-3.5-1.7-6.2-4.7-6.2c-1.5,0-2.6,0.5-3.3,1.6h-0.1v-5.9h-4.1v16.4h3.9v-1.5h0
				c0.7,1.3,2,1.9,3.3,1.9C74.9,43.1,76.8,40.8,76.8,36.8L76.8,36.8z M70.7,33.6c1.2,0,1.9,1.2,1.9,3.1s-0.7,3.1-1.9,3.1
				s-2.1-1.2-2.1-3.1S69.4,33.6,70.7,33.6z"/>
			<path class="st1" d="M83.4,43c2.9,0,5-1.3,5.7-4h-4c-0.3,0.8-0.9,1.1-1.6,1.1c-1.2,0-1.9-0.7-2.1-2.2h7.9c0-2.4-0.6-4.5-1.9-5.8
				c-1-1-2.4-1.5-4.1-1.5c-3.5,0-5.9,2.6-5.9,6.2S79.7,43,83.4,43L83.4,43z M83.3,33.4c1,0,1.8,0.7,1.8,2.2h-3.8
				C81.6,34.2,82.2,33.4,83.3,33.4z"/>
			<polygon class="st1" points="257.8,42.7 253.7,35.3 257.4,31 252.8,31 250.1,34.5 250.1,26.2 246,26.2 246,42.7 250.1,42.7 
				250.1,39.4 250.9,38.4 253.1,42.7 			"/>
			<path class="st1" d="M113.8,42.7h8.2c1.6,0,2.8-0.3,3.8-1c1.1-0.8,1.8-2.2,1.8-4c0-1.8-1-3.4-2.7-4v-0.1c1.3-0.6,1.9-1.6,1.9-3.2
				c0-1.4-0.5-2.5-1.4-3.2c-0.8-0.7-2-1-3.5-1h-8.1L113.8,42.7L113.8,42.7z M118.2,29.8h2.8c0.9,0,1.5,0.5,1.5,1.4
				c0,0.9-0.6,1.4-1.5,1.4h-2.8C118.2,32.7,118.2,29.8,118.2,29.8z M118.2,35.7h3.2c0.9,0,1.7,0.5,1.7,1.7s-0.7,1.7-1.7,1.7h-3.2
				C118.2,39,118.2,35.7,118.2,35.7z"/>
			<path class="st1" d="M128.2,38.5c0,2.7,1.3,4.5,4,4.5c1.5,0,2.6-0.7,3.5-1.9h0.1v1.5h3.9V30.9h-4.1v6.4c0,1.3-0.6,2.1-1.7,2.1
				c-1,0-1.5-0.5-1.5-1.9v-6.7h-4.1L128.2,38.5L128.2,38.5z"/>
			<path class="st1" d="M151.3,39.1c0-3.2-2.6-3.7-4.6-4c-1.3-0.2-2.3-0.3-2.3-1s0.6-0.9,1.2-0.9c0.7,0,1.3,0.2,1.4,1.1h3.9
				c-0.1-2.3-1.9-3.6-5.3-3.6c-2.7,0-5.1,1.4-5.1,3.8c0,3,2.2,3.6,4,3.8c1.4,0.2,2.7,0.3,2.7,1.3c0,0.8-0.6,1-1.4,1
				c-1.1,0-1.6-0.6-1.7-1.5h-3.8c0,2.7,2.2,4.1,5.5,4.1C148.9,43.1,151.3,41.9,151.3,39.1L151.3,39.1z"/>
			<rect x="151.9" y="31" class="st1" width="4.1" height="11.7"/>
			<rect x="151.9" y="26.7" class="st1" width="4.1" height="3.3"/>
			<path class="st1" d="M168.7,42.7v-7.6c0-2.7-1.3-4.5-3.9-4.5c-1.6,0-2.7,0.7-3.6,2h-0.1v-1.6h-3.9v11.7h4.1v-6.4
				c0-1.3,0.6-2.2,1.7-2.2s1.6,0.7,1.6,2v6.6L168.7,42.7L168.7,42.7z"/>
			<path class="st1" d="M175.5,43c2.9,0,5-1.3,5.7-4h-4c-0.3,0.8-0.9,1.1-1.6,1.1c-1.2,0-1.9-0.7-2.1-2.2h7.9c0-2.4-0.6-4.5-1.9-5.8
				c-1-1-2.4-1.5-4.1-1.5c-3.5,0-5.9,2.6-5.9,6.2S171.9,43,175.5,43L175.5,43z M175.4,33.4c1,0,1.8,0.7,1.8,2.2h-3.8
				C173.7,34.2,174.3,33.4,175.4,33.4z"/>
			<path class="st1" d="M181.8,39c0,2.7,2.2,4.1,5.5,4.1c3.1,0,5.5-1.2,5.5-4c0-3.2-2.6-3.7-4.6-4c-1.3-0.2-2.3-0.3-2.3-1
				s0.6-0.9,1.2-0.9c0.7,0,1.3,0.2,1.4,1.1h3.9c-0.1-2.3-1.9-3.6-5.3-3.6c-2.7,0-5.1,1.4-5.1,3.8c0,3,2.2,3.6,4,3.8
				c1.4,0.2,2.7,0.3,2.7,1.3c0,0.8-0.6,1-1.4,1c-1.1,0-1.6-0.6-1.7-1.5L181.8,39L181.8,39z"/>
			<path class="st1" d="M198.7,43.1c3.1,0,5.5-1.2,5.5-4c0-3.2-2.6-3.7-4.6-4c-1.3-0.2-2.3-0.3-2.3-1s0.6-0.9,1.2-0.9
				c0.7,0,1.3,0.2,1.4,1.1h3.9c-0.1-2.3-1.9-3.6-5.3-3.6c-2.7,0-5.1,1.4-5.1,3.8c0,3,2.2,3.6,4,3.8c1.4,0.2,2.7,0.3,2.7,1.3
				c0,0.8-0.6,1-1.4,1c-1.1,0-1.6-0.6-1.7-1.5h-3.8C193.2,41.7,195.4,43.1,198.7,43.1L198.7,43.1z"/>
			<polygon class="st1" points="218.1,42.7 221.6,31 217.5,31 215.9,37.4 215.9,37.4 214.4,31 210.8,31 209.3,37.4 209.2,37.4 
				207.6,31 203.4,31 207,42.7 210.9,42.7 212.5,35.8 212.5,35.8 214.1,42.7 			"/>
			<path class="st1" d="M227,43c2.9,0,5-1.3,5.7-4h-4c-0.3,0.8-0.9,1.1-1.6,1.1c-1.2,0-1.9-0.7-2.1-2.2h7.9c0-2.4-0.6-4.5-1.9-5.8
				c-1-1-2.4-1.5-4.1-1.5c-3.5,0-5.9,2.6-5.9,6.2S223.4,43,227,43L227,43z M226.9,33.4c1,0,1.8,0.7,1.8,2.2H225
				C225.2,34.2,225.8,33.4,226.9,33.4z"/>
			<path class="st1" d="M239.5,43c2.9,0,5-1.3,5.7-4h-4c-0.3,0.8-0.9,1.1-1.6,1.1c-1.2,0-1.9-0.7-2.1-2.2h7.9c0-2.4-0.6-4.5-1.9-5.8
				c-1-1-2.4-1.5-4.1-1.5c-3.5,0-5.9,2.6-5.9,6.2S235.8,43,239.5,43L239.5,43z M239.4,33.4c1,0,1.8,0.7,1.8,2.2h-3.8
				C237.6,34.2,238.3,33.4,239.4,33.4z"/>
		</g>
		<g>
			<path class="st2" d="M4.8,19.9v-5h3.6c3.3,0,5.7-2.4,5.7-5.6c0-1.8-0.7-3.3-1.8-4.4c-1.1-1-2.6-1.5-4.7-1.5H0v16.5H4.8z M4.8,7.4
				h2.6c1.2,0,2,0.7,2,1.8s-0.7,1.9-1.9,1.9H4.8L4.8,7.4L4.8,7.4z"/>
			<path class="st2" d="M14.6,19.9h4.4v-6.3c0-1.3,0.7-2.2,1.8-2.2s1.6,0.8,1.6,2v6.6h4.4v-7.6c0-2.7-1.4-4.5-4.1-4.5
				c-1.6,0-2.7,0.7-3.6,1.7h-0.1V3.4h-4.4L14.6,19.9L14.6,19.9z"/>
			<polygon class="st2" points="37.2,3.5 33,3.5 31.5,6.7 34.5,6.7 			"/>
			<path class="st2" d="M33.2,10.6c1,0,1.2,0.5,1.2,1.1c0,0.7-0.7,1-3.2,1.3C29,13.2,27,14,27,16.6c0,2.3,1.7,3.5,3.9,3.5
				c1.5,0,2.8-0.5,3.6-1.6h0c0.1,0.6,0.2,1,0.4,1.3h4.3v-0.2c-0.4-0.2-0.4-0.8-0.4-1.8V12c0-1.6-0.6-2.8-1.8-3.5
				c-0.9-0.6-2-0.8-3.8-0.8c-3.7,0-5.5,1.9-5.6,4.2h4.1C31.8,11.1,32.2,10.6,33.2,10.6L33.2,10.6z M32.5,17.6
				c-0.7,0-1.4-0.4-1.4-1.1c0-0.7,0.4-1.1,1.7-1.3c0.7-0.2,1.3-0.4,1.7-0.6v1C34.5,17,33.6,17.6,32.5,17.6z"/>
			<path class="st2" d="M38.7,10.7h1.5v5.7c0,2.8,1.5,3.6,4.3,3.6c0.8,0,1.5-0.1,2.1-0.3v-3.2c-1.4,0.1-2.2,0.1-2.2-1.1v-4.8h2.2
				V8.1h-2.2V4.3h-4.3v3.8h-1.5L38.7,10.7L38.7,10.7z"/>
			<path class="st2" d="M50.3,16.5c0,2.8,1.5,3.6,4.3,3.6c0.8,0,1.5-0.1,2.1-0.3v-3.2c-1.4,0.1-2.2,0.1-2.2-1.1v-4.8h2.2V8.1h-2.2
				V4.3h-4.3v3.8h-1.5v2.6h1.5L50.3,16.5L50.3,16.5z"/>
			<path class="st2" d="M57.4,19.9h4.4V15c0-2.6,1.5-3.8,4.1-3.4h0.1V8c-0.1-0.1-0.4-0.1-0.7-0.1c-1.5,0-2.6,0.6-3.6,2h-0.1V8.1
				h-4.2L57.4,19.9L57.4,19.9z"/>
			<rect x="66.8" y="3.7" class="st2" width="4.4" height="2.9"/>
			<rect x="66.8" y="8.1" class="st2" width="4.4" height="11.8"/>
			<polygon class="st2" points="77.9,5.7 78.9,6.9 82.3,6.9 79.8,3.7 76,3.7 73.5,6.9 76.9,6.9 			"/>
			<path class="st2" d="M81.9,2.7c0,0.4-0.2,1-1.1,1.6h2.3c0.7-0.4,1.4-1.3,1.4-2.3c0-1.2-0.9-1.9-2.7-1.9c-0.7,0-1.3,0.1-1.6,0.2
				v1.9C80.4,2,80.7,1.9,81,1.9C81.7,1.9,81.9,2.3,81.9,2.7L81.9,2.7z"/>
			<path class="st2" d="M78,20.2c1.5,0,2.7-0.3,3.8-1c1.2-0.7,2-1.8,2.2-2.8h-4.2c-0.3,0.6-0.9,0.9-1.6,0.9c-1.3,0-2.1-0.8-2.3-2.2
				h8.4c0.1-2.3-0.6-4.4-2.1-5.7c-1.1-1-2.5-1.6-4.3-1.6c-3.7,0-6.3,2.7-6.3,6.2S74.1,20.2,78,20.2L78,20.2z M77.9,10.6
				c1,0,1.8,0.8,2,2.1h-4.1C76,11.4,76.7,10.6,77.9,10.6z"/>
			<path class="st2" d="M84.9,19.9h4.4v-6.3c0-1.3,0.7-2.2,1.8-2.2s1.6,0.8,1.6,2v6.6h4.4v-7.6c0-2.7-1.4-4.5-4.1-4.5
				c-1.6,0-2.8,0.7-3.8,2h-0.1V8.1h-4.2L84.9,19.9L84.9,19.9z"/>
			<polygon class="st2" points="104.9,11.2 99.3,19.9 104.7,19.9 107.7,14.7 107.7,14.7 110.6,19.9 116.3,19.9 110.8,11.1 
				115.8,3.4 110.5,3.4 107.9,7.8 107.9,7.8 105.3,3.4 99.8,3.4 			"/>
			<path class="st2" d="M122.9,18.6L122.9,18.6c0.1,0.6,0.3,1,0.4,1.3h4.3v-0.2c-0.4-0.2-0.4-0.8-0.4-1.8v-5.9
				c0-1.6-0.6-2.8-1.8-3.5c-0.9-0.6-2.1-0.8-3.8-0.8c-3.7,0-5.5,1.9-5.6,4.2h4.1c0.1-0.9,0.6-1.4,1.6-1.4s1.2,0.5,1.2,1.1
				c0,0.7-0.7,1-3.2,1.3c-2.3,0.2-4.3,1-4.3,3.6c0,2.3,1.7,3.5,3.9,3.5C120.8,20.2,122.1,19.7,122.9,18.6L122.9,18.6z M121.2,15.1
				c0.7-0.2,1.3-0.4,1.7-0.6v1c0,1.4-1,2-2,2c-0.7,0-1.4-0.4-1.4-1.1C119.6,15.8,120,15.4,121.2,15.1z"/>
			<path class="st2" d="M128.1,19.9h4.4v-6.3c0-1.3,0.7-2.2,1.8-2.2s1.6,0.8,1.6,2v6.6h4.4v-7.6c0-2.7-1.4-4.5-4.1-4.5
				c-1.6,0-2.8,0.7-3.8,2h-0.1V8.1h-4.1L128.1,19.9L128.1,19.9z"/>
			<path class="st2" d="M141.1,19.9h4.4v-6.3c0-1.3,0.7-2.2,1.8-2.2s1.6,0.8,1.6,2v6.6h4.4v-7.6c0-2.7-1.4-4.5-4.1-4.5
				c-1.6,0-2.7,0.7-3.6,1.7h-0.1V3.4h-4.4L141.1,19.9L141.1,19.9z"/>
			<polygon class="st1" points="160.1,11.4 160.4,11.6 160.7,11.6 160.3,11.2 160,11.2 159.6,11.6 159.9,11.6 			"/>
			<path class="st1" d="M159.9,11.9l-1.1,3.1h0.4l0.3-0.9h1.2l0.3,0.9h0.4l-1.1-3.1H159.9L159.9,11.9z M160.1,12.2L160.1,12.2
				c0,0,0.1,0.3,0.1,0.4l0.4,1h-1l0.4-1C160.1,12.5,160.1,12.2,160.1,12.2L160.1,12.2z"/>
			<polygon class="st1" points="160.9,11.3 161.2,10.8 160.8,10.8 160.6,11.3 			"/>
			<path class="st1" d="M161.8,14.9h0.4v-1.4c0-0.4,0.3-0.6,0.6-0.6c0.3,0,0.5,0.2,0.5,0.4v1.5h0.4v-1.6c0-0.5-0.3-0.7-0.7-0.7
				c-0.3,0-0.5,0.1-0.7,0.3l0,0v-0.3h-0.4L161.8,14.9L161.8,14.9z"/>
			<path class="st1" d="M164.7,15.6h0.4v-1l0,0c0.2,0.2,0.4,0.3,0.7,0.3c0.6,0,1-0.4,1-1.2s-0.4-1.2-0.9-1.2c-0.3,0-0.5,0.1-0.7,0.4
				l0,0v-0.3h-0.4C164.7,12.7,164.7,15.6,164.7,15.6z M165.8,13c0.4,0,0.6,0.4,0.6,0.9s-0.2,0.9-0.6,0.9c-0.5,0-0.7-0.4-0.7-0.9
				S165.3,13,165.8,13L165.8,13z"/>
			<path class="st1" d="M167.1,14.9h0.4v-1.4c0-0.4,0.3-0.6,0.6-0.6c0.3,0,0.5,0.2,0.5,0.4v1.5h0.4v-1.6c0-0.5-0.3-0.7-0.7-0.7
				c-0.3,0-0.5,0.1-0.7,0.3l0,0v-1.1h-0.4L167.1,14.9L167.1,14.9z"/>
			<path class="st1" d="M171,12.1c0.1-0.1,0.2-0.2,0.2-0.3c0-0.2-0.1-0.3-0.4-0.3c-0.1,0-0.1,0-0.2,0v0.2c0,0,0.1,0,0.1,0
				c0.1,0,0.1,0,0.1,0.1c0,0.1-0.1,0.2-0.2,0.3L171,12.1L171,12.1z"/>
			<polygon class="st1" points="170.1,12.4 170.3,12.2 170.5,12.4 170.9,12.4 170.5,12 170.1,12 169.7,12.4 			"/>
			<path class="st1" d="M169.8,13.4c0-0.3,0.2-0.5,0.6-0.5c0.3,0,0.5,0.1,0.5,0.4s-0.2,0.3-0.5,0.3c-0.6,0.1-1,0.2-1,0.7
				c0,0.4,0.3,0.6,0.8,0.6c0.4,0,0.6-0.2,0.7-0.4l0,0c0,0.2,0.1,0.3,0.4,0.3c0.1,0,0.1,0,0.2,0v-0.2h0c-0.2,0-0.2-0.1-0.2-0.2v-1.1
				c0-0.5-0.4-0.7-0.8-0.7c-0.6,0-0.9,0.3-0.9,0.8L169.8,13.4L169.8,13.4z M170.1,14.7c-0.2,0-0.5-0.1-0.5-0.4
				c0-0.3,0.3-0.4,0.6-0.4c0.2,0,0.4-0.1,0.5-0.2v0.4C170.8,14.4,170.6,14.7,170.1,14.7L170.1,14.7z"/>
			<path class="st1" d="M171.7,14.9h0.4v-1.4c0-0.4,0.3-0.6,0.6-0.6c0.2,0,0.4,0.2,0.4,0.4v1.5h0.4v-1.4c0-0.4,0.3-0.6,0.5-0.6
				c0.2,0,0.4,0.2,0.4,0.4v1.5h0.4v-1.6c0-0.5-0.3-0.7-0.7-0.7c-0.3,0-0.5,0.1-0.7,0.4l0,0c-0.1-0.3-0.3-0.4-0.6-0.4
				s-0.5,0.1-0.6,0.4l0,0v-0.3h-0.4L171.7,14.9L171.7,14.9z"/>
			<path class="st1" d="M176.7,15c0.6,0,0.9-0.3,0.9-0.8h-0.3c0,0.3-0.2,0.6-0.6,0.6c-0.5,0-0.7-0.4-0.7-0.9s0.2-0.9,0.7-0.9
				c0.3,0,0.5,0.2,0.6,0.5h0.4c-0.1-0.5-0.4-0.8-0.9-0.8c-0.7,0-1.1,0.5-1.1,1.2S176.1,15,176.7,15L176.7,15z"/>
			<path class="st1" d="M179,12.1c0,0.1-0.1,0.2-0.2,0.3h0.2c0.1-0.1,0.2-0.2,0.2-0.3c0-0.2-0.1-0.3-0.4-0.3c-0.1,0-0.1,0-0.2,0V12
				c0,0,0.1,0,0.1,0C178.9,12,179,12,179,12.1L179,12.1z"/>
			<path class="st1" d="M178.8,15c0.3,0,0.5-0.1,0.7-0.4l0,0v0.3h0.4v-2.2h-0.4v1.4c0,0.4-0.2,0.6-0.6,0.6c-0.3,0-0.5-0.2-0.5-0.4
				v-1.5H178v1.5C178,14.7,178.3,15,178.8,15L178.8,15z"/>
			<path class="st1" d="M180.7,13.4c0-0.3,0.2-0.5,0.6-0.5c0.3,0,0.5,0.1,0.5,0.4s-0.2,0.3-0.5,0.3c-0.6,0.1-1,0.2-1,0.7
				c0,0.4,0.3,0.6,0.8,0.6c0.4,0,0.6-0.2,0.7-0.4l0,0c0,0.2,0.1,0.3,0.4,0.3c0.1,0,0.1,0,0.2,0v-0.2h0c-0.2,0-0.2-0.1-0.2-0.2v-1.1
				c0-0.5-0.4-0.7-0.8-0.7c-0.6,0-0.9,0.3-0.9,0.8L180.7,13.4L180.7,13.4z M181,14.7c-0.2,0-0.5-0.1-0.5-0.4c0-0.3,0.3-0.4,0.6-0.4
				c0.2,0,0.4-0.1,0.5-0.2v0.4C181.7,14.4,181.5,14.7,181,14.7L181,14.7z"/>
			<path class="st1" d="M183.2,14.9h1.3c0.3,0,0.5-0.1,0.7-0.2s0.2-0.3,0.2-0.6c0-0.3-0.2-0.6-0.5-0.7l0,0c0.3-0.1,0.4-0.3,0.4-0.6
				c0-0.2-0.1-0.4-0.2-0.5c-0.1-0.1-0.4-0.2-0.7-0.2h-1.2V14.9L183.2,14.9z M183.7,12.6h0.6c0.2,0,0.4,0.1,0.4,0.3
				c0,0.2-0.2,0.3-0.4,0.3h-0.6L183.7,12.6L183.7,12.6z M184.4,13.7c0.3,0,0.4,0.1,0.4,0.4c0,0.2-0.2,0.4-0.4,0.4h-0.6v-0.8
				L184.4,13.7L184.4,13.7z"/>
			<path class="st1" d="M185.6,14.9h0.6l0.2-0.6h1l0.2,0.6h0.6l-1-2.8h-0.6L185.6,14.9z M186.8,12.7L186.8,12.7c0,0,0.1,0.3,0.1,0.4
				l0.2,0.8h-0.7l0.2-0.8C186.7,13,186.8,12.7,186.8,12.7z"/>
			<polygon class="st1" points="187,11.9 187.3,11.5 186.8,11.5 186.6,11.9 			"/>
			<path class="st1" d="M189.5,15c0.8,0,1.3-0.6,1.3-1.4s-0.5-1.4-1.3-1.4s-1.3,0.6-1.3,1.4S188.7,15,189.5,15z M189.6,12.6
				c0.5,0,0.8,0.4,0.8,1s-0.2,1-0.8,1s-0.8-0.4-0.8-1S189,12.6,189.6,12.6z"/>
			<polygon class="st1" points="192.4,14.9 193,14.9 193,12.6 193.8,12.6 193.8,12.1 191.6,12.1 191.6,12.6 192.4,12.6 			"/>
			<path class="st1" d="M194.7,12.1l-1,2.8h0.6l0.2-0.6h1l0.2,0.6h0.6l-1-2.8H194.7z M195,12.7L195,12.7c0,0,0.1,0.3,0.1,0.4
				l0.2,0.8h-0.7l0.2-0.8C194.9,13,195,12.7,195,12.7z"/>
			<polygon class="st1" points="195.2,11.9 195,11.5 194.5,11.5 194.8,11.9 			"/>
			<rect x="196.6" y="12.1" class="st1" width="0.6" height="2.8"/>
			<path class="st1" d="M198.2,14.9h0.6v-1.4c0-0.2,0-0.5,0-0.5l0,0c0,0,0.1,0.2,0.2,0.4l0.9,1.5h0.5v-2.8h-0.6v1.4
				c0,0.2,0,0.5,0,0.5l0,0c0,0-0.1-0.2-0.2-0.4l-0.9-1.5h-0.6L198.2,14.9L198.2,14.9z"/>
			<path class="st1" d="M201.2,14.6c0.2,0.2,0.6,0.4,1,0.4c0.3,0,0.6-0.1,0.8-0.4l0,0l0,0.4h0.4v-1.5h-1.2v0.4h0.7
				c0,0.3-0.3,0.6-0.7,0.6c-0.5,0-0.8-0.4-0.8-1s0.3-1,0.8-1c0.4,0,0.6,0.2,0.6,0.5h0.6c-0.1-0.5-0.5-0.9-1.2-0.9
				c-0.4,0-0.7,0.1-0.9,0.3c-0.3,0.3-0.4,0.7-0.4,1.1C200.9,14,201,14.3,201.2,14.6L201.2,14.6z"/>
			<path class="st1" d="M205,15c0.7,0,1.1-0.3,1.1-0.9v-1.9h-0.6V14c0,0.3-0.2,0.5-0.5,0.5c-0.4,0-0.5-0.2-0.5-0.5v-1.9h-0.6V14
				C203.9,14.6,204.3,15,205,15z"/>
			<path class="st1" d="M207.8,13c-0.1,0.2-0.2,0.4-0.2,0.4l0,0c0,0-0.1-0.2-0.2-0.4l-0.4-0.8h-0.6l0.9,1.7v1.1h0.6v-1.1l0.9-1.7
				h-0.6L207.8,13z"/>
			<polygon class="st1" points="209.2,12.1 209.2,14.9 211.2,14.9 211.2,14.4 209.7,14.4 209.7,13.7 211,13.7 211,13.2 209.7,13.2 
				209.7,12.6 211.2,12.6 211.2,12.1 			"/>
			<polygon class="st1" points="210.1,11.7 210.3,11.9 210.8,11.9 210.4,11.5 209.9,11.5 209.5,11.9 210,11.9 			"/>
			<path class="st1" d="M211.7,14.9h0.6v-1.4c0-0.2,0-0.5,0-0.5l0,0c0,0,0.1,0.2,0.2,0.4l0.9,1.5h0.5v-2.8h-0.6v1.4
				c0,0.2,0,0.5,0,0.5l0,0c0,0-0.1-0.2-0.2-0.4l-0.9-1.5h-0.6L211.7,14.9L211.7,14.9z"/>
			<path class="st1" d="M215.6,14.9h0.5l0.9-2.8h-0.6l-0.5,1.6c-0.1,0.2-0.1,0.4-0.1,0.4l0,0c0,0-0.1-0.3-0.1-0.4l-0.5-1.6h-0.6
				L215.6,14.9L215.6,14.9z"/>
			<polygon class="st1" points="218.5,11.9 218.3,11.5 217.8,11.5 218.1,11.9 			"/>
			<path class="st1" d="M218,12.1l-1,2.8h0.6l0.2-0.6h1l0.2,0.6h0.6l-1-2.8H218z M218.3,12.7L218.3,12.7c0,0,0.1,0.3,0.1,0.4
				l0.2,0.8h-0.7l0.2-0.8C218.2,13,218.3,12.7,218.3,12.7z"/>
			<path class="st1" d="M220.4,14.9h0.5v-1.6c0-0.2,0-0.6,0-0.6l0,0c0,0,0.1,0.3,0.1,0.5l0.5,1.6h0.5l0.5-1.6
				c0.1-0.2,0.1-0.5,0.1-0.5l0,0c0,0,0,0.4,0,0.6v1.6h0.5v-2.8h-0.8l-0.4,1.4c-0.1,0.4-0.2,0.8-0.2,0.8l0,0c0,0-0.1-0.4-0.2-0.8
				l-0.4-1.4h-0.8L220.4,14.9L220.4,14.9z"/>
			<path class="st1" d="M224.9,15c0.8,0,1.3-0.6,1.3-1.4s-0.5-1.4-1.3-1.4s-1.3,0.6-1.3,1.4S224.1,15,224.9,15z M224.9,12.6
				c0.5,0,0.8,0.4,0.8,1s-0.2,1-0.8,1s-0.8-0.4-0.8-1S224.4,12.6,224.9,12.6z"/>
			<polygon class="st1" points="224.6,11.5 224.3,11.9 224.7,11.9 224.9,11.7 225.1,11.9 225.5,11.9 225.1,11.5 			"/>
			<rect x="226.7" y="12.1" class="st1" width="0.6" height="2.8"/>
			<polygon class="st1" points="228.9,14.9 229.5,14.9 229.5,12.6 230.3,12.6 230.3,12.1 228.1,12.1 228.1,12.6 228.9,12.6 			"/>
			<path class="st1" d="M230.7,14.9h0.6v-1.1h0.5l0.6,1.1h0.6l-0.7-1.1c0.4-0.1,0.6-0.4,0.6-0.8c0-0.2-0.1-0.4-0.2-0.6
				c-0.2-0.2-0.4-0.3-0.7-0.3h-1.2V14.9L230.7,14.9z M231.3,12.6h0.6c0.3,0,0.4,0.1,0.4,0.4s-0.1,0.4-0.4,0.4h-0.6V12.6z"/>
			<path class="st1" d="M234.4,15c0.7,0,1.1-0.3,1.1-0.9v-1.7c0.1-0.1,0.3-0.3,0.3-0.5h-0.5c0,0.2-0.1,0.3-0.3,0.3h-0.1V14
				c0,0.3-0.2,0.5-0.5,0.5c-0.4,0-0.5-0.2-0.5-0.5v-1.9h-0.6V14C233.3,14.6,233.7,15,234.4,15L234.4,15z"/>
			<path class="st1" d="M235.9,13.5c0,0.8,0.5,1.4,1.3,1.4s1.3-0.6,1.3-1.4c0-0.5-0.2-0.9-0.5-1.2c0.2-0.1,0.3-0.3,0.3-0.5h-0.5
				c0,0.2-0.1,0.3-0.3,0.3c-0.1,0-0.3-0.1-0.4-0.1C236.4,12.1,235.9,12.7,235.9,13.5z M237.2,12.6c0.5,0,0.8,0.4,0.8,1s-0.2,1-0.8,1
				s-0.8-0.4-0.8-1S236.7,12.6,237.2,12.6z"/>
			<polygon class="st1" points="237,11.9 237.4,11.9 237.2,11.5 236.6,11.5 			"/>
			<path class="st1" d="M239,14.9h0.6v-1.4c0-0.2,0-0.5,0-0.5l0,0c0,0,0.1,0.2,0.2,0.4l0.9,1.5h0.5v-2.8h-0.6v1.4c0,0.2,0,0.5,0,0.5
				l0,0c0,0-0.1-0.2-0.2-0.4l-0.9-1.5H239L239,14.9L239,14.9z"/>
			<path class="st1" d="M242,14.6c0.2,0.2,0.6,0.4,1,0.4c0.3,0,0.6-0.1,0.8-0.4l0,0l0,0.4h0.4v-1.5H243v0.4h0.7
				c0,0.3-0.3,0.6-0.7,0.6c-0.5,0-0.8-0.4-0.8-1s0.3-1,0.8-1c0.4,0,0.6,0.2,0.6,0.5h0.6c-0.1-0.5-0.5-0.9-1.2-0.9
				c-0.4,0-0.7,0.1-0.9,0.3c-0.3,0.3-0.4,0.7-0.4,1.1C241.6,14,241.8,14.3,242,14.6L242,14.6z"/>
			<path class="st1" d="M160.4,19.6c0.4,0,0.7-0.1,0.9-0.3c0.2-0.2,0.4-0.6,0.4-0.9h-0.4c0,0.5-0.3,0.9-0.9,0.9
				c-0.6,0-1.1-0.5-1.1-1.3s0.4-1.3,1.1-1.3c0.5,0,0.8,0.3,0.9,0.6h0.4c-0.1-0.6-0.5-1-1.2-1c-0.9,0-1.5,0.7-1.5,1.6
				S159.5,19.6,160.4,19.6L160.4,19.6z"/>
			<path class="st1" d="M163.1,19.6c0.7,0,1.1-0.5,1.1-1.2s-0.4-1.2-1.1-1.2s-1.1,0.5-1.1,1.2S162.5,19.6,163.1,19.6z M163.1,17.5
				c0.5,0,0.7,0.4,0.7,0.9s-0.2,0.9-0.7,0.9s-0.7-0.4-0.7-0.9S162.7,17.5,163.1,17.5z"/>
			<polygon class="st1" points="163.2,16.5 162.9,17 163.2,17 163.6,16.5 			"/>
			<path class="st1" d="M165.4,19.5h0.4v-1.4c0-0.4,0.3-0.6,0.6-0.6c0.3,0,0.5,0.2,0.5,0.5v1.5h0.4V18c0-0.5-0.3-0.7-0.8-0.7
				c-0.3,0-0.6,0.1-0.7,0.3l0,0v-0.3h-0.4V19.5L165.4,19.5z"/>
			<path class="st1" d="M168.7,19.6c0.7,0,1.1-0.5,1.1-1.2s-0.4-1.2-1.1-1.2s-1.1,0.5-1.1,1.2S168.1,19.6,168.7,19.6z M168.7,17.5
				c0.5,0,0.7,0.4,0.7,0.9s-0.2,0.9-0.7,0.9s-0.7-0.4-0.7-0.9S168.3,17.5,168.7,17.5z"/>
			<rect x="168.5" y="19.8" class="st1" width="0.4" height="0.4"/>
			<polygon class="st1" points="168.9,16.6 168.5,16.6 168.1,17 168.5,17 168.7,16.7 168.9,17 169.3,17 			"/>
			<rect x="170.3" y="16.6" class="st1" width="0.4" height="0.4"/>
			<rect x="170.3" y="17.3" class="st1" width="0.4" height="2.2"/>
			<path class="st1" d="M172.8,19.6c0.3,0,0.5-0.1,0.7-0.3l0,0v0.3h0.4v-3.1h-0.4v1.2l0,0c-0.1-0.2-0.4-0.4-0.7-0.4
				c-0.6,0-1,0.4-1,1.2S172.2,19.6,172.8,19.6L172.8,19.6z M172.8,17.5c0.5,0,0.7,0.4,0.7,0.9s-0.2,0.9-0.7,0.9
				c-0.4,0-0.6-0.4-0.6-0.9S172.4,17.5,172.8,17.5z"/>
			<path class="st1" d="M174.4,18.8c0,0.5,0.3,0.7,0.8,0.7c0.3,0,0.5-0.1,0.7-0.4l0,0v0.3h0.4v-2.2h-0.4v1.4c0,0.4-0.2,0.6-0.6,0.6
				c-0.3,0-0.5-0.2-0.5-0.5v-1.5h-0.4L174.4,18.8L174.4,18.8z"/>
			<path class="st1" d="M176.8,19.5h0.4v-1.4c0-0.4,0.3-0.6,0.6-0.6c0.3,0,0.5,0.2,0.5,0.5v1.5h0.4V18c0-0.5-0.3-0.7-0.8-0.7
				c-0.3,0-0.6,0.1-0.7,0.3l0,0v-0.3h-0.4V19.5L176.8,19.5z"/>
			<path class="st1" d="M179,18.3c0,0.6,0.4,1.1,1,1.1c0.3,0,0.5-0.1,0.7-0.4l0,0v0.3c0,0.4-0.2,0.6-0.6,0.6c-0.4,0-0.6-0.1-0.6-0.3
				h-0.3c0,0.4,0.4,0.6,0.9,0.6s1-0.3,1-0.9v-2.1h-0.4v0.3l0,0c-0.1-0.2-0.4-0.3-0.7-0.3C179.5,17.2,179,17.6,179,18.3L179,18.3z
				 M180,17.5c0.5,0,0.7,0.3,0.7,0.8s-0.2,0.8-0.7,0.8c-0.4,0-0.6-0.3-0.6-0.8S179.6,17.5,180,17.5z"/>
			<path class="st1" d="M182.1,17.6h0.3v1.5c0,0.3,0.2,0.4,0.5,0.4c0.1,0,0.2,0,0.3,0v-0.3h0c0,0-0.1,0-0.2,0c-0.1,0-0.2,0-0.2-0.2
				v-1.5h0.4v-0.3h-0.4v-0.7h-0.4v0.7h-0.3C182.1,17.3,182.1,17.6,182.1,17.6z"/>
			<path class="st1" d="M183.7,19.5h0.4v-1.2c0-0.4,0.3-0.7,0.6-0.7c0.1,0,0.1,0,0.2,0h0v-0.3c0,0-0.1,0-0.1,0
				c-0.3,0-0.5,0.2-0.7,0.4l0,0v-0.4h-0.4L183.7,19.5L183.7,19.5z"/>
			<path class="st1" d="M185.1,19c0,0.4,0.3,0.6,0.8,0.6c0.4,0,0.6-0.2,0.7-0.4l0,0c0,0.2,0.1,0.3,0.4,0.3c0.1,0,0.1,0,0.2,0v-0.2h0
				c-0.2,0-0.2-0.1-0.2-0.2V18c0-0.5-0.4-0.7-0.8-0.7c-0.6,0-0.9,0.3-0.9,0.8h0.3c0-0.3,0.2-0.5,0.6-0.5c0.3,0,0.5,0.1,0.5,0.4
				s-0.2,0.3-0.5,0.3C185.5,18.3,185.1,18.4,185.1,19z M186.1,18.5c0.2,0,0.4-0.1,0.5-0.2v0.4c0,0.3-0.2,0.6-0.7,0.6
				c-0.2,0-0.5-0.1-0.5-0.4C185.4,18.6,185.7,18.6,186.1,18.5L186.1,18.5z"/>
			<path class="st1" d="M188.4,19.6c0.7,0,1.1-0.5,1.1-1.2s-0.4-1.2-1.1-1.2s-1.1,0.5-1.1,1.2S187.8,19.6,188.4,19.6z M188.4,17.5
				c0.5,0,0.7,0.4,0.7,0.9s-0.2,0.9-0.7,0.9s-0.7-0.4-0.7-0.9S188,17.5,188.4,17.5z"/>
			<path class="st1" d="M191.5,19.6c0.3,0,0.5-0.1,0.7-0.3l0,0v0.3h0.4V17h0.3v-0.3h-0.3v-0.3h-0.4v0.3h-0.6V17h0.6v0.6l0,0
				c-0.1-0.2-0.4-0.4-0.7-0.4c-0.6,0-1,0.4-1,1.2S190.9,19.6,191.5,19.6L191.5,19.6z M191.5,17.5c0.5,0,0.7,0.4,0.7,0.9
				s-0.2,0.9-0.7,0.9c-0.4,0-0.6-0.4-0.6-0.9S191.1,17.5,191.5,17.5z"/>
			<path class="st1" d="M194.1,19.6c0.7,0,1.1-0.5,1.1-1.2s-0.4-1.2-1.1-1.2s-1.1,0.5-1.1,1.2S193.4,19.6,194.1,19.6z M194.1,17.5
				c0.5,0,0.7,0.4,0.7,0.9s-0.2,0.9-0.7,0.9s-0.7-0.4-0.7-0.9S193.6,17.5,194.1,17.5z"/>
			<polygon class="st1" points="194.1,16.7 194.3,17 194.7,17 194.3,16.6 193.9,16.6 193.5,17 193.9,17 			"/>
			<path class="st1" d="M194.6,16c-0.1,0-0.1,0-0.2,0v0.2c0,0,0.1,0,0.1,0c0.1,0,0.1,0,0.1,0.1c0,0.1-0.1,0.2-0.2,0.3h0.2
				c0.1-0.1,0.2-0.2,0.2-0.3C195,16.1,194.8,16,194.6,16L194.6,16z"/>
			<rect x="195.7" y="17.3" class="st1" width="0.4" height="2.2"/>
			<rect x="195.7" y="16.6" class="st1" width="0.4" height="0.4"/>
			<path class="st1" d="M196.6,19.5h0.2c0,0.2-0.1,0.3-0.2,0.4v0.2c0.2,0,0.4-0.2,0.4-0.5v-0.4h-0.4V19.5z"/>
			<path class="st1" d="M198.2,19.5h0.4v-1.4c0-0.4,0.3-0.6,0.6-0.6c0.3,0,0.5,0.2,0.5,0.5v1.5h0.4V18c0-0.5-0.3-0.7-0.8-0.7
				c-0.3,0-0.6,0.1-0.7,0.3l0,0v-1.1h-0.4V19.5L198.2,19.5z"/>
			<path class="st1" d="M201.6,19.6c0.7,0,1.1-0.5,1.1-1.2c0-0.4-0.1-0.7-0.4-0.9c0.2-0.1,0.3-0.3,0.3-0.5h-0.3
				c0,0.2-0.1,0.3-0.3,0.3c-0.1,0-0.2-0.1-0.4-0.1c-0.7,0-1.1,0.5-1.1,1.2S200.9,19.6,201.6,19.6L201.6,19.6z M201.6,17.5
				c0.5,0,0.7,0.4,0.7,0.9s-0.2,0.9-0.7,0.9s-0.7-0.4-0.7-0.9S201.1,17.5,201.6,17.5z"/>
			<rect x="201.4" y="19.8" class="st1" width="0.4" height="0.4"/>
			<path class="st1" d="M203.2,20.2h0.4v-1l0,0c0.2,0.2,0.4,0.3,0.7,0.3c0.6,0,1-0.5,1-1.2s-0.4-1.2-1-1.2c-0.3,0-0.6,0.1-0.7,0.4
				l0,0v-0.3h-0.4L203.2,20.2L203.2,20.2z M204.2,17.5c0.4,0,0.6,0.4,0.6,0.9s-0.2,0.9-0.6,0.9c-0.5,0-0.7-0.4-0.7-0.9
				S203.7,17.5,204.2,17.5L204.2,17.5z"/>
			<path class="st1" d="M206.5,19.1c0,0.3,0.2,0.4,0.5,0.4c0.1,0,0.2,0,0.3,0v-0.3h0c0,0-0.1,0-0.2,0c-0.1,0-0.2,0-0.2-0.2v-1.5h0.4
				v-0.3h-0.4v-0.7h-0.4v0.7h-0.3v0.3h0.3C206.5,17.6,206.5,19.1,206.5,19.1z"/>
			<polygon class="st1" points="209.1,16.5 208.7,16.5 208.5,17 208.8,17 			"/>
			<path class="st1" d="M207.6,19c0,0.4,0.3,0.6,0.8,0.6c0.4,0,0.6-0.2,0.7-0.4l0,0c0,0.2,0.1,0.3,0.4,0.3c0.1,0,0.1,0,0.2,0v-0.2h0
				c-0.2,0-0.2-0.1-0.2-0.2V18c0-0.5-0.4-0.7-0.8-0.7c-0.6,0-0.9,0.3-0.9,0.8h0.3c0-0.3,0.2-0.5,0.6-0.5c0.3,0,0.5,0.1,0.5,0.4
				s-0.2,0.3-0.5,0.3C208,18.3,207.6,18.4,207.6,19z M208.6,18.5c0.2,0,0.4-0.1,0.5-0.2v0.4c0,0.3-0.2,0.6-0.7,0.6
				c-0.2,0-0.5-0.1-0.5-0.4C208,18.6,208.3,18.6,208.6,18.5L208.6,18.5z"/>
			<path class="st1" d="M211,19.6c0.6,0,0.9-0.3,0.9-0.9h-0.4c0,0.4-0.2,0.5-0.6,0.5c-0.5,0-0.7-0.4-0.7-0.9s0.2-0.9,0.7-0.9
				c0.3,0,0.6,0.2,0.6,0.5h0.4c-0.1-0.5-0.4-0.8-0.9-0.8c-0.7,0-1.1,0.5-1.1,1.2S210.3,19.6,211,19.6L211,19.6z"/>
			<path class="st1" d="M213.6,19.5h0.4l0.8-2.2h-0.4l-0.5,1.4c-0.1,0.2-0.1,0.5-0.1,0.5l0,0c0,0-0.1-0.3-0.1-0.5l-0.5-1.4h-0.4
				L213.6,19.5L213.6,19.5z"/>
			<path class="st1" d="M215,18.4c0,0.6,0.4,1.2,1.1,1.2s1.1-0.5,1.1-1.2c0-0.4-0.1-0.7-0.4-0.9c0.2-0.1,0.3-0.3,0.3-0.5h-0.3
				c0,0.2-0.1,0.3-0.3,0.3c-0.1,0-0.2-0.1-0.4-0.1C215.4,17.2,215,17.8,215,18.4L215,18.4z M216.1,17.5c0.5,0,0.7,0.4,0.7,0.9
				s-0.2,0.9-0.7,0.9s-0.7-0.4-0.7-0.9S215.6,17.5,216.1,17.5z"/>
			<polygon class="st1" points="215.9,17 216.2,17 216.5,16.5 216.1,16.5 			"/>
			<rect x="217.6" y="16.6" class="st1" width="0.4" height="0.4"/>
			<rect x="217.6" y="17.3" class="st1" width="0.4" height="2.2"/>
			<rect x="218.6" y="17.8" class="st1" width="0.4" height="0.4"/>
			<rect x="218.6" y="19.1" class="st1" width="0.4" height="0.4"/>
			<rect x="156.3" y="11.3" class="st1" width="0.3" height="8.6"/>
		</g>
	</g>
</g>
</svg>
