<?xml version="1.0" encoding="UTF-8"?>
<svg id="Layer_1" data-name="Layer 1" xmlns="http://www.w3.org/2000/svg" viewBox="0 0 317.43 55.25">
  <defs>
    <style>
      .cls-1 {
        fill: #38d430;
      }

      .cls-1, .cls-2 {
        stroke-width: 0px;
      }

      .cls-2 {
        fill: #fff;
      }
    </style>
  </defs>
  <g>
    <path class="cls-2" d="M304.94,40.19c.31,0,.6-.17.6-.6v-.31c-.12.06-.28.12-.51.17-.38.08-.5.19-.5.4,0,.24.19.34.41.34Z"/>
    <path class="cls-2" d="M315.32,38.81c0-8.67-7.03-15.7-15.7-15.7s-15.7,7.03-15.7,15.7,7.03,15.7,15.7,15.7,15.7-7.03,15.7-15.7ZM308.45,37.33v.53h.02c.25-.41.59-.64,1.12-.64.47,0,.83.23,1.01.62h.02c.3-.47.7-.62,1.16-.62.87,0,1.24.61,1.24,1.42v2.23h-1.31v-1.99c0-.36-.12-.6-.45-.6s-.49.29-.49.67v1.91h-1.31v-1.99c0-.36-.12-.6-.45-.6s-.49.29-.49.67v1.91h-1.31v-3.54h1.25ZM292.76,36.9h-1.31v-.88h1.31v.88ZM292.76,40.87h-1.31v-3.54h1.31v3.54ZM299.41,37.33h1.25v.49h.02c.28-.39.65-.6,1.14-.6.82,0,1.24.55,1.24,1.36v2.29h-1.31v-1.97c0-.37-.15-.61-.49-.61s-.54.29-.54.67v1.91h-1.31v-3.54ZM305.1,37.22c.54,0,.89.07,1.16.24.37.23.55.59.55,1.06v1.77c0,.3.02.46.13.53v.06h-1.29c-.05-.08-.09-.19-.12-.39h-.01c-.24.33-.61.48-1.07.48-.68,0-1.18-.37-1.18-1.06,0-.78.6-1.01,1.28-1.09.75-.08.95-.17.95-.4,0-.19-.09-.34-.38-.34s-.43.17-.47.42h-1.24c.03-.7.57-1.28,1.68-1.28ZM297.18,36.19h1.28v1.15h.67v.79h-.67v1.44c0,.35.25.36.66.33v.97c-.2.05-.41.08-.65.08-.86,0-1.3-.24-1.3-1.09v-1.73h-.46v-.79h.46v-1.15ZM294.87,37.21c.56,0,.98.18,1.31.48.43.4.63,1.03.62,1.73h-2.53c.08.41.3.66.69.66.23,0,.4-.09.49-.26h1.27c-.08.32-.33.63-.67.85-.33.21-.68.3-1.13.3-1.16,0-1.94-.79-1.94-1.88s.77-1.88,1.89-1.88ZM291.38,35.91l-1.6,4.96h-1.62l-1.59-4.96h1.49l.68,2.33c.13.42.24.97.24.97h.01s.12-.54.24-.97l.67-2.33h1.47Z"/>
    <path class="cls-2" d="M294.9,38.1c-.36,0-.56.24-.63.63h1.22c-.06-.4-.28-.63-.59-.63Z"/>
    <path class="cls-2" d="M112.86,47.05c1.38,0,2.33-.61,3.03-1.43h.09v.94c0,1.32-.49,2.21-1.93,2.21-1.06,0-1.62-.54-1.78-1.08h-4.27c.42,2.82,2.77,4.2,6.13,4.2,1.78,0,3.36-.4,4.46-1.38,1.06-.94,1.76-2.51,1.76-4.53v-10.94h-4.23v1.39h-.07c-.68-1.08-1.71-1.76-3.4-1.76-2.93,0-4.88,2.82-4.88,6.43,0,3.94,2.37,5.96,5.1,5.96ZM114.13,38.03c1.29,0,2.04,1.27,2.04,2.84,0,1.67-.75,2.91-2.04,2.91s-2.04-1.22-2.04-2.91.8-2.84,2.04-2.84Z"/>
    <path class="cls-2" d="M107.39,38.76h.09v-3.87c-.14-.07-.38-.12-.73-.12-1.53,0-2.72.66-3.64,2.42h-.07v-2.16h-4.23v12.63h4.44v-5.28c0-2.84,1.53-4.09,4.13-3.62Z"/>
    <path class="cls-2" d="M2.08,47.66h8.85c1.74,0,3.05-.35,4.06-1.08,1.2-.89,1.92-2.37,1.92-4.27,0-2-1.06-3.64-2.89-4.25v-.07c1.41-.66,2.09-1.71,2.09-3.4,0-1.46-.54-2.68-1.55-3.5-.89-.73-2.16-1.13-3.8-1.13H2.08v17.7ZM6.89,33.83h2.98c.94,0,1.64.49,1.64,1.5s-.68,1.55-1.62,1.55h-3.01v-3.05ZM6.89,40.12h3.43c1.01,0,1.85.59,1.85,1.81s-.77,1.81-1.83,1.81h-3.45v-3.61Z"/>
    <rect class="cls-2" x="17.72" y="29.95" width="4.55" height="17.7"/>
    <path class="cls-2" d="M29.72,48.05c3.99,0,6.53-2.68,6.53-6.69s-2.54-6.69-6.53-6.69-6.57,2.7-6.57,6.69,2.58,6.69,6.57,6.69ZM29.67,37.77c1.36,0,2.07,1.39,2.07,3.59s-.7,3.62-2.07,3.62-2.02-1.39-2.02-3.62.66-3.59,2.02-3.59Z"/>
    <path class="cls-2" d="M49.86,41.36c0-3.99-2.54-6.69-6.53-6.69s-6.57,2.7-6.57,6.69,2.58,6.69,6.57,6.69,6.53-2.68,6.53-6.69ZM43.29,37.77c1.36,0,2.07,1.39,2.07,3.59s-.71,3.62-2.07,3.62-2.02-1.39-2.02-3.62.66-3.59,2.02-3.59Z"/>
    <path class="cls-2" d="M50.73,47.66h4.44v-6.88c0-1.36.56-2.4,1.67-2.4s1.53.85,1.53,2.14v7.14h4.44v-6.88c0-1.36.56-2.4,1.67-2.4s1.53.85,1.53,2.14v7.14h4.44v-7.94c0-2.91-1.27-5.07-4.2-5.07-1.55,0-2.89.52-3.92,2.18h-.07c-.61-1.38-1.81-2.18-3.4-2.18-1.81,0-2.96.8-3.8,2.28h-.07v-1.9h-4.23v12.63Z"/>
    <path class="cls-2" d="M84.68,41.32c0-3.8-1.83-6.67-5-6.67-1.62,0-2.75.59-3.59,1.69h-.07v-6.39h-4.44v17.7h4.23v-1.64h.05c.78,1.41,2.18,2.07,3.55,2.07,3.29,0,5.28-2.47,5.28-6.76ZM78.09,37.91c1.34,0,2.09,1.31,2.09,3.36s-.73,3.36-2.09,3.36-2.23-1.34-2.23-3.36.87-3.36,2.23-3.36Z"/>
    <path class="cls-2" d="M91.8,48.01c3.17,0,5.4-1.46,6.15-4.34h-4.27c-.28.85-.96,1.2-1.74,1.2-1.34,0-2.09-.8-2.28-2.37h8.48c.05-2.61-.61-4.81-2.07-6.22-1.1-1.06-2.56-1.64-4.44-1.64-3.78,0-6.39,2.75-6.39,6.69s2.63,6.69,6.55,6.69ZM91.73,37.68c1.06,0,1.9.8,1.97,2.32h-4.04c.16-1.46.85-2.32,2.07-2.32Z"/>
    <polygon class="cls-2" points="279.45 47.66 274.99 39.7 278.98 35.03 274.1 35.03 271.11 38.88 271.11 29.95 266.75 29.95 266.75 47.66 271.11 47.66 271.11 44.11 272.03 43.05 274.42 47.66 279.45 47.66"/>
    <path class="cls-2" d="M124.48,47.66h8.85c1.74,0,3.05-.35,4.06-1.08,1.2-.89,1.92-2.37,1.92-4.27,0-2-1.05-3.64-2.89-4.25v-.07c1.41-.66,2.09-1.71,2.09-3.4,0-1.46-.54-2.68-1.55-3.5-.89-.73-2.16-1.13-3.8-1.13h-8.69v17.7ZM129.29,33.83h2.98c.94,0,1.64.49,1.64,1.5s-.68,1.55-1.62,1.55h-3.01v-3.05ZM129.29,40.12h3.43c1.01,0,1.85.59,1.85,1.81s-.77,1.81-1.83,1.81h-3.45v-3.62Z"/>
    <path class="cls-2" d="M140.02,43.17c0,2.91,1.41,4.88,4.27,4.88,1.64,0,2.82-.73,3.73-2.04h.07v1.64h4.23v-12.63h-4.44v6.93c0,1.46-.68,2.23-1.83,2.23-1.06,0-1.6-.56-1.6-2v-7.16h-4.44v8.15Z"/>
    <path class="cls-2" d="M164.82,43.76c0-3.5-2.77-4.02-4.95-4.34-1.36-.19-2.46-.38-2.46-1.08s.61-.99,1.27-.99c.73,0,1.38.26,1.5,1.2h4.18c-.16-2.47-2.06-3.9-5.7-3.9-2.93,0-5.45,1.46-5.45,4.04,0,3.17,2.32,3.83,4.34,4.13,1.55.26,2.94.33,2.94,1.36,0,.87-.66,1.13-1.53,1.13-1.13,0-1.74-.61-1.81-1.64h-4.11c.02,2.89,2.35,4.41,5.89,4.41,3.29,0,5.89-1.29,5.89-4.32Z"/>
    <rect class="cls-2" x="165.55" y="35.03" width="4.44" height="12.63"/>
    <rect class="cls-2" x="165.55" y="30.47" width="4.44" height="3.55"/>
    <path class="cls-2" d="M183.58,47.66v-8.17c0-2.89-1.43-4.84-4.2-4.84-1.67,0-2.89.73-3.85,2.11h-.07v-1.74h-4.23v12.63h4.44v-6.93c0-1.46.68-2.4,1.81-2.4s1.67.78,1.67,2.18v7.14h4.44Z"/>
    <path class="cls-2" d="M190.91,48.01c3.17,0,5.4-1.46,6.15-4.34h-4.27c-.28.85-.96,1.2-1.74,1.2-1.34,0-2.09-.8-2.28-2.37h8.48c.05-2.61-.61-4.81-2.07-6.22-1.1-1.06-2.56-1.64-4.44-1.64-3.78,0-6.39,2.75-6.39,6.69s2.63,6.69,6.55,6.69ZM190.84,37.68c1.06,0,1.9.8,1.97,2.32h-4.04c.16-1.46.84-2.32,2.07-2.32Z"/>
    <path class="cls-2" d="M197.69,43.66c.02,2.89,2.35,4.41,5.89,4.41,3.29,0,5.89-1.29,5.89-4.32,0-3.5-2.77-4.02-4.95-4.34-1.36-.19-2.46-.38-2.46-1.08s.61-.99,1.27-.99c.73,0,1.39.26,1.5,1.2h4.18c-.16-2.47-2.07-3.9-5.7-3.9-2.93,0-5.45,1.46-5.45,4.04,0,3.17,2.32,3.83,4.34,4.13,1.55.26,2.94.33,2.94,1.36,0,.87-.66,1.13-1.53,1.13-1.13,0-1.74-.61-1.81-1.64h-4.11Z"/>
    <path class="cls-2" d="M215.84,48.08c3.29,0,5.89-1.29,5.89-4.32,0-3.5-2.77-4.02-4.95-4.34-1.36-.19-2.46-.38-2.46-1.08s.61-.99,1.27-.99c.73,0,1.39.26,1.5,1.2h4.18c-.16-2.47-2.07-3.9-5.71-3.9-2.93,0-5.45,1.46-5.45,4.04,0,3.17,2.32,3.83,4.34,4.13,1.55.26,2.93.33,2.93,1.36,0,.87-.66,1.13-1.52,1.13-1.13,0-1.74-.61-1.81-1.64h-4.11c.02,2.89,2.35,4.41,5.89,4.41Z"/>
    <polygon class="cls-2" points="236.72 47.66 240.52 35.03 236.08 35.03 234.37 41.97 234.32 41.97 232.7 35.03 228.85 35.03 227.23 41.93 227.18 41.93 225.47 35.03 220.94 35.03 224.76 47.66 228.97 47.66 230.68 40.28 230.73 40.28 232.44 47.66 236.72 47.66"/>
    <path class="cls-2" d="M246.32,48.01c3.17,0,5.4-1.46,6.15-4.34h-4.27c-.28.85-.96,1.2-1.74,1.2-1.34,0-2.09-.8-2.28-2.37h8.48c.05-2.61-.61-4.81-2.07-6.22-1.1-1.06-2.56-1.64-4.44-1.64-3.78,0-6.39,2.75-6.39,6.69s2.63,6.69,6.55,6.69ZM246.25,37.68c1.06,0,1.9.8,1.97,2.32h-4.04c.16-1.46.85-2.32,2.07-2.32Z"/>
    <path class="cls-2" d="M259.73,48.01c3.17,0,5.4-1.46,6.15-4.34h-4.27c-.28.85-.96,1.2-1.74,1.2-1.34,0-2.09-.8-2.28-2.37h8.48c.05-2.61-.61-4.81-2.07-6.22-1.1-1.06-2.56-1.64-4.44-1.64-3.78,0-6.39,2.75-6.39,6.69s2.63,6.69,6.55,6.69ZM259.66,37.68c1.06,0,1.9.8,1.97,2.32h-4.04c.16-1.46.85-2.32,2.07-2.32Z"/>
  </g>
  <g>
    <path class="cls-1" d="M7.27,23.1v-5.41h3.92c3.57,0,6.1-2.58,6.1-6,0-1.96-.72-3.57-1.98-4.69-1.17-1.04-2.8-1.64-5.06-1.64H2.08v17.74h5.19ZM7.27,9.65h2.75c1.34,0,2.11.77,2.11,1.96s-.79,2.06-2.06,2.06h-2.8v-4.02Z"/>
    <path class="cls-1" d="M17.76,23.1h4.69v-6.82c0-1.37.72-2.41,1.91-2.41s1.76.87,1.76,2.18v7.05h4.69v-8.19c0-2.9-1.51-4.86-4.44-4.86-1.76,0-2.9.74-3.85,1.84h-.07v-6.53h-4.69v17.74Z"/>
    <polygon class="cls-1" points="42.09 5.5 37.55 5.5 36.01 8.93 39.16 8.93 42.09 5.5"/>
    <path class="cls-1" d="M37.77,13.1c1.02,0,1.34.52,1.34,1.22,0,.79-.72,1.12-3.4,1.41-2.43.27-4.59,1.09-4.59,3.9,0,2.48,1.79,3.8,4.22,3.8,1.64,0,2.98-.55,3.82-1.71h.05c.1.69.25,1.09.42,1.39h4.62v-.2c-.4-.25-.47-.82-.47-1.89v-6.33c0-1.69-.65-2.98-1.96-3.8-.97-.6-2.21-.84-4.14-.84-3.97,0-5.91,2.06-6,4.57h4.44c.12-.92.65-1.51,1.66-1.51ZM37.1,20.64c-.77,0-1.46-.37-1.46-1.22,0-.74.42-1.14,1.79-1.44.79-.17,1.36-.37,1.81-.6v1.12c0,1.51-1.04,2.13-2.13,2.13Z"/>
    <path class="cls-1" d="M43.74,13.27h1.64v6.18c0,3.03,1.56,3.9,4.64,3.9.84,0,1.59-.12,2.31-.3v-3.45c-1.46.1-2.36.07-2.36-1.19v-5.14h2.41v-2.83h-2.41v-4.09h-4.59v4.09h-1.64v2.83Z"/>
    <path class="cls-1" d="M56.24,19.45c0,3.03,1.56,3.9,4.64,3.9.84,0,1.59-.12,2.31-.3v-3.45c-1.46.1-2.36.07-2.36-1.19v-5.14h2.41v-2.83h-2.41v-4.09h-4.59v4.09h-1.64v2.83h1.64v6.18Z"/>
    <path class="cls-1" d="M63.79,23.1h4.69v-5.19c0-2.85,1.61-4.09,4.37-3.62h.1v-4c-.15-.07-.4-.12-.77-.12-1.61,0-2.83.6-3.85,2.18h-.08v-1.91h-4.47v12.66Z"/>
    <rect class="cls-1" x="73.94" y="5.75" width="4.69" height="3.15"/>
    <rect class="cls-1" x="73.94" y="10.44" width="4.69" height="12.66"/>
    <polygon class="cls-1" points="85.9 7.81 87.02 9.17 90.62 9.17 87.91 5.75 83.89 5.75 81.19 9.17 84.79 9.17 85.9 7.81"/>
    <path class="cls-1" d="M90.15,4.58c0,.47-.27,1.09-1.17,1.71h2.51c.79-.45,1.49-1.36,1.49-2.48,0-1.27-.99-2.08-2.95-2.08-.72,0-1.39.15-1.74.25v2.01c.32-.15.65-.17.92-.17.72,0,.94.37.94.77Z"/>
    <path class="cls-1" d="M85.95,23.44c1.61,0,2.88-.32,4.04-1.07,1.24-.79,2.13-1.91,2.41-3.05h-4.54c-.35.62-.94.94-1.76.94-1.42,0-2.21-.89-2.48-2.36h9.03c.05-2.51-.67-4.76-2.21-6.18-1.17-1.07-2.68-1.71-4.67-1.71-4,0-6.75,2.9-6.75,6.72s2.78,6.7,6.92,6.7ZM85.88,13.17c1.12,0,1.91.84,2.11,2.26h-4.37c.25-1.39.97-2.26,2.26-2.26Z"/>
    <path class="cls-1" d="M93.45,23.1h4.69v-6.82c0-1.36.72-2.41,1.91-2.41s1.76.87,1.76,2.18v7.05h4.69v-8.19c0-2.9-1.51-4.86-4.44-4.86-1.76,0-3.05.74-4.07,2.13h-.08v-1.74h-4.47v12.66Z"/>
    <polygon class="cls-1" points="114.91 13.77 108.88 23.1 114.71 23.1 117.94 17.56 117.99 17.56 121.04 23.1 127.22 23.1 121.31 13.72 126.65 5.35 121.01 5.35 118.21 10.09 118.16 10.09 115.41 5.35 109.42 5.35 114.91 13.77"/>
    <path class="cls-1" d="M134.27,21.71h.05c.1.69.25,1.09.42,1.39h4.62v-.2c-.4-.25-.47-.82-.47-1.89v-6.33c0-1.69-.65-2.98-1.96-3.8-.97-.6-2.21-.84-4.14-.84-3.97,0-5.91,2.06-6,4.57h4.44c.12-.92.65-1.51,1.66-1.51s1.34.52,1.34,1.22c0,.79-.72,1.12-3.4,1.41-2.43.27-4.59,1.09-4.59,3.9,0,2.48,1.79,3.8,4.22,3.8,1.64,0,2.98-.55,3.82-1.71ZM132.53,17.98c.79-.17,1.37-.37,1.81-.6v1.12c0,1.51-1.04,2.13-2.13,2.13-.77,0-1.46-.37-1.46-1.22,0-.74.42-1.14,1.79-1.44Z"/>
    <path class="cls-1" d="M139.89,23.1h4.69v-6.82c0-1.36.72-2.41,1.91-2.41s1.76.87,1.76,2.18v7.05h4.69v-8.19c0-2.9-1.51-4.86-4.44-4.86-1.76,0-3.05.74-4.07,2.13h-.07v-1.74h-4.47v12.66Z"/>
    <path class="cls-1" d="M153.94,23.1h4.69v-6.82c0-1.37.72-2.41,1.91-2.41s1.76.87,1.76,2.18v7.05h4.69v-8.19c0-2.9-1.51-4.86-4.44-4.86-1.76,0-2.9.74-3.85,1.84h-.07v-6.53h-4.69v17.74Z"/>
  </g>
</svg>